<svg width="22" height="22" viewBox="0 0 22 22" fill="none" xmlns="http://www.w3.org/2000/svg">
<path d="M20.8997 0.200195H1.09971C0.602651 0.200195 0.199707 0.603139 0.199707 1.1002V20.9002C0.199707 21.3973 0.602651 21.8002 1.09971 21.8002H11.7369V13.4356H8.92206V10.1757H11.7369V7.77162C11.7369 4.98172 13.4409 3.46257 15.9297 3.46257C17.1218 3.46257 18.1464 3.55133 18.445 3.591V6.5066L16.7189 6.50739C15.3654 6.50739 15.1033 7.15057 15.1033 8.09439V10.1757H18.3314L17.9111 13.4356H15.1033V21.8002H20.8997C21.3968 21.8002 21.7997 21.3973 21.7997 20.9002V1.1002C21.7997 0.603139 21.3968 0.200195 20.8997 0.200195Z" fill="white"/>
</svg>
