<svg width="22" height="22" viewBox="0 0 22 22" fill="none" xmlns="http://www.w3.org/2000/svg">
<path fill-rule="evenodd" clip-rule="evenodd" d="M6.74666 0.264995C7.89866 0.212795 8.26631 0.200195 11.1994 0.200195C14.1325 0.200195 14.5002 0.212795 15.6522 0.264995C17.4081 0.345095 18.9493 0.775295 20.1868 2.0128C21.4248 3.25075 21.8545 4.79245 21.9346 6.54745C21.9868 7.69945 21.9994 8.0671 21.9994 11.0002C21.9994 13.9333 21.9868 14.3009 21.9346 15.4529C21.8545 17.2088 21.4243 18.7501 20.1868 19.9876C18.9489 21.2255 17.4067 21.6553 15.6522 21.7354C14.5002 21.7876 14.1325 21.8002 11.1994 21.8002C8.26631 21.8002 7.89866 21.7876 6.74666 21.7354C4.99076 21.6553 3.44951 21.2251 2.21201 19.9876C0.974064 18.7496 0.544314 17.2079 0.464214 15.4529C0.412014 14.3009 0.399414 13.9333 0.399414 11.0002C0.399414 8.0671 0.412014 7.69945 0.464214 6.54745C0.544314 4.79155 0.974514 3.2503 2.21201 2.0128C3.44996 0.774845 4.99166 0.345095 6.74666 0.264995ZM15.564 2.20851C14.4251 2.15631 14.0835 2.14551 11.1999 2.14551C8.3163 2.14551 7.97475 2.15676 6.8358 2.20851C5.60685 2.26476 4.4661 2.51091 3.5886 3.38841C2.7111 4.26591 2.46495 5.40666 2.4087 6.63561C2.3565 7.77456 2.3457 8.11611 2.3457 10.9997C2.3457 13.8833 2.35695 14.2249 2.4087 15.3638C2.46495 16.5928 2.7111 17.7335 3.5886 18.611C4.4661 19.4885 5.60685 19.7347 6.8358 19.7909C7.9743 19.8431 8.31585 19.8539 11.1999 19.8539C14.084 19.8539 14.4255 19.8427 15.564 19.7909C16.793 19.7347 17.9337 19.4885 18.8112 18.611C19.6887 17.7335 19.9349 16.5928 19.9911 15.3638C20.0433 14.2249 20.0541 13.8833 20.0541 10.9997C20.0541 8.11611 20.0429 7.77456 19.9911 6.63561C19.9349 5.40666 19.6887 4.26591 18.8112 3.38841C17.9337 2.51091 16.793 2.26476 15.564 2.20851Z" fill="white"/>
<path fill-rule="evenodd" clip-rule="evenodd" d="M6.29102 11.4908C6.29102 8.50864 8.7084 6.09082 11.691 6.09082C14.6736 6.09082 17.091 8.5082 17.091 11.4908C17.091 14.4734 14.6736 16.8908 11.691 16.8908C8.7084 16.8908 6.29102 14.473 6.29102 11.4908ZM8.18555 11.4907C8.18555 13.4265 9.75507 14.9961 11.6909 14.9961C13.6267 14.9961 15.1963 13.4265 15.1963 11.4907C15.1963 9.55487 13.6267 7.98535 11.6909 7.98535C9.75507 7.98535 8.18555 9.55487 8.18555 11.4907Z" fill="white"/>
<circle cx="16.5997" cy="5.59968" r="1.47273" fill="white"/>
</svg>
