<svg width="23" height="22" viewBox="0 0 23 22" fill="none" xmlns="http://www.w3.org/2000/svg">
<path fill-rule="evenodd" clip-rule="evenodd" d="M1.70078 0.200195H21.5008C21.9958 0.200195 22.4008 0.605195 22.4008 1.1002V20.9002C22.4008 21.3952 21.9958 21.8002 21.5008 21.8002H1.70078C1.20578 21.8002 0.800781 21.3952 0.800781 20.9002V1.1002C0.800781 0.605195 1.20578 0.200195 1.70078 0.200195ZM3.99512 18.6048H7.19012V8.2998H3.99512V18.6048ZM5.61551 6.90582C4.58051 6.90582 3.77051 6.09582 3.77051 5.06082C3.77051 4.02582 4.58051 3.21582 5.61551 3.21582C6.65051 3.21582 7.46051 4.02582 7.46051 5.06082C7.46051 6.05082 6.65051 6.90582 5.61551 6.90582ZM16.0108 18.6053H19.1608V12.9353C19.1608 10.1453 18.5758 8.03027 15.3358 8.03027C13.8058 8.03027 12.7258 8.88527 12.3208 9.69527H12.2758V8.30027H9.21582V18.6053H12.4108V13.5203C12.4108 12.1703 12.6808 10.8653 14.3458 10.8653C16.0108 10.8653 16.0108 12.3953 16.0108 13.6103V18.6053Z" fill="white"/>
</svg>
