<svg width="21" height="19" viewBox="0 0 21 19" fill="none" xmlns="http://www.w3.org/2000/svg">
<path fill-rule="evenodd" clip-rule="evenodd" d="M20.4 2.68724C19.635 3.05837 18.8275 3.29033 17.9775 3.42951C18.8275 2.87281 19.5075 1.99136 19.805 0.924352C18.9975 1.43466 18.105 1.8058 17.1275 2.03775C16.3625 1.15631 15.2575 0.599609 14.0675 0.599609C11.7725 0.599609 9.9025 2.64085 9.9025 5.146C9.9025 5.51714 9.945 5.84188 10.03 6.16662C6.5875 5.98105 3.485 4.17177 1.4025 1.38827C1.0625 2.08415 0.85 2.82641 0.85 3.66147C0.85 5.23878 1.5725 6.63054 2.72 7.46559C2.04 7.4192 1.4025 7.23363 0.8075 6.90889V6.95528C0.8075 9.18208 2.2525 11.0378 4.165 11.4553C3.825 11.5481 3.4425 11.5945 3.06 11.5945C2.805 11.5945 2.5075 11.5481 2.2525 11.5017C2.805 13.311 4.335 14.6563 6.1625 14.6563C4.7175 15.8625 2.9325 16.6048 0.9775 16.6048C0.6375 16.6048 0.2975 16.6048 0 16.5584C1.87 17.8573 4.0375 18.5996 6.4175 18.5996C14.11 18.5996 18.3175 11.6408 18.3175 5.60992C18.3175 5.42435 18.3175 5.19239 18.3175 5.00683C19.125 4.40373 19.8475 3.61507 20.4 2.68724Z" fill="#C42630"/>
</svg>
