<svg width="204" height="725" viewBox="0 0 204 725" fill="none" xmlns="http://www.w3.org/2000/svg">
<circle cx="102" cy="244" r="87.4173" transform="rotate(180 102 244)" fill="#0F0F0F" stroke="#6A6A6A" stroke-width="0.834515"/>
<path d="M79.1557 233.192C79.1557 233.757 79.0224 234.291 78.7557 234.792C78.489 235.293 78.0624 235.704 77.4757 236.024C76.889 236.333 76.137 236.488 75.2197 236.488H73.2037V241H71.3797V229.88H75.2197C76.073 229.88 76.793 230.029 77.3797 230.328C77.977 230.616 78.4197 231.011 78.7077 231.512C79.0064 232.013 79.1557 232.573 79.1557 233.192ZM75.2197 235C75.913 235 76.4304 234.845 76.7717 234.536C77.113 234.216 77.2837 233.768 77.2837 233.192C77.2837 231.976 76.5957 231.368 75.2197 231.368H73.2037V235H75.2197ZM82.7193 233.464C82.986 233.016 83.338 232.669 83.7753 232.424C84.2233 232.168 84.7513 232.04 85.3593 232.04V233.928H84.8953C84.1806 233.928 83.6366 234.109 83.2633 234.472C82.9006 234.835 82.7193 235.464 82.7193 236.36V241H80.8953V232.184H82.7193V233.464ZM90.8599 241.144C90.0279 241.144 89.2759 240.957 88.6039 240.584C87.9319 240.2 87.4039 239.667 87.0199 238.984C86.6359 238.291 86.4439 237.491 86.4439 236.584C86.4439 235.688 86.6413 234.893 87.0359 234.2C87.4306 233.507 87.9693 232.973 88.6519 232.6C89.3346 232.227 90.0973 232.04 90.9399 232.04C91.7826 232.04 92.5453 232.227 93.2279 232.6C93.9106 232.973 94.4493 233.507 94.8439 234.2C95.2386 234.893 95.4359 235.688 95.4359 236.584C95.4359 237.48 95.2333 238.275 94.8279 238.968C94.4226 239.661 93.8679 240.2 93.1639 240.584C92.4706 240.957 91.7026 241.144 90.8599 241.144ZM90.8599 239.56C91.3293 239.56 91.7666 239.448 92.1719 239.224C92.5879 239 92.9239 238.664 93.1799 238.216C93.4359 237.768 93.5639 237.224 93.5639 236.584C93.5639 235.944 93.4413 235.405 93.1959 234.968C92.9506 234.52 92.6253 234.184 92.2199 233.96C91.8146 233.736 91.3773 233.624 90.9079 233.624C90.4386 233.624 90.0013 233.736 89.5959 233.96C89.2013 234.184 88.8866 234.52 88.6519 234.968C88.4173 235.405 88.2999 235.944 88.2999 236.584C88.2999 237.533 88.5399 238.269 89.0199 238.792C89.5106 239.304 90.1239 239.56 90.8599 239.56ZM96.6311 236.552C96.6311 235.667 96.8124 234.883 97.1751 234.2C97.5484 233.517 98.0497 232.989 98.6791 232.616C99.3191 232.232 100.028 232.04 100.807 232.04C101.383 232.04 101.948 232.168 102.503 232.424C103.068 232.669 103.516 233 103.847 233.416V229.16H105.687V241H103.847V239.672C103.548 240.099 103.132 240.451 102.599 240.728C102.076 241.005 101.474 241.144 100.791 241.144C100.023 241.144 99.3191 240.952 98.6791 240.568C98.0497 240.173 97.5484 239.629 97.1751 238.936C96.8124 238.232 96.6311 237.437 96.6311 236.552ZM103.847 236.584C103.847 235.976 103.719 235.448 103.463 235C103.218 234.552 102.892 234.211 102.487 233.976C102.082 233.741 101.644 233.624 101.175 233.624C100.706 233.624 100.268 233.741 99.8631 233.976C99.4577 234.2 99.1271 234.536 98.8711 234.984C98.6257 235.421 98.5031 235.944 98.5031 236.552C98.5031 237.16 98.6257 237.693 98.8711 238.152C99.1271 238.611 99.4577 238.963 99.8631 239.208C100.279 239.443 100.716 239.56 101.175 239.56C101.644 239.56 102.082 239.443 102.487 239.208C102.892 238.973 103.218 238.632 103.463 238.184C103.719 237.725 103.847 237.192 103.847 236.584ZM116.067 232.184V241H114.243V239.96C113.955 240.323 113.576 240.611 113.107 240.824C112.648 241.027 112.157 241.128 111.635 241.128C110.941 241.128 110.317 240.984 109.763 240.696C109.219 240.408 108.787 239.981 108.467 239.416C108.157 238.851 108.003 238.168 108.003 237.368V232.184H109.811V237.096C109.811 237.885 110.008 238.493 110.403 238.92C110.797 239.336 111.336 239.544 112.019 239.544C112.701 239.544 113.24 239.336 113.635 238.92C114.04 238.493 114.243 237.885 114.243 237.096V232.184H116.067ZM117.865 236.584C117.865 235.677 118.047 234.883 118.409 234.2C118.783 233.507 119.295 232.973 119.945 232.6C120.596 232.227 121.343 232.04 122.185 232.04C123.252 232.04 124.132 232.296 124.825 232.808C125.529 233.309 126.004 234.029 126.249 234.968H124.281C124.121 234.531 123.865 234.189 123.513 233.944C123.161 233.699 122.719 233.576 122.185 233.576C121.439 233.576 120.841 233.843 120.393 234.376C119.956 234.899 119.737 235.635 119.737 236.584C119.737 237.533 119.956 238.275 120.393 238.808C120.841 239.341 121.439 239.608 122.185 239.608C123.241 239.608 123.94 239.144 124.281 238.216H126.249C125.993 239.112 125.513 239.827 124.809 240.36C124.105 240.883 123.231 241.144 122.185 241.144C121.343 241.144 120.596 240.957 119.945 240.584C119.295 240.2 118.783 239.667 118.409 238.984C118.047 238.291 117.865 237.491 117.865 236.584ZM130.195 233.672V238.552C130.195 238.883 130.27 239.123 130.419 239.272C130.579 239.411 130.846 239.48 131.219 239.48H132.339V241H130.899C130.078 241 129.449 240.808 129.011 240.424C128.574 240.04 128.355 239.416 128.355 238.552V233.672H127.315V232.184H128.355V229.992H130.195V232.184H132.339V233.672H130.195ZM65.9961 247.88C67.1801 247.88 68.2147 248.109 69.1001 248.568C69.9961 249.016 70.6841 249.667 71.1641 250.52C71.6547 251.363 71.9001 252.349 71.9001 253.48C71.9001 254.611 71.6547 255.592 71.1641 256.424C70.6841 257.256 69.9961 257.896 69.1001 258.344C68.2147 258.781 67.1801 259 65.9961 259H62.3641V247.88H65.9961ZM65.9961 257.512C67.2974 257.512 68.2947 257.16 68.9881 256.456C69.6814 255.752 70.0281 254.76 70.0281 253.48C70.0281 252.189 69.6814 251.181 68.9881 250.456C68.2947 249.731 67.2974 249.368 65.9961 249.368H64.1881V257.512H65.9961ZM81.7878 254.376C81.7878 254.707 81.7665 255.005 81.7238 255.272H74.9878C75.0411 255.976 75.3025 256.541 75.7718 256.968C76.2411 257.395 76.8171 257.608 77.4998 257.608C78.4811 257.608 79.1745 257.197 79.5798 256.376H81.5478C81.2811 257.187 80.7958 257.853 80.0918 258.376C79.3985 258.888 78.5345 259.144 77.4998 259.144C76.6571 259.144 75.8998 258.957 75.2278 258.584C74.5665 258.2 74.0438 257.667 73.6598 256.984C73.2865 256.291 73.0998 255.491 73.0998 254.584C73.0998 253.677 73.2811 252.883 73.6438 252.2C74.0171 251.507 74.5345 250.973 75.1958 250.6C75.8678 250.227 76.6358 250.04 77.4998 250.04C78.3318 250.04 79.0731 250.221 79.7238 250.584C80.3745 250.947 80.8811 251.459 81.2438 252.12C81.6065 252.771 81.7878 253.523 81.7878 254.376ZM79.8838 253.8C79.8731 253.128 79.6331 252.589 79.1638 252.184C78.6945 251.779 78.1131 251.576 77.4198 251.576C76.7905 251.576 76.2518 251.779 75.8038 252.184C75.3558 252.579 75.0891 253.117 75.0038 253.8H79.8838ZM86.7828 259.144C86.0895 259.144 85.4655 259.021 84.9108 258.776C84.3668 258.52 83.9348 258.179 83.6148 257.752C83.2948 257.315 83.1241 256.829 83.1028 256.296H84.9908C85.0228 256.669 85.1988 256.984 85.5188 257.24C85.8495 257.485 86.2601 257.608 86.7508 257.608C87.2628 257.608 87.6575 257.512 87.9348 257.32C88.2228 257.117 88.3668 256.861 88.3668 256.552C88.3668 256.221 88.2068 255.976 87.8868 255.816C87.5775 255.656 87.0815 255.48 86.3988 255.288C85.7375 255.107 85.1988 254.931 84.7828 254.76C84.3668 254.589 84.0041 254.328 83.6948 253.976C83.3961 253.624 83.2468 253.16 83.2468 252.584C83.2468 252.115 83.3855 251.688 83.6628 251.304C83.9401 250.909 84.3348 250.6 84.8468 250.376C85.3695 250.152 85.9668 250.04 86.6388 250.04C87.6415 250.04 88.4468 250.296 89.0548 250.808C89.6735 251.309 90.0041 251.997 90.0468 252.872H88.2228C88.1908 252.477 88.0308 252.163 87.7428 251.928C87.4548 251.693 87.0655 251.576 86.5748 251.576C86.0948 251.576 85.7268 251.667 85.4708 251.848C85.2148 252.029 85.0868 252.269 85.0868 252.568C85.0868 252.803 85.1721 253 85.3428 253.16C85.5135 253.32 85.7215 253.448 85.9668 253.544C86.2121 253.629 86.5748 253.741 87.0548 253.88C87.6948 254.051 88.2175 254.227 88.6228 254.408C89.0388 254.579 89.3961 254.835 89.6948 255.176C89.9935 255.517 90.1481 255.971 90.1588 256.536C90.1588 257.037 90.0201 257.485 89.7428 257.88C89.4655 258.275 89.0708 258.584 88.5588 258.808C88.0575 259.032 87.4655 259.144 86.7828 259.144ZM93.0577 249.016C92.727 249.016 92.4497 248.904 92.2257 248.68C92.0017 248.456 91.8897 248.179 91.8897 247.848C91.8897 247.517 92.0017 247.24 92.2257 247.016C92.4497 246.792 92.727 246.68 93.0577 246.68C93.3777 246.68 93.6497 246.792 93.8737 247.016C94.0977 247.24 94.2097 247.517 94.2097 247.848C94.2097 248.179 94.0977 248.456 93.8737 248.68C93.6497 248.904 93.3777 249.016 93.0577 249.016ZM93.9537 250.184V259H92.1297V250.184H93.9537ZM99.9004 250.04C100.583 250.04 101.186 250.179 101.708 250.456C102.242 250.723 102.658 251.059 102.956 251.464V250.184H104.796V259.144C104.796 259.955 104.626 260.675 104.284 261.304C103.943 261.944 103.447 262.445 102.796 262.808C102.156 263.171 101.388 263.352 100.492 263.352C99.2978 263.352 98.3058 263.069 97.5164 262.504C96.7271 261.949 96.2791 261.192 96.1724 260.232H97.9804C98.1191 260.691 98.4124 261.059 98.8604 261.336C99.3191 261.624 99.8631 261.768 100.492 261.768C101.228 261.768 101.82 261.544 102.268 261.096C102.727 260.648 102.956 259.997 102.956 259.144V257.672C102.647 258.088 102.226 258.44 101.692 258.728C101.17 259.005 100.572 259.144 99.9004 259.144C99.1324 259.144 98.4284 258.952 97.7884 258.568C97.1591 258.173 96.6578 257.629 96.2844 256.936C95.9218 256.232 95.7404 255.437 95.7404 254.552C95.7404 253.667 95.9218 252.883 96.2844 252.2C96.6578 251.517 97.1591 250.989 97.7884 250.616C98.4284 250.232 99.1324 250.04 99.9004 250.04ZM102.956 254.584C102.956 253.976 102.828 253.448 102.572 253C102.327 252.552 102.002 252.211 101.596 251.976C101.191 251.741 100.754 251.624 100.284 251.624C99.8151 251.624 99.3778 251.741 98.9724 251.976C98.5671 252.2 98.2364 252.536 97.9804 252.984C97.7351 253.421 97.6124 253.944 97.6124 254.552C97.6124 255.16 97.7351 255.693 97.9804 256.152C98.2364 256.611 98.5671 256.963 98.9724 257.208C99.3884 257.443 99.8258 257.56 100.284 257.56C100.754 257.56 101.191 257.443 101.596 257.208C102.002 256.973 102.327 256.632 102.572 256.184C102.828 255.725 102.956 255.192 102.956 254.584ZM111.64 250.04C112.334 250.04 112.952 250.184 113.496 250.472C114.051 250.76 114.483 251.187 114.792 251.752C115.102 252.317 115.256 253 115.256 253.8V259H113.448V254.072C113.448 253.283 113.251 252.68 112.856 252.264C112.462 251.837 111.923 251.624 111.24 251.624C110.558 251.624 110.014 251.837 109.608 252.264C109.214 252.68 109.016 253.283 109.016 254.072V259H107.192V250.184H109.016V251.192C109.315 250.829 109.694 250.547 110.152 250.344C110.622 250.141 111.118 250.04 111.64 250.04ZM118.511 249.016C118.18 249.016 117.903 248.904 117.679 248.68C117.455 248.456 117.343 248.179 117.343 247.848C117.343 247.517 117.455 247.24 117.679 247.016C117.903 246.792 118.18 246.68 118.511 246.68C118.831 246.68 119.103 246.792 119.327 247.016C119.551 247.24 119.663 247.517 119.663 247.848C119.663 248.179 119.551 248.456 119.327 248.68C119.103 248.904 118.831 249.016 118.511 249.016ZM119.407 250.184V259H117.583V250.184H119.407ZM126.25 250.04C126.943 250.04 127.562 250.184 128.106 250.472C128.66 250.76 129.092 251.187 129.402 251.752C129.711 252.317 129.866 253 129.866 253.8V259H128.058V254.072C128.058 253.283 127.86 252.68 127.466 252.264C127.071 251.837 126.532 251.624 125.85 251.624C125.167 251.624 124.623 251.837 124.218 252.264C123.823 252.68 123.626 253.283 123.626 254.072V259H121.802V250.184H123.626V251.192C123.924 250.829 124.303 250.547 124.762 250.344C125.231 250.141 125.727 250.04 126.25 250.04ZM135.744 250.04C136.427 250.04 137.03 250.179 137.552 250.456C138.086 250.723 138.502 251.059 138.8 251.464V250.184H140.64V259.144C140.64 259.955 140.47 260.675 140.128 261.304C139.787 261.944 139.291 262.445 138.64 262.808C138 263.171 137.232 263.352 136.336 263.352C135.142 263.352 134.15 263.069 133.36 262.504C132.571 261.949 132.123 261.192 132.016 260.232H133.824C133.963 260.691 134.256 261.059 134.704 261.336C135.163 261.624 135.707 261.768 136.336 261.768C137.072 261.768 137.664 261.544 138.112 261.096C138.571 260.648 138.8 259.997 138.8 259.144V257.672C138.491 258.088 138.07 258.44 137.536 258.728C137.014 259.005 136.416 259.144 135.744 259.144C134.976 259.144 134.272 258.952 133.632 258.568C133.003 258.173 132.502 257.629 132.128 256.936C131.766 256.232 131.584 255.437 131.584 254.552C131.584 253.667 131.766 252.883 132.128 252.2C132.502 251.517 133.003 250.989 133.632 250.616C134.272 250.232 134.976 250.04 135.744 250.04ZM138.8 254.584C138.8 253.976 138.672 253.448 138.416 253C138.171 252.552 137.846 252.211 137.44 251.976C137.035 251.741 136.598 251.624 136.128 251.624C135.659 251.624 135.222 251.741 134.816 251.976C134.411 252.2 134.08 252.536 133.824 252.984C133.579 253.421 133.456 253.944 133.456 254.552C133.456 255.16 133.579 255.693 133.824 256.152C134.08 256.611 134.411 256.963 134.816 257.208C135.232 257.443 135.67 257.56 136.128 257.56C136.598 257.56 137.035 257.443 137.44 257.208C137.846 256.973 138.171 256.632 138.416 256.184C138.672 255.725 138.8 255.192 138.8 254.584Z" fill="white"/>
<circle cx="102" cy="426" r="95.4173" transform="rotate(180 102 426)" fill="white" stroke="#6A6A6A" stroke-width="0.834515"/>
<path d="M79.1557 415.192C79.1557 415.757 79.0224 416.291 78.7557 416.792C78.489 417.293 78.0624 417.704 77.4757 418.024C76.889 418.333 76.137 418.488 75.2197 418.488H73.2037V423H71.3797V411.88H75.2197C76.073 411.88 76.793 412.029 77.3797 412.328C77.977 412.616 78.4197 413.011 78.7077 413.512C79.0064 414.013 79.1557 414.573 79.1557 415.192ZM75.2197 417C75.913 417 76.4304 416.845 76.7717 416.536C77.113 416.216 77.2837 415.768 77.2837 415.192C77.2837 413.976 76.5957 413.368 75.2197 413.368H73.2037V417H75.2197ZM82.7193 415.464C82.986 415.016 83.338 414.669 83.7753 414.424C84.2233 414.168 84.7513 414.04 85.3593 414.04V415.928H84.8953C84.1806 415.928 83.6366 416.109 83.2633 416.472C82.9006 416.835 82.7193 417.464 82.7193 418.36V423H80.8953V414.184H82.7193V415.464ZM90.8599 423.144C90.0279 423.144 89.2759 422.957 88.6039 422.584C87.9319 422.2 87.4039 421.667 87.0199 420.984C86.6359 420.291 86.4439 419.491 86.4439 418.584C86.4439 417.688 86.6413 416.893 87.0359 416.2C87.4306 415.507 87.9693 414.973 88.6519 414.6C89.3346 414.227 90.0973 414.04 90.9399 414.04C91.7826 414.04 92.5453 414.227 93.2279 414.6C93.9106 414.973 94.4493 415.507 94.8439 416.2C95.2386 416.893 95.4359 417.688 95.4359 418.584C95.4359 419.48 95.2333 420.275 94.8279 420.968C94.4226 421.661 93.8679 422.2 93.1639 422.584C92.4706 422.957 91.7026 423.144 90.8599 423.144ZM90.8599 421.56C91.3293 421.56 91.7666 421.448 92.1719 421.224C92.5879 421 92.9239 420.664 93.1799 420.216C93.4359 419.768 93.5639 419.224 93.5639 418.584C93.5639 417.944 93.4413 417.405 93.1959 416.968C92.9506 416.52 92.6253 416.184 92.2199 415.96C91.8146 415.736 91.3773 415.624 90.9079 415.624C90.4386 415.624 90.0013 415.736 89.5959 415.96C89.2013 416.184 88.8866 416.52 88.6519 416.968C88.4173 417.405 88.2999 417.944 88.2999 418.584C88.2999 419.533 88.5399 420.269 89.0199 420.792C89.5106 421.304 90.1239 421.56 90.8599 421.56ZM96.6311 418.552C96.6311 417.667 96.8124 416.883 97.1751 416.2C97.5484 415.517 98.0497 414.989 98.6791 414.616C99.3191 414.232 100.028 414.04 100.807 414.04C101.383 414.04 101.948 414.168 102.503 414.424C103.068 414.669 103.516 415 103.847 415.416V411.16H105.687V423H103.847V421.672C103.548 422.099 103.132 422.451 102.599 422.728C102.076 423.005 101.474 423.144 100.791 423.144C100.023 423.144 99.3191 422.952 98.6791 422.568C98.0497 422.173 97.5484 421.629 97.1751 420.936C96.8124 420.232 96.6311 419.437 96.6311 418.552ZM103.847 418.584C103.847 417.976 103.719 417.448 103.463 417C103.218 416.552 102.892 416.211 102.487 415.976C102.082 415.741 101.644 415.624 101.175 415.624C100.706 415.624 100.268 415.741 99.8631 415.976C99.4577 416.2 99.1271 416.536 98.8711 416.984C98.6257 417.421 98.5031 417.944 98.5031 418.552C98.5031 419.16 98.6257 419.693 98.8711 420.152C99.1271 420.611 99.4577 420.963 99.8631 421.208C100.279 421.443 100.716 421.56 101.175 421.56C101.644 421.56 102.082 421.443 102.487 421.208C102.892 420.973 103.218 420.632 103.463 420.184C103.719 419.725 103.847 419.192 103.847 418.584ZM116.067 414.184V423H114.243V421.96C113.955 422.323 113.576 422.611 113.107 422.824C112.648 423.027 112.157 423.128 111.635 423.128C110.941 423.128 110.317 422.984 109.763 422.696C109.219 422.408 108.787 421.981 108.467 421.416C108.157 420.851 108.003 420.168 108.003 419.368V414.184H109.811V419.096C109.811 419.885 110.008 420.493 110.403 420.92C110.797 421.336 111.336 421.544 112.019 421.544C112.701 421.544 113.24 421.336 113.635 420.92C114.04 420.493 114.243 419.885 114.243 419.096V414.184H116.067ZM117.865 418.584C117.865 417.677 118.047 416.883 118.409 416.2C118.783 415.507 119.295 414.973 119.945 414.6C120.596 414.227 121.343 414.04 122.185 414.04C123.252 414.04 124.132 414.296 124.825 414.808C125.529 415.309 126.004 416.029 126.249 416.968H124.281C124.121 416.531 123.865 416.189 123.513 415.944C123.161 415.699 122.719 415.576 122.185 415.576C121.439 415.576 120.841 415.843 120.393 416.376C119.956 416.899 119.737 417.635 119.737 418.584C119.737 419.533 119.956 420.275 120.393 420.808C120.841 421.341 121.439 421.608 122.185 421.608C123.241 421.608 123.94 421.144 124.281 420.216H126.249C125.993 421.112 125.513 421.827 124.809 422.36C124.105 422.883 123.231 423.144 122.185 423.144C121.343 423.144 120.596 422.957 119.945 422.584C119.295 422.2 118.783 421.667 118.409 420.984C118.047 420.291 117.865 419.491 117.865 418.584ZM130.195 415.672V420.552C130.195 420.883 130.27 421.123 130.419 421.272C130.579 421.411 130.846 421.48 131.219 421.48H132.339V423H130.899C130.078 423 129.449 422.808 129.011 422.424C128.574 422.04 128.355 421.416 128.355 420.552V415.672H127.315V414.184H128.355V411.992H130.195V414.184H132.339V415.672H130.195ZM52.1211 429.88C53.3051 429.88 54.3397 430.109 55.2251 430.568C56.1211 431.016 56.8091 431.667 57.2891 432.52C57.7797 433.363 58.0251 434.349 58.0251 435.48C58.0251 436.611 57.7797 437.592 57.2891 438.424C56.8091 439.256 56.1211 439.896 55.2251 440.344C54.3397 440.781 53.3051 441 52.1211 441H48.4891V429.88H52.1211ZM52.1211 439.512C53.4224 439.512 54.4197 439.16 55.1131 438.456C55.8064 437.752 56.1531 436.76 56.1531 435.48C56.1531 434.189 55.8064 433.181 55.1131 432.456C54.4197 431.731 53.4224 431.368 52.1211 431.368H50.3131V439.512H52.1211ZM67.9128 436.376C67.9128 436.707 67.8915 437.005 67.8488 437.272H61.1128C61.1661 437.976 61.4275 438.541 61.8968 438.968C62.3661 439.395 62.9421 439.608 63.6248 439.608C64.6061 439.608 65.2995 439.197 65.7048 438.376H67.6728C67.4061 439.187 66.9208 439.853 66.2168 440.376C65.5235 440.888 64.6595 441.144 63.6248 441.144C62.7821 441.144 62.0248 440.957 61.3528 440.584C60.6915 440.2 60.1688 439.667 59.7848 438.984C59.4115 438.291 59.2248 437.491 59.2248 436.584C59.2248 435.677 59.4061 434.883 59.7688 434.2C60.1421 433.507 60.6595 432.973 61.3208 432.6C61.9928 432.227 62.7608 432.04 63.6248 432.04C64.4568 432.04 65.1981 432.221 65.8488 432.584C66.4995 432.947 67.0061 433.459 67.3688 434.12C67.7315 434.771 67.9128 435.523 67.9128 436.376ZM66.0088 435.8C65.9981 435.128 65.7581 434.589 65.2888 434.184C64.8195 433.779 64.2381 433.576 63.5448 433.576C62.9155 433.576 62.3768 433.779 61.9288 434.184C61.4808 434.579 61.2141 435.117 61.1288 435.8H66.0088ZM73.1158 439.368L75.6118 432.184H77.5478L74.1878 441H72.0118L68.6678 432.184H70.6198L73.1158 439.368ZM87.0066 436.376C87.0066 436.707 86.9852 437.005 86.9426 437.272H80.2066C80.2599 437.976 80.5212 438.541 80.9906 438.968C81.4599 439.395 82.0359 439.608 82.7186 439.608C83.6999 439.608 84.3932 439.197 84.7986 438.376H86.7666C86.4999 439.187 86.0146 439.853 85.3106 440.376C84.6172 440.888 83.7532 441.144 82.7186 441.144C81.8759 441.144 81.1186 440.957 80.4466 440.584C79.7852 440.2 79.2626 439.667 78.8786 438.984C78.5052 438.291 78.3186 437.491 78.3186 436.584C78.3186 435.677 78.4999 434.883 78.8626 434.2C79.2359 433.507 79.7532 432.973 80.4146 432.6C81.0866 432.227 81.8546 432.04 82.7186 432.04C83.5506 432.04 84.2919 432.221 84.9426 432.584C85.5932 432.947 86.0999 433.459 86.4626 434.12C86.8252 434.771 87.0066 435.523 87.0066 436.376ZM85.1026 435.8C85.0919 435.128 84.8519 434.589 84.3826 434.184C83.9132 433.779 83.3319 433.576 82.6386 433.576C82.0092 433.576 81.4706 433.779 81.0226 434.184C80.5746 434.579 80.3079 435.117 80.2226 435.8H85.1026ZM90.6256 429.16V441H88.8016V429.16H90.6256ZM96.8443 441.144C96.0123 441.144 95.2603 440.957 94.5883 440.584C93.9163 440.2 93.3883 439.667 93.0043 438.984C92.6203 438.291 92.4283 437.491 92.4283 436.584C92.4283 435.688 92.6256 434.893 93.0203 434.2C93.415 433.507 93.9536 432.973 94.6363 432.6C95.319 432.227 96.0816 432.04 96.9243 432.04C97.767 432.04 98.5296 432.227 99.2123 432.6C99.895 432.973 100.434 433.507 100.828 434.2C101.223 434.893 101.42 435.688 101.42 436.584C101.42 437.48 101.218 438.275 100.812 438.968C100.407 439.661 99.8523 440.2 99.1483 440.584C98.455 440.957 97.687 441.144 96.8443 441.144ZM96.8443 439.56C97.3136 439.56 97.751 439.448 98.1563 439.224C98.5723 439 98.9083 438.664 99.1643 438.216C99.4203 437.768 99.5483 437.224 99.5483 436.584C99.5483 435.944 99.4256 435.405 99.1803 434.968C98.935 434.52 98.6096 434.184 98.2043 433.96C97.799 433.736 97.3616 433.624 96.8923 433.624C96.423 433.624 95.9856 433.736 95.5803 433.96C95.1856 434.184 94.871 434.52 94.6363 434.968C94.4016 435.405 94.2843 435.944 94.2843 436.584C94.2843 437.533 94.5243 438.269 95.0043 438.792C95.495 439.304 96.1083 439.56 96.8443 439.56ZM105.047 433.48C105.357 433.075 105.778 432.733 106.311 432.456C106.845 432.179 107.447 432.04 108.119 432.04C108.887 432.04 109.586 432.232 110.215 432.616C110.855 432.989 111.357 433.517 111.719 434.2C112.082 434.883 112.263 435.667 112.263 436.552C112.263 437.437 112.082 438.232 111.719 438.936C111.357 439.629 110.855 440.173 110.215 440.568C109.586 440.952 108.887 441.144 108.119 441.144C107.447 441.144 106.85 441.011 106.327 440.744C105.805 440.467 105.378 440.125 105.047 439.72V445.192H103.223V432.184H105.047V433.48ZM110.407 436.552C110.407 435.944 110.279 435.421 110.023 434.984C109.778 434.536 109.447 434.2 109.031 433.976C108.626 433.741 108.189 433.624 107.719 433.624C107.261 433.624 106.823 433.741 106.407 433.976C106.002 434.211 105.671 434.552 105.415 435C105.17 435.448 105.047 435.976 105.047 436.584C105.047 437.192 105.17 437.725 105.415 438.184C105.671 438.632 106.002 438.973 106.407 439.208C106.823 439.443 107.261 439.56 107.719 439.56C108.189 439.56 108.626 439.443 109.031 439.208C109.447 438.963 109.778 438.611 110.023 438.152C110.279 437.693 110.407 437.16 110.407 436.552ZM124.739 432.04C125.433 432.04 126.051 432.184 126.595 432.472C127.15 432.76 127.582 433.187 127.891 433.752C128.211 434.317 128.371 435 128.371 435.8V441H126.563V436.072C126.563 435.283 126.366 434.68 125.971 434.264C125.577 433.837 125.038 433.624 124.355 433.624C123.673 433.624 123.129 433.837 122.723 434.264C122.329 434.68 122.131 435.283 122.131 436.072V441H120.323V436.072C120.323 435.283 120.126 434.68 119.731 434.264C119.337 433.837 118.798 433.624 118.115 433.624C117.433 433.624 116.889 433.837 116.483 434.264C116.089 434.68 115.891 435.283 115.891 436.072V441H114.067V432.184H115.891V433.192C116.19 432.829 116.569 432.547 117.027 432.344C117.486 432.141 117.977 432.04 118.499 432.04C119.203 432.04 119.833 432.189 120.387 432.488C120.942 432.787 121.369 433.219 121.667 433.784C121.934 433.251 122.35 432.829 122.915 432.52C123.481 432.2 124.089 432.04 124.739 432.04ZM138.772 436.376C138.772 436.707 138.751 437.005 138.708 437.272H131.972C132.026 437.976 132.287 438.541 132.756 438.968C133.226 439.395 133.802 439.608 134.484 439.608C135.466 439.608 136.159 439.197 136.564 438.376H138.532C138.266 439.187 137.78 439.853 137.076 440.376C136.383 440.888 135.519 441.144 134.484 441.144C133.642 441.144 132.884 440.957 132.212 440.584C131.551 440.2 131.028 439.667 130.644 438.984C130.271 438.291 130.084 437.491 130.084 436.584C130.084 435.677 130.266 434.883 130.628 434.2C131.002 433.507 131.519 432.973 132.18 432.6C132.852 432.227 133.62 432.04 134.484 432.04C135.316 432.04 136.058 432.221 136.708 432.584C137.359 432.947 137.866 433.459 138.228 434.12C138.591 434.771 138.772 435.523 138.772 436.376ZM136.868 435.8C136.858 435.128 136.618 434.589 136.148 434.184C135.679 433.779 135.098 433.576 134.404 433.576C133.775 433.576 133.236 433.779 132.788 434.184C132.34 434.579 132.074 435.117 131.988 435.8H136.868ZM145.015 432.04C145.709 432.04 146.327 432.184 146.871 432.472C147.426 432.76 147.858 433.187 148.167 433.752C148.477 434.317 148.631 435 148.631 435.8V441H146.823V436.072C146.823 435.283 146.626 434.68 146.231 434.264C145.837 433.837 145.298 433.624 144.615 433.624C143.933 433.624 143.389 433.837 142.983 434.264C142.589 434.68 142.391 435.283 142.391 436.072V441H140.567V432.184H142.391V433.192C142.69 432.829 143.069 432.547 143.527 432.344C143.997 432.141 144.493 432.04 145.015 432.04ZM153.086 433.672V438.552C153.086 438.883 153.16 439.123 153.31 439.272C153.47 439.411 153.736 439.48 154.11 439.48H155.23V441H153.79C152.968 441 152.339 440.808 151.902 440.424C151.464 440.04 151.246 439.416 151.246 438.552V433.672H150.206V432.184H151.246V429.992H153.086V432.184H155.23V433.672H153.086Z" fill="#111111"/>
<path d="M102 724.417C45.9869 724.417 0.583004 678.785 0.582999 622.5C0.582994 566.215 45.9868 520.583 102 520.583C158.013 520.583 203.417 566.215 203.417 622.5C203.417 678.785 158.013 724.417 102 724.417Z" fill="#0F0F0F" stroke="#6A6A6A" stroke-width="0.834515"/>
<path d="M47.9448 611.192C47.9448 611.757 47.8114 612.291 47.5448 612.792C47.2781 613.293 46.8514 613.704 46.2648 614.024C45.6781 614.333 44.9261 614.488 44.0088 614.488H41.9928V619H40.1688V607.88H44.0088C44.8621 607.88 45.5821 608.029 46.1688 608.328C46.7661 608.616 47.2088 609.011 47.4968 609.512C47.7954 610.013 47.9448 610.573 47.9448 611.192ZM44.0088 613C44.7021 613 45.2194 612.845 45.5608 612.536C45.9021 612.216 46.0728 611.768 46.0728 611.192C46.0728 609.976 45.3848 609.368 44.0088 609.368H41.9928V613H44.0088ZM51.5084 611.464C51.775 611.016 52.127 610.669 52.5644 610.424C53.0124 610.168 53.5404 610.04 54.1484 610.04V611.928H53.6844C52.9697 611.928 52.4257 612.109 52.0524 612.472C51.6897 612.835 51.5084 613.464 51.5084 614.36V619H49.6844V610.184H51.5084V611.464ZM59.649 619.144C58.817 619.144 58.065 618.957 57.393 618.584C56.721 618.2 56.193 617.667 55.809 616.984C55.425 616.291 55.233 615.491 55.233 614.584C55.233 613.688 55.4303 612.893 55.825 612.2C56.2197 611.507 56.7583 610.973 57.441 610.6C58.1237 610.227 58.8863 610.04 59.729 610.04C60.5717 610.04 61.3343 610.227 62.017 610.6C62.6997 610.973 63.2383 611.507 63.633 612.2C64.0277 612.893 64.225 613.688 64.225 614.584C64.225 615.48 64.0223 616.275 63.617 616.968C63.2117 617.661 62.657 618.2 61.953 618.584C61.2597 618.957 60.4917 619.144 59.649 619.144ZM59.649 617.56C60.1183 617.56 60.5557 617.448 60.961 617.224C61.377 617 61.713 616.664 61.969 616.216C62.225 615.768 62.353 615.224 62.353 614.584C62.353 613.944 62.2303 613.405 61.985 612.968C61.7397 612.52 61.4143 612.184 61.009 611.96C60.6037 611.736 60.1663 611.624 59.697 611.624C59.2277 611.624 58.7903 611.736 58.385 611.96C57.9903 612.184 57.6757 612.52 57.441 612.968C57.2063 613.405 57.089 613.944 57.089 614.584C57.089 615.533 57.329 616.269 57.809 616.792C58.2997 617.304 58.913 617.56 59.649 617.56ZM65.4201 614.552C65.4201 613.667 65.6015 612.883 65.9641 612.2C66.3375 611.517 66.8388 610.989 67.4681 610.616C68.1081 610.232 68.8175 610.04 69.5961 610.04C70.1721 610.04 70.7375 610.168 71.2921 610.424C71.8575 610.669 72.3055 611 72.6361 611.416V607.16H74.4761V619H72.6361V617.672C72.3375 618.099 71.9215 618.451 71.3881 618.728C70.8655 619.005 70.2628 619.144 69.5801 619.144C68.8121 619.144 68.1081 618.952 67.4681 618.568C66.8388 618.173 66.3375 617.629 65.9641 616.936C65.6015 616.232 65.4201 615.437 65.4201 614.552ZM72.6361 614.584C72.6361 613.976 72.5081 613.448 72.2521 613C72.0068 612.552 71.6815 612.211 71.2761 611.976C70.8708 611.741 70.4335 611.624 69.9641 611.624C69.4948 611.624 69.0575 611.741 68.6521 611.976C68.2468 612.2 67.9161 612.536 67.6601 612.984C67.4148 613.421 67.2921 613.944 67.2921 614.552C67.2921 615.16 67.4148 615.693 67.6601 616.152C67.9161 616.611 68.2468 616.963 68.6521 617.208C69.0681 617.443 69.5055 617.56 69.9641 617.56C70.4335 617.56 70.8708 617.443 71.2761 617.208C71.6815 616.973 72.0068 616.632 72.2521 616.184C72.5081 615.725 72.6361 615.192 72.6361 614.584ZM84.8559 610.184V619H83.0319V617.96C82.7439 618.323 82.3652 618.611 81.8959 618.824C81.4372 619.027 80.9465 619.128 80.4239 619.128C79.7305 619.128 79.1065 618.984 78.5519 618.696C78.0079 618.408 77.5759 617.981 77.2559 617.416C76.9465 616.851 76.7919 616.168 76.7919 615.368V610.184H78.5999V615.096C78.5999 615.885 78.7972 616.493 79.1919 616.92C79.5865 617.336 80.1252 617.544 80.8079 617.544C81.4905 617.544 82.0292 617.336 82.4239 616.92C82.8292 616.493 83.0319 615.885 83.0319 615.096V610.184H84.8559ZM86.6545 614.584C86.6545 613.677 86.8358 612.883 87.1985 612.2C87.5718 611.507 88.0838 610.973 88.7345 610.6C89.3852 610.227 90.1318 610.04 90.9745 610.04C92.0412 610.04 92.9212 610.296 93.6145 610.808C94.3185 611.309 94.7932 612.029 95.0385 612.968H93.0705C92.9105 612.531 92.6545 612.189 92.3025 611.944C91.9505 611.699 91.5078 611.576 90.9745 611.576C90.2278 611.576 89.6305 611.843 89.1825 612.376C88.7452 612.899 88.5265 613.635 88.5265 614.584C88.5265 615.533 88.7452 616.275 89.1825 616.808C89.6305 617.341 90.2278 617.608 90.9745 617.608C92.0305 617.608 92.7292 617.144 93.0705 616.216H95.0385C94.7825 617.112 94.3025 617.827 93.5985 618.36C92.8945 618.883 92.0198 619.144 90.9745 619.144C90.1318 619.144 89.3852 618.957 88.7345 618.584C88.0838 618.2 87.5718 617.667 87.1985 616.984C86.8358 616.291 86.6545 615.491 86.6545 614.584ZM98.9843 611.672V616.552C98.9843 616.883 99.0589 617.123 99.2083 617.272C99.3683 617.411 99.6349 617.48 100.008 617.48H101.128V619H99.6883C98.8669 619 98.2376 618.808 97.8003 618.424C97.3629 618.04 97.1443 617.416 97.1443 616.552V611.672H96.1043V610.184H97.1443V607.992H98.9843V610.184H101.128V611.672H98.9843ZM115.014 611.08C114.726 610.525 114.326 610.109 113.814 609.832C113.302 609.544 112.71 609.4 112.038 609.4C111.302 609.4 110.646 609.565 110.07 609.896C109.494 610.227 109.04 610.696 108.71 611.304C108.39 611.912 108.23 612.616 108.23 613.416C108.23 614.216 108.39 614.925 108.71 615.544C109.04 616.152 109.494 616.621 110.07 616.952C110.646 617.283 111.302 617.448 112.038 617.448C113.03 617.448 113.835 617.171 114.454 616.616C115.072 616.061 115.451 615.309 115.59 614.36H111.414V612.904H117.542V614.328C117.424 615.192 117.115 615.987 116.614 616.712C116.123 617.437 115.478 618.019 114.678 618.456C113.888 618.883 113.008 619.096 112.038 619.096C110.992 619.096 110.038 618.856 109.174 618.376C108.31 617.885 107.622 617.208 107.11 616.344C106.608 615.48 106.358 614.504 106.358 613.416C106.358 612.328 106.608 611.352 107.11 610.488C107.622 609.624 108.31 608.952 109.174 608.472C110.048 607.981 111.003 607.736 112.038 607.736C113.222 607.736 114.272 608.029 115.19 608.616C116.118 609.192 116.79 610.013 117.206 611.08H115.014ZM121.165 611.464C121.431 611.016 121.783 610.669 122.221 610.424C122.669 610.168 123.197 610.04 123.805 610.04V611.928H123.341C122.626 611.928 122.082 612.109 121.709 612.472C121.346 612.835 121.165 613.464 121.165 614.36V619H119.341V610.184H121.165V611.464ZM129.305 619.144C128.473 619.144 127.721 618.957 127.049 618.584C126.377 618.2 125.849 617.667 125.465 616.984C125.081 616.291 124.889 615.491 124.889 614.584C124.889 613.688 125.087 612.893 125.481 612.2C125.876 611.507 126.415 610.973 127.097 610.6C127.78 610.227 128.543 610.04 129.385 610.04C130.228 610.04 130.991 610.227 131.673 610.6C132.356 610.973 132.895 611.507 133.289 612.2C133.684 612.893 133.881 613.688 133.881 614.584C133.881 615.48 133.679 616.275 133.273 616.968C132.868 617.661 132.313 618.2 131.609 618.584C130.916 618.957 130.148 619.144 129.305 619.144ZM129.305 617.56C129.775 617.56 130.212 617.448 130.617 617.224C131.033 617 131.369 616.664 131.625 616.216C131.881 615.768 132.009 615.224 132.009 614.584C132.009 613.944 131.887 613.405 131.641 612.968C131.396 612.52 131.071 612.184 130.665 611.96C130.26 611.736 129.823 611.624 129.353 611.624C128.884 611.624 128.447 611.736 128.041 611.96C127.647 612.184 127.332 612.52 127.097 612.968C126.863 613.405 126.745 613.944 126.745 614.584C126.745 615.533 126.985 616.269 127.465 616.792C127.956 617.304 128.569 617.56 129.305 617.56ZM147.524 610.184L144.788 619H142.868L141.092 612.488L139.316 619H137.396L134.644 610.184H136.5L138.34 617.272L140.212 610.184H142.116L143.908 617.24L145.732 610.184H147.524ZM151.016 611.672V616.552C151.016 616.883 151.09 617.123 151.24 617.272C151.4 617.411 151.666 617.48 152.04 617.48H153.16V619H151.72C150.898 619 150.269 618.808 149.832 618.424C149.394 618.04 149.176 617.416 149.176 616.552V611.672H148.136V610.184H149.176V607.992H151.016V610.184H153.16V611.672H151.016ZM159.401 610.04C160.073 610.04 160.67 610.184 161.193 610.472C161.726 610.76 162.142 611.187 162.441 611.752C162.75 612.317 162.905 613 162.905 613.8V619H161.097V614.072C161.097 613.283 160.899 612.68 160.505 612.264C160.11 611.837 159.571 611.624 158.889 611.624C158.206 611.624 157.662 611.837 157.257 612.264C156.862 612.68 156.665 613.283 156.665 614.072V619H154.841V607.16H156.665V611.208C156.974 610.835 157.363 610.547 157.833 610.344C158.313 610.141 158.835 610.04 159.401 610.04ZM56.2295 637L54.8535 635.624C54.3202 636.157 53.7388 636.557 53.1095 636.824C52.4802 637.08 51.7762 637.208 50.9975 637.208C50.2082 637.208 49.5095 637.069 48.9015 636.792C48.2935 636.515 47.8242 636.12 47.4935 635.608C47.1628 635.085 46.9975 634.483 46.9975 633.8C46.9975 633.032 47.2162 632.349 47.6535 631.752C48.0908 631.144 48.7415 630.664 49.6055 630.312C49.2962 629.939 49.0775 629.592 48.9495 629.272C48.8215 628.941 48.7575 628.579 48.7575 628.184C48.7575 627.693 48.8802 627.256 49.1255 626.872C49.3815 626.488 49.7442 626.184 50.2135 625.96C50.6828 625.736 51.2268 625.624 51.8455 625.624C52.4748 625.624 53.0082 625.747 53.4455 625.992C53.8935 626.227 54.2242 626.552 54.4375 626.968C54.6615 627.384 54.7522 627.848 54.7095 628.36H52.8855C52.8962 627.965 52.8002 627.661 52.5975 627.448C52.3948 627.224 52.1175 627.112 51.7655 627.112C51.4135 627.112 51.1255 627.219 50.9015 627.432C50.6882 627.635 50.5815 627.885 50.5815 628.184C50.5815 628.472 50.6615 628.76 50.8215 629.048C50.9922 629.325 51.2855 629.688 51.7015 630.136L54.6455 633.064L55.7815 631.192H57.7495L56.3095 633.656L55.9095 634.312L58.6135 637H56.2295ZM50.9975 635.656C52.0002 635.656 52.8855 635.245 53.6535 634.424L50.7095 631.464C49.4508 631.965 48.8215 632.723 48.8215 633.736C48.8215 634.28 49.0242 634.739 49.4295 635.112C49.8348 635.475 50.3575 635.656 50.9975 635.656ZM67.6296 637.112C66.883 637.112 66.211 636.984 65.6136 636.728C65.0163 636.461 64.547 636.088 64.2056 635.608C63.8643 635.128 63.6936 634.568 63.6936 633.928H65.6456C65.6883 634.408 65.875 634.803 66.2056 635.112C66.547 635.421 67.0216 635.576 67.6296 635.576C68.259 635.576 68.7496 635.427 69.1016 635.128C69.4536 634.819 69.6296 634.424 69.6296 633.944C69.6296 633.571 69.5176 633.267 69.2936 633.032C69.0803 632.797 68.8083 632.616 68.4776 632.488C68.1576 632.36 67.7096 632.221 67.1336 632.072C66.4083 631.88 65.8163 631.688 65.3576 631.496C64.9096 631.293 64.5256 630.984 64.2056 630.568C63.8856 630.152 63.7256 629.597 63.7256 628.904C63.7256 628.264 63.8856 627.704 64.2056 627.224C64.5256 626.744 64.9736 626.376 65.5496 626.12C66.1256 625.864 66.7923 625.736 67.5496 625.736C68.627 625.736 69.507 626.008 70.1896 626.552C70.883 627.085 71.267 627.821 71.3416 628.76H69.3256C69.2936 628.355 69.1016 628.008 68.7496 627.72C68.3976 627.432 67.9336 627.288 67.3576 627.288C66.835 627.288 66.4083 627.421 66.0776 627.688C65.747 627.955 65.5816 628.339 65.5816 628.84C65.5816 629.181 65.683 629.464 65.8856 629.688C66.099 629.901 66.3656 630.072 66.6856 630.2C67.0056 630.328 67.443 630.467 67.9976 630.616C68.7336 630.819 69.331 631.021 69.7896 631.224C70.259 631.427 70.6536 631.741 70.9736 632.168C71.3043 632.584 71.4696 633.144 71.4696 633.848C71.4696 634.413 71.315 634.947 71.0056 635.448C70.707 635.949 70.2643 636.355 69.6776 636.664C69.1016 636.963 68.419 637.112 67.6296 637.112ZM73.0139 632.584C73.0139 631.677 73.1952 630.883 73.5579 630.2C73.9312 629.507 74.4432 628.973 75.0939 628.6C75.7445 628.227 76.4912 628.04 77.3339 628.04C78.4005 628.04 79.2805 628.296 79.9739 628.808C80.6779 629.309 81.1525 630.029 81.3979 630.968H79.4299C79.2699 630.531 79.0139 630.189 78.6619 629.944C78.3099 629.699 77.8672 629.576 77.3339 629.576C76.5872 629.576 75.9899 629.843 75.5419 630.376C75.1045 630.899 74.8859 631.635 74.8859 632.584C74.8859 633.533 75.1045 634.275 75.5419 634.808C75.9899 635.341 76.5872 635.608 77.3339 635.608C78.3899 635.608 79.0885 635.144 79.4299 634.216H81.3979C81.1419 635.112 80.6619 635.827 79.9579 636.36C79.2539 636.883 78.3792 637.144 77.3339 637.144C76.4912 637.144 75.7445 636.957 75.0939 636.584C74.4432 636.2 73.9312 635.667 73.5579 634.984C73.1952 634.291 73.0139 633.491 73.0139 632.584ZM82.6076 632.552C82.6076 631.667 82.789 630.883 83.1516 630.2C83.525 629.517 84.0263 628.989 84.6556 628.616C85.2956 628.232 85.9996 628.04 86.7676 628.04C87.461 628.04 88.0636 628.179 88.5756 628.456C89.0983 628.723 89.5143 629.059 89.8236 629.464V628.184H91.6636V637H89.8236V635.688C89.5143 636.104 89.093 636.451 88.5596 636.728C88.0263 637.005 87.4183 637.144 86.7356 637.144C85.9783 637.144 85.285 636.952 84.6556 636.568C84.0263 636.173 83.525 635.629 83.1516 634.936C82.789 634.232 82.6076 633.437 82.6076 632.552ZM89.8236 632.584C89.8236 631.976 89.6956 631.448 89.4396 631C89.1943 630.552 88.869 630.211 88.4636 629.976C88.0583 629.741 87.621 629.624 87.1516 629.624C86.6823 629.624 86.245 629.741 85.8396 629.976C85.4343 630.2 85.1036 630.536 84.8476 630.984C84.6023 631.421 84.4796 631.944 84.4796 632.552C84.4796 633.16 84.6023 633.693 84.8476 634.152C85.1036 634.611 85.4343 634.963 85.8396 635.208C86.2556 635.443 86.693 635.56 87.1516 635.56C87.621 635.56 88.0583 635.443 88.4636 635.208C88.869 634.973 89.1943 634.632 89.4396 634.184C89.6956 633.725 89.8236 633.192 89.8236 632.584ZM95.8834 625.16V637H94.0594V625.16H95.8834ZM106.358 632.376C106.358 632.707 106.337 633.005 106.294 633.272H99.5581C99.6115 633.976 99.8728 634.541 100.342 634.968C100.811 635.395 101.387 635.608 102.07 635.608C103.051 635.608 103.745 635.197 104.15 634.376H106.118C105.851 635.187 105.366 635.853 104.662 636.376C103.969 636.888 103.105 637.144 102.07 637.144C101.227 637.144 100.47 636.957 99.7981 636.584C99.1368 636.2 98.6141 635.667 98.2301 634.984C97.8568 634.291 97.6701 633.491 97.6701 632.584C97.6701 631.677 97.8515 630.883 98.2141 630.2C98.5875 629.507 99.1048 628.973 99.7661 628.6C100.438 628.227 101.206 628.04 102.07 628.04C102.902 628.04 103.643 628.221 104.294 628.584C104.945 628.947 105.451 629.459 105.814 630.12C106.177 630.771 106.358 631.523 106.358 632.376ZM104.454 631.8C104.443 631.128 104.203 630.589 103.734 630.184C103.265 629.779 102.683 629.576 101.99 629.576C101.361 629.576 100.822 629.779 100.374 630.184C99.9261 630.579 99.6595 631.117 99.5741 631.8H104.454ZM107.545 632.552C107.545 631.667 107.726 630.883 108.089 630.2C108.462 629.517 108.964 628.989 109.593 628.616C110.233 628.232 110.937 628.04 111.705 628.04C112.398 628.04 113.001 628.179 113.513 628.456C114.036 628.723 114.452 629.059 114.761 629.464V628.184H116.601V637H114.761V635.688C114.452 636.104 114.03 636.451 113.497 636.728C112.964 637.005 112.356 637.144 111.673 637.144C110.916 637.144 110.222 636.952 109.593 636.568C108.964 636.173 108.462 635.629 108.089 634.936C107.726 634.232 107.545 633.437 107.545 632.552ZM114.761 632.584C114.761 631.976 114.633 631.448 114.377 631C114.132 630.552 113.806 630.211 113.401 629.976C112.996 629.741 112.558 629.624 112.089 629.624C111.62 629.624 111.182 629.741 110.777 629.976C110.372 630.2 110.041 630.536 109.785 630.984C109.54 631.421 109.417 631.944 109.417 632.552C109.417 633.16 109.54 633.693 109.785 634.152C110.041 634.611 110.372 634.963 110.777 635.208C111.193 635.443 111.63 635.56 112.089 635.56C112.558 635.56 112.996 635.443 113.401 635.208C113.806 634.973 114.132 634.632 114.377 634.184C114.633 633.725 114.761 633.192 114.761 632.584ZM120.821 629.496C121.13 629.069 121.552 628.723 122.085 628.456C122.629 628.179 123.232 628.04 123.893 628.04C124.672 628.04 125.376 628.227 126.005 628.6C126.634 628.973 127.13 629.507 127.493 630.2C127.856 630.883 128.037 631.667 128.037 632.552C128.037 633.437 127.856 634.232 127.493 634.936C127.13 635.629 126.629 636.173 125.989 636.568C125.36 636.952 124.661 637.144 123.893 637.144C123.21 637.144 122.602 637.011 122.069 636.744C121.546 636.477 121.13 636.136 120.821 635.72V637H118.997V625.16H120.821V629.496ZM126.181 632.552C126.181 631.944 126.053 631.421 125.797 630.984C125.552 630.536 125.221 630.2 124.805 629.976C124.4 629.741 123.962 629.624 123.493 629.624C123.034 629.624 122.597 629.741 122.181 629.976C121.776 630.211 121.445 630.552 121.189 631C120.944 631.448 120.821 631.976 120.821 632.584C120.821 633.192 120.944 633.725 121.189 634.184C121.445 634.632 121.776 634.973 122.181 635.208C122.597 635.443 123.034 635.56 123.493 635.56C123.962 635.56 124.4 635.443 124.805 635.208C125.221 634.963 125.552 634.611 125.797 634.152C126.053 633.693 126.181 633.16 126.181 632.552ZM130.769 627.016C130.438 627.016 130.161 626.904 129.937 626.68C129.713 626.456 129.601 626.179 129.601 625.848C129.601 625.517 129.713 625.24 129.937 625.016C130.161 624.792 130.438 624.68 130.769 624.68C131.089 624.68 131.361 624.792 131.585 625.016C131.809 625.24 131.921 625.517 131.921 625.848C131.921 626.179 131.809 626.456 131.585 626.68C131.361 626.904 131.089 627.016 130.769 627.016ZM131.665 628.184V637H129.841V628.184H131.665ZM135.883 625.16V637H134.059V625.16H135.883ZM139.206 627.016C138.875 627.016 138.598 626.904 138.374 626.68C138.15 626.456 138.038 626.179 138.038 625.848C138.038 625.517 138.15 625.24 138.374 625.016C138.598 624.792 138.875 624.68 139.206 624.68C139.526 624.68 139.798 624.792 140.022 625.016C140.246 625.24 140.358 625.517 140.358 625.848C140.358 626.179 140.246 626.456 140.022 626.68C139.798 626.904 139.526 627.016 139.206 627.016ZM140.102 628.184V637H138.278V628.184H140.102ZM144.625 629.672V634.552C144.625 634.883 144.7 635.123 144.849 635.272C145.009 635.411 145.276 635.48 145.649 635.48H146.769V637H145.329C144.508 637 143.878 636.808 143.441 636.424C143.004 636.04 142.785 635.416 142.785 634.552V629.672H141.745V628.184H142.785V625.992H144.625V628.184H146.769V629.672H144.625ZM156.386 628.184L150.978 641.144H149.09L150.882 636.856L147.41 628.184H149.442L151.922 634.904L154.498 628.184H156.386Z" fill="white"/>
<circle cx="102" cy="79" r="78.4173" transform="rotate(180 102 79)" fill="white" stroke="#6A6A6A" stroke-width="0.834515"/>
<path d="M79.1568 68.112C79.1568 69.04 78.8368 69.8133 78.1968 70.432C77.5674 71.04 76.6021 71.344 75.3008 71.344H73.1568V76H71.7008V64.848H75.3008C76.5594 64.848 77.5141 65.152 78.1648 65.76C78.8261 66.368 79.1568 67.152 79.1568 68.112ZM75.3008 70.144C76.1114 70.144 76.7088 69.968 77.0928 69.616C77.4768 69.264 77.6688 68.7627 77.6688 68.112C77.6688 66.736 76.8794 66.048 75.3008 66.048H73.1568V70.144H75.3008ZM82.4224 68.656C82.6784 68.1547 83.041 67.7653 83.5104 67.488C83.9904 67.2107 84.5717 67.072 85.2544 67.072V68.576H84.8704C83.2384 68.576 82.4224 69.4613 82.4224 71.232V76H80.9664V67.232H82.4224V68.656ZM90.7591 76.144C89.9378 76.144 89.1911 75.9573 88.5191 75.584C87.8578 75.2107 87.3351 74.6827 86.9511 74C86.5778 73.3067 86.3911 72.5067 86.3911 71.6C86.3911 70.704 86.5831 69.9147 86.9671 69.232C87.3618 68.5387 87.8951 68.0107 88.5671 67.648C89.2391 67.2747 89.9911 67.088 90.8231 67.088C91.6551 67.088 92.4071 67.2747 93.0791 67.648C93.7511 68.0107 94.2791 68.5333 94.6631 69.216C95.0578 69.8987 95.2551 70.6933 95.2551 71.6C95.2551 72.5067 95.0525 73.3067 94.6471 74C94.2525 74.6827 93.7138 75.2107 93.0311 75.584C92.3485 75.9573 91.5911 76.144 90.7591 76.144ZM90.7591 74.864C91.2818 74.864 91.7725 74.7413 92.2311 74.496C92.6898 74.2507 93.0578 73.8827 93.3351 73.392C93.6231 72.9013 93.7671 72.304 93.7671 71.6C93.7671 70.896 93.6285 70.2987 93.3511 69.808C93.0738 69.3173 92.7111 68.9547 92.2631 68.72C91.8151 68.4747 91.3298 68.352 90.8071 68.352C90.2738 68.352 89.7831 68.4747 89.3351 68.72C88.8978 68.9547 88.5458 69.3173 88.2791 69.808C88.0125 70.2987 87.8791 70.896 87.8791 71.6C87.8791 72.3147 88.0071 72.9173 88.2631 73.408C88.5298 73.8987 88.8818 74.2667 89.3191 74.512C89.7565 74.7467 90.2365 74.864 90.7591 74.864ZM96.6255 71.584C96.6255 70.688 96.8068 69.904 97.1695 69.232C97.5322 68.5493 98.0282 68.0213 98.6575 67.648C99.2975 67.2747 100.012 67.088 100.802 67.088C101.484 67.088 102.119 67.248 102.706 67.568C103.292 67.8773 103.74 68.288 104.05 68.8V64.16H105.522V76H104.05V74.352C103.762 74.8747 103.335 75.3067 102.77 75.648C102.204 75.9787 101.543 76.144 100.786 76.144C100.007 76.144 99.2975 75.952 98.6575 75.568C98.0282 75.184 97.5322 74.6453 97.1695 73.952C96.8068 73.2587 96.6255 72.4693 96.6255 71.584ZM104.05 71.6C104.05 70.9387 103.916 70.3627 103.65 69.872C103.383 69.3813 103.02 69.008 102.562 68.752C102.114 68.4853 101.618 68.352 101.074 68.352C100.53 68.352 100.034 68.48 99.5855 68.736C99.1375 68.992 98.7802 69.3653 98.5135 69.856C98.2468 70.3467 98.1135 70.9227 98.1135 71.584C98.1135 72.256 98.2468 72.8427 98.5135 73.344C98.7802 73.8347 99.1375 74.2133 99.5855 74.48C100.034 74.736 100.53 74.864 101.074 74.864C101.618 74.864 102.114 74.736 102.562 74.48C103.02 74.2133 103.383 73.8347 103.65 73.344C103.916 72.8427 104.05 72.2613 104.05 71.6ZM115.758 67.232V76H114.302V74.704C114.025 75.152 113.635 75.504 113.134 75.76C112.643 76.0053 112.099 76.128 111.502 76.128C110.819 76.128 110.206 75.9893 109.662 75.712C109.118 75.424 108.686 74.9973 108.366 74.432C108.057 73.8667 107.902 73.1787 107.902 72.368V67.232H109.342V72.176C109.342 73.04 109.561 73.7067 109.998 74.176C110.435 74.6347 111.033 74.864 111.79 74.864C112.569 74.864 113.182 74.624 113.63 74.144C114.078 73.664 114.302 72.9653 114.302 72.048V67.232H115.758ZM117.672 71.6C117.672 70.6933 117.854 69.904 118.216 69.232C118.579 68.5493 119.08 68.0213 119.72 67.648C120.371 67.2747 121.112 67.088 121.944 67.088C123.022 67.088 123.907 67.3493 124.6 67.872C125.304 68.3947 125.768 69.12 125.992 70.048H124.424C124.275 69.5147 123.982 69.0933 123.544 68.784C123.118 68.4747 122.584 68.32 121.944 68.32C121.112 68.32 120.44 68.608 119.928 69.184C119.416 69.7493 119.16 70.5547 119.16 71.6C119.16 72.656 119.416 73.472 119.928 74.048C120.44 74.624 121.112 74.912 121.944 74.912C122.584 74.912 123.118 74.7627 123.544 74.464C123.971 74.1653 124.264 73.7387 124.424 73.184H125.992C125.758 74.08 125.288 74.8 124.584 75.344C123.88 75.8773 123 76.144 121.944 76.144C121.112 76.144 120.371 75.9573 119.72 75.584C119.08 75.2107 118.579 74.6827 118.216 74C117.854 73.3173 117.672 72.5173 117.672 71.6ZM129.711 68.432V73.6C129.711 74.0267 129.802 74.3307 129.983 74.512C130.164 74.6827 130.479 74.768 130.927 74.768H131.999V76H130.687C129.876 76 129.268 75.8133 128.863 75.44C128.458 75.0667 128.255 74.4533 128.255 73.6V68.432H127.119V67.232H128.255V65.024H129.711V67.232H131.999V68.432H129.711ZM71.3286 82.848V94H69.8726V82.848H71.3286ZM73.2661 89.584C73.2661 88.688 73.4475 87.904 73.8101 87.232C74.1728 86.5493 74.6688 86.0213 75.2981 85.648C75.9381 85.2747 76.6528 85.088 77.4421 85.088C78.1248 85.088 78.7595 85.248 79.3461 85.568C79.9328 85.8773 80.3808 86.288 80.6901 86.8V82.16H82.1621V94H80.6901V92.352C80.4021 92.8747 79.9755 93.3067 79.4101 93.648C78.8448 93.9787 78.1835 94.144 77.4261 94.144C76.6475 94.144 75.9381 93.952 75.2981 93.568C74.6688 93.184 74.1728 92.6453 73.8101 91.952C73.4475 91.2587 73.2661 90.4693 73.2661 89.584ZM80.6901 89.6C80.6901 88.9387 80.5568 88.3627 80.2901 87.872C80.0235 87.3813 79.6608 87.008 79.2021 86.752C78.7541 86.4853 78.2581 86.352 77.7141 86.352C77.1701 86.352 76.6741 86.48 76.2261 86.736C75.7781 86.992 75.4208 87.3653 75.1541 87.856C74.8875 88.3467 74.7541 88.9227 74.7541 89.584C74.7541 90.256 74.8875 90.8427 75.1541 91.344C75.4208 91.8347 75.7781 92.2133 76.2261 92.48C76.6741 92.736 77.1701 92.864 77.7141 92.864C78.2581 92.864 78.7541 92.736 79.2021 92.48C79.6608 92.2133 80.0235 91.8347 80.2901 91.344C80.5568 90.8427 80.6901 90.2613 80.6901 89.6ZM92.6226 89.28C92.6226 89.5573 92.6066 89.8507 92.5746 90.16H85.5666C85.62 91.024 85.9133 91.7013 86.4466 92.192C86.9906 92.672 87.6466 92.912 88.4146 92.912C89.044 92.912 89.5666 92.768 89.9826 92.48C90.4093 92.1813 90.708 91.7867 90.8786 91.296H92.4466C92.212 92.1387 91.7426 92.8267 91.0386 93.36C90.3346 93.8827 89.46 94.144 88.4146 94.144C87.5826 94.144 86.836 93.9573 86.1746 93.584C85.524 93.2107 85.012 92.6827 84.6386 92C84.2653 91.3067 84.0786 90.5067 84.0786 89.6C84.0786 88.6933 84.26 87.8987 84.6226 87.216C84.9853 86.5333 85.492 86.0107 86.1426 85.648C86.804 85.2747 87.5613 85.088 88.4146 85.088C89.2466 85.088 89.9826 85.2693 90.6226 85.632C91.2626 85.9947 91.7533 86.496 92.0946 87.136C92.4466 87.7653 92.6226 88.48 92.6226 89.28ZM91.1186 88.976C91.1186 88.4213 90.996 87.9467 90.7506 87.552C90.5053 87.1467 90.1693 86.8427 89.7426 86.64C89.3266 86.4267 88.8626 86.32 88.3506 86.32C87.6146 86.32 86.9853 86.5547 86.4626 87.024C85.9506 87.4933 85.6573 88.144 85.5826 88.976H91.1186ZM94.0005 89.584C94.0005 88.688 94.1818 87.904 94.5445 87.232C94.9072 86.5493 95.4032 86.0213 96.0325 85.648C96.6725 85.2747 97.3818 85.088 98.1605 85.088C98.9285 85.088 99.5952 85.2533 100.161 85.584C100.726 85.9147 101.147 86.3307 101.425 86.832V85.232H102.897V94H101.425V92.368C101.137 92.88 100.705 93.3067 100.129 93.648C99.5632 93.9787 98.9018 94.144 98.1445 94.144C97.3658 94.144 96.6618 93.952 96.0325 93.568C95.4032 93.184 94.9072 92.6453 94.5445 91.952C94.1818 91.2587 94.0005 90.4693 94.0005 89.584ZM101.425 89.6C101.425 88.9387 101.291 88.3627 101.025 87.872C100.758 87.3813 100.395 87.008 99.9365 86.752C99.4885 86.4853 98.9925 86.352 98.4485 86.352C97.9045 86.352 97.4085 86.48 96.9605 86.736C96.5125 86.992 96.1552 87.3653 95.8885 87.856C95.6218 88.3467 95.4885 88.9227 95.4885 89.584C95.4885 90.256 95.6218 90.8427 95.8885 91.344C96.1552 91.8347 96.5125 92.2133 96.9605 92.48C97.4085 92.736 97.9045 92.864 98.4485 92.864C98.9925 92.864 99.4885 92.736 99.9365 92.48C100.395 92.2133 100.758 91.8347 101.025 91.344C101.291 90.8427 101.425 90.2613 101.425 89.6ZM107.133 86.432V91.6C107.133 92.0267 107.224 92.3307 107.405 92.512C107.586 92.6827 107.901 92.768 108.349 92.768H109.421V94H108.109C107.298 94 106.69 93.8133 106.285 93.44C105.88 93.0667 105.677 92.4533 105.677 91.6V86.432H104.541V85.232H105.677V83.024H107.133V85.232H109.421V86.432H107.133ZM111.937 83.808C111.66 83.808 111.425 83.712 111.233 83.52C111.041 83.328 110.945 83.0933 110.945 82.816C110.945 82.5387 111.041 82.304 111.233 82.112C111.425 81.92 111.66 81.824 111.937 81.824C112.204 81.824 112.428 81.92 112.609 82.112C112.801 82.304 112.897 82.5387 112.897 82.816C112.897 83.0933 112.801 83.328 112.609 83.52C112.428 83.712 112.204 83.808 111.937 83.808ZM112.641 85.232V94H111.185V85.232H112.641ZM118.947 94.144C118.125 94.144 117.379 93.9573 116.707 93.584C116.045 93.2107 115.523 92.6827 115.139 92C114.765 91.3067 114.579 90.5067 114.579 89.6C114.579 88.704 114.771 87.9147 115.155 87.232C115.549 86.5387 116.083 86.0107 116.755 85.648C117.427 85.2747 118.179 85.088 119.011 85.088C119.843 85.088 120.595 85.2747 121.267 85.648C121.939 86.0107 122.467 86.5333 122.851 87.216C123.245 87.8987 123.443 88.6933 123.443 89.6C123.443 90.5067 123.24 91.3067 122.835 92C122.44 92.6827 121.901 93.2107 121.219 93.584C120.536 93.9573 119.779 94.144 118.947 94.144ZM118.947 92.864C119.469 92.864 119.96 92.7413 120.419 92.496C120.877 92.2507 121.245 91.8827 121.523 91.392C121.811 90.9013 121.955 90.304 121.955 89.6C121.955 88.896 121.816 88.2987 121.539 87.808C121.261 87.3173 120.899 86.9547 120.451 86.72C120.003 86.4747 119.517 86.352 118.995 86.352C118.461 86.352 117.971 86.4747 117.523 86.72C117.085 86.9547 116.733 87.3173 116.467 87.808C116.2 88.2987 116.067 88.896 116.067 89.6C116.067 90.3147 116.195 90.9173 116.451 91.408C116.717 91.8987 117.069 92.2667 117.507 92.512C117.944 92.7467 118.424 92.864 118.947 92.864ZM129.629 85.072C130.696 85.072 131.56 85.3973 132.221 86.048C132.882 86.688 133.213 87.616 133.213 88.832V94H131.773V89.04C131.773 88.1653 131.554 87.4987 131.117 87.04C130.68 86.5707 130.082 86.336 129.325 86.336C128.557 86.336 127.944 86.576 127.485 87.056C127.037 87.536 126.813 88.2347 126.813 89.152V94H125.357V85.232H126.813V86.48C127.101 86.032 127.49 85.6853 127.981 85.44C128.482 85.1947 129.032 85.072 129.629 85.072Z" fill="black"/>
<path d="M101.47 187.53C101.763 187.823 102.237 187.823 102.53 187.53L107.303 182.757C107.596 182.464 107.596 181.99 107.303 181.697C107.01 181.404 106.536 181.404 106.243 181.697L102 185.939L97.7574 181.697C97.4645 181.404 96.9896 181.404 96.6967 181.697C96.4038 181.99 96.4038 182.464 96.6967 182.757L101.47 187.53ZM101.25 120L101.25 122.393L102.75 122.393L102.75 120L101.25 120ZM101.25 127.179L101.25 131.964L102.75 131.964L102.75 127.179L101.25 127.179ZM101.25 136.75L101.25 141.536L102.75 141.536L102.75 136.75L101.25 136.75ZM101.25 146.321L101.25 151.107L102.75 151.107L102.75 146.321L101.25 146.321ZM101.25 155.893L101.25 160.679L102.75 160.679L102.75 155.893L101.25 155.893ZM101.25 165.464L101.25 170.25L102.75 170.25L102.75 165.464L101.25 165.464ZM101.25 175.036L101.25 179.821L102.75 179.821L102.75 175.036L101.25 175.036ZM101.25 184.607L101.25 187L102.75 187L102.75 184.607L101.25 184.607Z" fill="#6A6A6A"/>
<path d="M101.47 361.53C101.763 361.823 102.237 361.823 102.53 361.53L107.303 356.757C107.596 356.464 107.596 355.99 107.303 355.697C107.01 355.404 106.536 355.404 106.243 355.697L102 359.939L97.7574 355.697C97.4645 355.404 96.9896 355.404 96.6967 355.697C96.4038 355.99 96.4038 356.464 96.6967 356.757L101.47 361.53ZM101.25 294L101.25 296.393L102.75 296.393L102.75 294L101.25 294ZM101.25 301.179L101.25 305.964L102.75 305.964L102.75 301.179L101.25 301.179ZM101.25 310.75L101.25 315.536L102.75 315.536L102.75 310.75L101.25 310.75ZM101.25 320.321L101.25 325.107L102.75 325.107L102.75 320.321L101.25 320.321ZM101.25 329.893L101.25 334.679L102.75 334.679L102.75 329.893L101.25 329.893ZM101.25 339.464L101.25 344.25L102.75 344.25L102.75 339.464L101.25 339.464ZM101.25 349.036L101.25 353.821L102.75 353.821L102.75 349.036L101.25 349.036ZM101.25 358.607L101.25 361L102.75 361L102.75 358.607L101.25 358.607Z" fill="#6A6A6A"/>
<path d="M101.47 550.53C101.763 550.823 102.237 550.823 102.53 550.53L107.303 545.757C107.596 545.464 107.596 544.99 107.303 544.697C107.01 544.404 106.536 544.404 106.243 544.697L102 548.939L97.7574 544.697C97.4645 544.404 96.9896 544.404 96.6967 544.697C96.4038 544.99 96.4038 545.464 96.6967 545.757L101.47 550.53ZM101.25 483L101.25 485.393L102.75 485.393L102.75 483L101.25 483ZM101.25 490.179L101.25 494.964L102.75 494.964L102.75 490.179L101.25 490.179ZM101.25 499.75L101.25 504.536L102.75 504.536L102.75 499.75L101.25 499.75ZM101.25 509.321L101.25 514.107L102.75 514.107L102.75 509.321L101.25 509.321ZM101.25 518.893L101.25 523.679L102.75 523.679L102.75 518.893L101.25 518.893ZM101.25 528.464L101.25 533.25L102.75 533.25L102.75 528.464L101.25 528.464ZM101.25 538.036L101.25 542.821L102.75 542.821L102.75 538.036L101.25 538.036ZM101.25 547.607L101.25 550L102.75 550L102.75 547.607L101.25 547.607Z" fill="#6A6A6A"/>
</svg>
