<svg width="229" height="172" viewBox="0 0 229 172" fill="none" xmlns="http://www.w3.org/2000/svg">
<path d="M34.3628 163.368H227.513" stroke="black" stroke-width="1.53905" stroke-linecap="round"/>
<path d="M102.54 56.3749C96.9924 54.4869 95.5542 45.6042 99.0474 42.4021L100.794 31.9225V30.1759L101.667 25.8094L106.907 24.0628L115.64 20.5698C119.133 20.2787 126.993 20.1071 126.993 22.3164C126.993 22.3164 131.801 39.2155 132.965 46.4929C135.76 62.5616 125.538 65.6902 120.88 65.108L122.627 79.0807H100.794V75.5875C101.085 70.3478 102.54 57.7721 102.54 56.3749Z" fill="white" stroke="black" stroke-width="1.7466"/>
<path d="M87.5653 34.4703L96.9921 45.6931C100.19 41.6961 102.669 41.9712 103.542 41.9712C104.187 40.0973 103.186 34.4008 101.788 33.7021C104.986 32.1033 104.415 28.2895 104.415 26.2518C110.703 30.4437 115.186 26.2518 116.642 23.6319C120.833 25.0292 125.914 25.1998 127.369 24.9087C133.234 22.5105 132.943 17.2278 133.234 15.7723C133.234 7.38859 123.337 7.62143 118.388 8.78581C110.005 2.49806 105.58 7.33038 104.415 10.5325C96.0318 8.43659 93.9359 16.0633 93.936 20.1387C87.6664 18.2096 85.1976 21.7182 84.4613 25.6085C83.8507 28.8348 85.4533 31.9559 87.5653 34.4703Z" fill="black"/>
<path d="M135.938 89.4951L140.556 100.268" stroke="black" stroke-width="0.923429"/>
<path d="M136.708 104.886L149.79 95.6514L159.794 117.968L168.259 147.979C159.794 167.987 147.481 159.522 142.095 151.827L136.708 104.886Z" fill="white" stroke="black" stroke-width="1.53905"/>
<path d="M196.313 79.9663C198.034 79.9663 199.429 81.3612 199.429 83.0815V93.2124H193.198V83.0815C193.198 81.3613 194.593 79.9664 196.313 79.9663Z" fill="white" stroke="black" stroke-width="0.785783"/>
<rect x="183.162" y="94.4385" width="32.2732" height="32.2732" transform="rotate(-33.1973 183.162 94.4385)" fill="black"/>
<circle cx="213.182" cy="110.848" r="3.50796" transform="rotate(-33.1973 213.182 110.848)" fill="white"/>
<circle cx="191.855" cy="107.836" r="3.50796" transform="rotate(-33.1973 191.855 107.836)" fill="black"/>
<path d="M224.29 93.8424C224.29 93.8424 227.275 91.0567 225.678 89.9431C225.379 89.7493 225.028 89.6514 224.672 89.6625C224.317 89.6736 223.973 89.7931 223.687 90.0051L218.286 93.7916C218.136 93.8948 218.013 94.0342 217.93 94.1969C217.847 94.3597 217.807 94.5407 217.812 94.7233C217.817 94.906 217.868 95.0844 217.96 95.2423C218.052 95.4002 218.183 95.5325 218.339 95.6272C219.221 96.1337 220.949 96.1562 224.29 93.8424Z" fill="white" stroke="black" stroke-width="0.78801" stroke-miterlimit="10"/>
<path d="M215.501 82.5818C216.535 82.3139 217.715 82.2581 217.975 83.277C218.051 83.6241 218.019 83.986 217.884 84.3145C217.749 84.643 217.517 84.9224 217.218 85.1155L211.768 88.8371C211.619 88.9413 211.446 89.0064 211.264 89.0264C211.083 89.0464 210.9 89.0206 210.731 88.9516C210.562 88.8825 210.414 88.7722 210.299 88.6309C210.184 88.4896 210.106 88.3218 210.072 88.1427C209.918 87.2375 210.377 85.8348 212.895 83.882C213.666 83.2756 214.552 82.8331 215.501 82.5818Z" fill="white" stroke="black" stroke-width="0.78801" stroke-miterlimit="10"/>
<path d="M224.344 87.9056C224.308 87.5759 224.164 87.2673 223.933 87.0287C223.702 86.79 223.399 86.6348 223.07 86.5875C222.707 86.5182 222.333 86.5303 221.976 86.6229C221.618 86.7156 221.286 86.8865 221.002 87.1233L214.289 92.5321C214.074 92.6974 213.909 92.9183 213.81 93.1709C213.712 93.4235 213.685 93.6983 213.732 93.9653C213.821 94.4003 214.148 94.8402 214.959 95.0161C215.369 95.0953 215.792 95.0892 216.2 94.9981C216.608 94.907 216.993 94.7328 217.33 94.4865L223.301 90.2417C223.675 89.9872 223.97 89.634 224.154 89.2215C224.338 88.809 224.404 88.3534 224.344 87.9056Z" fill="white" stroke="black" stroke-width="0.78801" stroke-miterlimit="10"/>
<path d="M210.375 91.7435C210.413 92.112 210.573 92.4572 210.83 92.7249C211.086 92.9925 211.425 93.1673 211.791 93.2216C212.197 93.2994 212.615 93.2865 213.015 93.1839C213.415 93.0812 213.788 92.8914 214.105 92.628L221.614 86.6193C221.853 86.4355 222.038 86.1903 222.149 85.9098C222.26 85.6292 222.292 85.3239 222.243 85.0262C222.143 84.5401 221.802 84.0479 220.875 83.8491C220.417 83.7593 219.946 83.7647 219.49 83.8651C219.034 83.9655 218.604 84.1586 218.227 84.4326L211.546 89.1479C211.131 89.4315 210.802 89.8236 210.596 90.2814C210.389 90.7392 210.313 91.245 210.375 91.7435Z" fill="white" stroke="black" stroke-width="0.78801" stroke-miterlimit="10"/>
<rect x="149.936" y="114.299" width="32.2732" height="32.2732" transform="rotate(-28.9165 149.936 114.299)" fill="#1A1A1A"/>
<circle cx="178.649" cy="132.903" r="3.50796" transform="rotate(-28.9165 178.649 132.903)" fill="#E9EFFF"/>
<circle cx="184.94" cy="112.404" r="3.50796" transform="rotate(-28.9165 184.94 112.404)" fill="white"/>
<rect x="164.862" y="141.32" width="32.2732" height="32.2732" transform="rotate(-28.9165 164.862 141.32)" fill="black"/>
<circle cx="193.575" cy="159.925" r="3.50796" transform="rotate(-28.9165 193.575 159.925)" fill="white"/>
<circle cx="178.648" cy="132.903" r="3.50796" transform="rotate(-28.9165 178.648 132.903)" fill="black"/>
<path d="M122.086 71.0266C112.236 75.336 103.104 72.8222 99.7697 71.0266C72.0668 72.8735 63.089 104.629 62.063 120.276H92.0744L89.7659 147.979L149.789 146.44L145.941 126.432L142.863 101.808L149.789 95.6514C146.711 75.336 130.038 70.7701 122.086 71.0266Z" fill="black" stroke="black" stroke-width="0.923429"/>
<path d="M92.8435 118.737H62.0625V142.593C62.0625 154.289 65.1406 160.805 66.6796 162.6C75.9139 175.528 96.1781 171.578 105.156 167.987L157.484 146.44L148.249 124.893C93.613 134.897 95.152 139.001 92.0739 141.054L92.8435 118.737Z" fill="black"/>
<path d="M157.483 146.439C145.791 140.788 146.554 129.462 148.249 124.893C151.581 124.761 158.426 123.643 161.294 119.454C164.161 115.265 161.166 108.737 165.308 108.632C168.648 110.692 167.942 114.807 167.95 116.999L178.027 114.171L181.553 117.941L183.101 122.619L185.37 127.565L184.218 132.883L157.483 146.439Z" fill="white"/>
<path d="M185.37 127.565L184.218 132.883L157.483 146.439C145.791 140.788 146.554 129.462 148.249 124.893C151.581 124.761 158.426 123.643 161.294 119.454C164.161 115.265 161.166 108.737 165.308 108.632C168.648 110.692 167.942 114.807 167.95 116.999L178.027 114.171L181.553 117.941M185.37 127.565L180.692 129.113M185.37 127.565L183.101 122.619M183.101 122.619L178.423 124.167M183.101 122.619L181.553 117.941M181.553 117.941L175.886 119.943" stroke="black" stroke-width="0.923429"/>
<path d="M92.0752 104.886L90.5361 134.898L99.0009 132.589" stroke="white" stroke-width="0.923429"/>
<path d="M53.2561 59.8012C54.5317 59.7223 55.6858 60.0408 56.519 60.5886C57.3519 61.1364 57.8319 61.8849 57.8816 62.6862C57.9311 63.4877 57.547 64.2895 56.7879 64.9358C56.0285 65.5822 54.9227 66.0413 53.647 66.1202C52.3714 66.1991 51.2173 65.8798 50.3841 65.3319C49.5513 64.784 49.0721 64.0355 49.0225 63.2342C48.973 62.4329 49.3562 61.6309 50.1152 60.9847C50.8745 60.3383 51.9805 59.8802 53.2561 59.8012Z" stroke="black" stroke-width="1.30406"/>
<path d="M67.2362 72.4803C68.1631 72.7512 68.8959 73.2721 69.3403 73.8654C69.7844 74.4583 69.9196 75.0856 69.7603 75.6313C69.6008 76.177 69.149 76.6335 68.4553 76.894C67.7612 77.1546 66.8633 77.1989 65.9364 76.9281C65.0094 76.6572 64.2768 76.1363 63.8322 75.543C63.3879 74.9499 63.253 74.322 63.4125 73.7762C63.5721 73.2306 64.0237 72.7748 64.7173 72.5144C65.4114 72.2538 66.3092 72.2094 67.2362 72.4803Z" stroke="black" stroke-width="1.30406"/>
<path d="M36.0856 7.80169C14.6616 2.52696 8.74629 19.1788 11.158 27.5714C-3.946 38.7315 5.49613 54.6166 17.8705 54.2408C30.4811 68.9426 41.4935 61.7048 47.8436 51.234C60.9568 58.5531 66.6372 47.2669 67.6435 41.6494C81.4223 35.5541 71.5113 21.5171 67.3132 18.7906C63.2301 -2.34517 45.0611 1.14495 36.0856 7.80169Z" fill="white" stroke="black" stroke-width="1.65349"/>
<path d="M41.7268 48.1108L39.947 45.3424C38.9706 43.8236 37.3435 42.8858 35.6248 42.3326C25.4858 39.0691 26.0466 26.549 35.3181 23.9547C39.8024 22.6999 47.9243 27.1009 46.0113 35.5686C45.5416 37.6476 45.5634 39.8907 46.716 41.6835L48.1806 43.9616L41.7268 48.1108Z" fill="white" stroke="black" stroke-width="1.53449"/>
<rect x="40.1724" y="45.8008" width="7.67247" height="3.06899" transform="rotate(-32.737 40.1724 45.8008)" fill="black"/>
<path d="M21.5015 23.1426L25.6661 26.4384" stroke="black" stroke-width="1.53449" stroke-linecap="round"/>
<path d="M26.6167 16.2041L30.5073 22.2557" stroke="black" stroke-width="1.53449" stroke-linecap="round"/>
<path d="M19.981 31.4175L23.9578 32.2819" stroke="black" stroke-width="1.53449" stroke-linecap="round"/>
<path d="M35.3354 14.2485L35.8907 19.5304" stroke="black" stroke-width="1.53449" stroke-linecap="round"/>
<path d="M43.2134 16.481L42.349 20.4578" stroke="black" stroke-width="1.53449" stroke-linecap="round"/>
<path d="M44.3783 43.7914C38.3496 41.449 38.121 29.838 40.0639 33.5634M37.2638 35.3636C35.321 33.2209 36.2066 43.3921 36.9496 38.3921" stroke="black" stroke-width="0.951004" stroke-linecap="round"/>
</svg>
