<svg width="160" height="160" viewBox="0 0 160 160" fill="none" xmlns="http://www.w3.org/2000/svg">
<path d="M67.4111 63.2334L68.6051 51.0087L73.7917 53.6283L79.5547 54.1522L84.7414 53.1044L88.7755 49.437L91.0807 59.7863V69.3455L68.6051 69.8695L67.4111 63.2334Z" fill="white" stroke="#0F0F0F" stroke-width="1.1641"/>
<path d="M61.8478 41.5407C55.7782 39.6731 57.3734 36.0936 58.9297 34.5373L66.5164 24.0322L94.5299 30.452L92.1954 46.2096C89.861 55.5474 82.274 57.8819 78.7723 57.8819C68.0338 58.3488 63.0149 47.1823 61.8478 41.5407Z" fill="white" stroke="#0F0F0F" stroke-width="1.16723"/>
<path d="M64.1829 38.0391C65.9337 36.8719 69.4212 32.2595 70.6018 28.1177C82.0258 33.2535 91.6128 33.3702 96.8649 30.4521C105.62 22.8651 96.2813 11.7764 88.1107 9.44199C76.0294 6.93081 67.9861 10.3779 65.688 16.1231C63.6593 14.9059 61.0283 16.5389 59.1092 18.1517C57.7683 19.2786 56.6337 20.6836 56.0784 22.3449C53.0804 31.3144 62.5741 39.1116 64.1829 38.0391Z" fill="#0F0F0F"/>
<path d="M44.5667 87.1622C43.1648 70.7542 60.277 62.6691 68.1628 60.8285C69.3232 64.6587 71.9593 66.7438 74.629 67.7993C78.2927 69.2478 82.7386 69.4779 86.1028 67.428C89.4096 65.4131 91.2231 61.577 91.8194 59.2508C97.5581 58.8534 104.293 61.5637 109.66 64.5445C114.802 67.4 118.05 72.5762 119.569 78.2579L128.619 112.104C131.423 127.88 118.105 130.773 111.096 130.247V145.39H43.9727V115.703L44.5667 87.1622Z" fill="black"/>
<path d="M115.434 87.1622C116.836 70.7542 99.7239 62.6691 91.8382 60.8285C90.6778 64.6587 88.0416 66.7438 85.3719 67.7993C81.7083 69.2478 77.2624 69.4779 73.8982 67.428C70.5913 65.4131 68.7778 61.577 68.1816 59.2508C62.4429 58.8534 55.7081 61.5637 50.3406 64.5445C45.199 67.4 41.9511 72.5762 40.4318 78.2579L31.3816 112.104C28.5778 127.88 41.8959 130.773 48.9054 130.247V145.39H116.028V115.703L115.434 87.1622Z" fill="black"/>
<path d="M66.633 129.771L72.1306 131.27L80.3826 133.517L85.8835 135.017C88.9213 135.844 92.0545 134.053 92.8587 131.099L96.0942 119.224C95.7694 118.899 95.4631 118.585 95.238 118.192C94.8504 117.513 94.748 116.709 94.9534 115.956C95.1588 115.202 95.6551 114.561 96.3332 114.173C96.7269 113.948 97.1499 113.834 97.5749 113.803L103.001 93.891C103.198 93.1686 103.251 92.4144 103.157 91.6715C103.062 90.9286 102.823 90.2116 102.451 89.5615C102.079 88.9114 101.583 88.3408 100.991 87.8826C100.399 87.4243 99.7218 87.0873 98.9992 86.8908L93.499 85.3927L85.2488 83.143L79.7499 81.6443C79.0275 81.447 78.2733 81.394 77.5304 81.4883C76.7875 81.5827 76.0705 81.8225 75.4204 82.1942C74.7703 82.5658 74.1998 83.062 73.7415 83.6542C73.2833 84.2465 72.9462 84.9233 72.7497 85.6459L67.3218 105.557C67.6834 105.804 67.9854 106.129 68.2058 106.507C68.5934 107.185 68.6958 107.989 68.4904 108.743C68.285 109.497 67.7887 110.138 67.1106 110.525C66.7168 110.75 66.2926 110.866 65.8689 110.896L62.6334 122.771C62.4361 123.493 62.3831 124.247 62.4773 124.99C62.5716 125.733 62.8113 126.45 63.1828 127.1C63.5542 127.75 64.0501 128.32 64.6421 128.779C65.2341 129.237 65.9106 129.574 66.633 129.771ZM88.2968 111.983C88.6327 111.791 89.0031 111.667 89.3868 111.618C89.7706 111.57 90.1602 111.597 90.5334 111.699C90.9065 111.801 91.256 111.975 91.5619 112.212C91.8677 112.449 92.1238 112.744 92.3157 113.079C92.5076 113.415 92.6315 113.786 92.6802 114.169C92.729 114.553 92.7017 114.943 92.5999 115.316C92.498 115.689 92.3237 116.039 92.0868 116.344C91.85 116.65 91.5552 116.906 91.2193 117.098C90.5409 117.486 89.7364 117.588 88.9827 117.383C88.229 117.177 87.5879 116.68 87.2003 116.002C86.8128 115.324 86.7106 114.519 86.9162 113.765C87.1218 113.012 87.6185 112.37 88.2968 111.983ZM80.2604 109.793C80.5963 109.601 80.9667 109.477 81.3504 109.428C81.7342 109.379 82.1237 109.407 82.4969 109.508C82.8701 109.61 83.2196 109.785 83.5254 110.021C83.8313 110.258 84.0874 110.553 84.2793 110.889C84.4712 111.225 84.5951 111.595 84.6438 111.979C84.6926 112.363 84.6653 112.752 84.5634 113.126C84.4616 113.499 84.2873 113.848 84.0504 114.154C83.8135 114.46 83.5188 114.716 83.1829 114.908C82.5045 115.296 81.7 115.398 80.9463 115.192C80.1926 114.987 79.5515 114.49 79.1639 113.812C78.7764 113.133 78.6742 112.329 78.8798 111.575C79.0854 110.821 79.582 110.18 80.2604 109.793ZM72.224 107.602C72.5598 107.41 72.9302 107.286 73.314 107.238C73.6977 107.189 74.0873 107.216 74.4605 107.318C74.8337 107.42 75.1832 107.594 75.489 107.831C75.7948 108.068 76.051 108.363 76.2429 108.699C76.4348 109.035 76.5587 109.405 76.6074 109.789C76.6562 110.172 76.6288 110.562 76.527 110.935C76.4252 111.308 76.2509 111.658 76.014 111.964C75.7771 112.27 75.4823 112.526 75.1464 112.718C74.4681 113.105 73.6636 113.207 72.9099 113.002C72.1562 112.796 71.5151 112.3 71.1275 111.621C70.74 110.943 70.6378 110.138 70.8434 109.385C71.049 108.631 71.5456 107.99 72.224 107.602Z" fill="white"/>
<path d="M82.9944 87.8754C83.2472 87.7302 83.5374 87.6634 83.8282 87.6834C84.119 87.7033 84.3973 87.8093 84.6278 87.9877C84.8583 88.1662 85.0306 88.4091 85.1227 88.6856C85.2149 88.9622 85.2229 89.2599 85.1456 89.5409L82.9553 97.5774C82.9044 97.764 82.8173 97.9387 82.699 98.0915C82.5806 98.2444 82.4333 98.3725 82.2655 98.4684C82.0976 98.5644 81.9125 98.6263 81.7207 98.6508C81.5289 98.6752 81.3342 98.6616 81.1477 98.6107C80.9611 98.5599 80.7864 98.4728 80.6336 98.3544C80.4807 98.2361 80.3526 98.0888 80.2567 97.9209C80.1607 97.7531 80.0988 97.568 80.0743 97.3762C80.0499 97.1844 80.0635 96.9897 80.1144 96.8031L82.3047 88.7666C82.4074 88.3899 82.6554 88.0693 82.9944 87.8754ZM89.0217 89.5182C89.2745 89.373 89.5647 89.3061 89.8555 89.3261C90.1463 89.3461 90.4246 89.4521 90.6551 89.6305C90.8856 89.809 91.0579 90.0519 91.1501 90.3284C91.2423 90.605 91.2502 90.9027 91.1729 91.1837L87.3398 105.248C87.289 105.434 87.2019 105.609 87.0835 105.762C86.9652 105.915 86.8179 106.043 86.65 106.139C86.4822 106.235 86.2971 106.296 86.1053 106.321C85.9135 106.345 85.7188 106.332 85.5322 106.281C85.3457 106.23 85.171 106.143 85.0181 106.025C84.8652 105.906 84.7372 105.759 84.6412 105.591C84.5453 105.423 84.4833 105.238 84.4589 105.046C84.4345 104.855 84.4481 104.66 84.4989 104.473L88.332 90.4094C88.4347 90.0327 88.6828 89.7121 89.0217 89.5182ZM95.049 91.161C95.3018 91.0158 95.592 90.9489 95.8828 90.9689C96.1736 90.9889 96.4519 91.0949 96.6824 91.2733C96.9129 91.4518 97.0852 91.6947 97.1774 91.9712C97.2696 92.2477 97.2775 92.5454 97.2002 92.8265L93.3671 106.89C93.3163 107.077 93.2292 107.252 93.1108 107.404C92.9925 107.557 92.8452 107.685 92.6773 107.781C92.5095 107.877 92.3244 107.939 92.1326 107.964C91.9408 107.988 91.7461 107.974 91.5595 107.924C91.373 107.873 91.1983 107.786 91.0454 107.667C90.8925 107.549 90.7645 107.402 90.6685 107.234C90.5726 107.066 90.5106 106.881 90.4862 106.689C90.4618 106.497 90.4754 106.303 90.5262 106.116L94.3594 92.0522C94.462 91.6754 94.7101 91.3549 95.049 91.161ZM87.9478 124.422C88.6512 124.926 89.1021 125.762 88.8643 126.631C88.6178 127.535 87.8518 128.001 86.9552 128.068L76.7746 128.882C76.4754 128.911 76.2263 128.879 76.1077 128.846C75.4427 128.665 75.1303 127.994 75.3022 127.363C75.4959 126.649 75.9696 126.391 76.5272 126.361L78.2676 126.287L79.5582 121.552L78.1134 120.608C77.631 120.296 77.3541 119.835 77.5446 119.136C77.7315 118.454 78.4008 118.014 79.0819 118.199C79.3552 118.274 79.5345 118.415 79.6109 118.472L87.9478 124.422ZM81.7116 122.924L80.8294 126.161L86.2026 125.923L86.2119 125.889L81.7116 122.924Z" fill="#363636"/>
<path d="M58.7417 124.256V112.943L65.9069 106.429C66.2854 106.085 66.8202 105.972 67.3054 106.134L67.3565 106.151C68.0748 106.39 68.4771 107.153 68.2691 107.881L67.5776 110.301C67.3783 110.998 67.7388 111.733 68.4121 112.003L73.4089 114.001C73.9458 114.216 74.2979 114.736 74.2979 115.314V118.953V122.198C74.2979 122.954 73.7032 123.576 72.9479 123.611L58.7417 124.256Z" fill="white" stroke="black" stroke-width="1.4142"/>
<path d="M97.4195 124.256V112.943L90.2542 106.429C89.8757 106.085 89.3409 105.972 88.8557 106.134L88.8046 106.151C88.0863 106.39 87.6841 107.153 87.8921 107.881L88.5836 110.301C88.7828 110.998 88.4223 111.733 87.749 112.003L82.7523 114.001C82.2153 114.216 81.8633 114.736 81.8633 115.314V118.953V122.198C81.8633 122.954 82.458 123.576 83.2133 123.611L97.4195 124.256Z" fill="white" stroke="black" stroke-width="1.4142"/>
</svg>
