<svg width="161" height="160" viewBox="0 0 161 160" fill="none" xmlns="http://www.w3.org/2000/svg">
<path d="M9.23145 128.255V126.387C9.23145 126.043 9.51021 125.764 9.85409 125.764H99.8258C100.17 125.764 100.448 126.043 100.448 126.387V128.255C100.448 128.599 100.17 128.877 99.8258 128.877H9.85409C9.51021 128.877 9.23145 128.599 9.23145 128.255Z" fill="#0E0E0E"/>
<path d="M123.641 64.1229L122.037 53.2339L117.33 55.611L112.1 56.0865L107.394 55.1356L103.733 51.8076L101.641 61.1992L100.136 70.3493H122.037L123.641 64.1229Z" fill="white" stroke="#0F0F0F" stroke-width="0.622642"/>
<path d="M125.276 44.9532C130.784 43.2584 129.336 40.0102 127.924 38.5979L121.039 29.0649L95.6178 34.8906L97.7363 49.19C99.8547 57.6638 106.74 59.7822 109.917 59.7822C119.662 60.2059 124.216 50.0727 125.276 44.9532Z" fill="white" stroke="#0F0F0F" stroke-width="0.622642"/>
<path d="M126.795 40.7057C125.206 39.6465 122.041 35.4609 120.97 31.7024C110.603 36.3629 100.344 37.8701 95.5781 35.2221C87.6337 28.3372 97.6667 16.8733 105.081 14.7549C116.045 12.4761 123.343 15.6042 125.429 20.8177C127.29 19.701 129.71 21.228 131.456 22.7069C132.631 23.7022 133.633 24.9317 134.14 26.3856C136.987 34.5353 128.259 41.6818 126.795 40.7057Z" fill="#0F0F0F"/>
<path d="M85.8174 73.4625C92.5419 66.4889 98.7891 63.9153 101.072 63.5002C110.91 71.221 119.803 64.4342 123.02 60.0757C126.445 61.2172 134.757 64.2162 140.61 67.0804C146.463 69.9446 149.379 75.4342 150.105 77.821C150.977 79.8134 152.129 99.1464 151.662 111.911H147.459L149.015 146H85.8174V128.878V73.4625Z" fill="black" stroke="black" stroke-width="0.311321"/>
<path d="M19.5059 73.6182H89.5527C90.8423 73.6182 91.8877 74.6636 91.8877 75.9531V120.938H17.1709V75.9531C17.1709 74.6636 18.2163 73.6182 19.5059 73.6182Z" fill="white" stroke="black" stroke-width="1.5566"/>
<rect x="22.6172" y="78.4434" width="64.1321" height="9.33962" rx="0.933962" fill="black"/>
<rect x="65.2686" y="89.3398" width="21.4811" height="9.33962" rx="0.933962" fill="black"/>
<rect x="65.2686" y="100.236" width="21.4811" height="16.5" rx="0.933962" fill="black"/>
<rect x="22.6172" y="90.3398" width="39.5377" height="2.80189" rx="0.5" fill="black"/>
<rect x="22.6172" y="94.3872" width="39.5377" height="2.80189" rx="0.5" fill="black"/>
<rect x="22.6172" y="98.4341" width="39.5377" height="2.80189" rx="0.5" fill="black"/>
<rect x="22.6172" y="102.481" width="39.5377" height="2.80189" rx="0.5" fill="black"/>
<rect x="22.6172" y="106.528" width="39.5377" height="2.80189" rx="0.5" fill="black"/>
<rect x="22.6172" y="110.576" width="39.5377" height="2.80189" rx="0.5" fill="black"/>
<path d="M9.54297 125.92L16.392 121.717H92.6656L99.826 125.92H9.54297Z" fill="black"/>
<path d="M147.803 111.911C147.803 112.501 147.595 113.731 147.282 115.274C146.965 116.841 146.525 118.79 146.038 120.855C145.067 124.973 143.902 129.568 143.123 132.555C142.59 136.39 141.368 138.99 140.056 140.672C138.264 142.969 135.179 143.092 132.569 142.825L118.299 141.361L118.278 141.359L118.258 141.355L86.4736 135.376C85.0176 135.103 83.5869 134.654 82.208 134.28C78.0486 133.15 72.7369 132.914 70.2754 132.957L56.0762 134C54.1818 134.139 52.2863 133.743 50.6055 132.858L44.1787 129.475L42.6768 128.685L44.3672 128.535L96.9805 123.865H96.9873L123.643 121.873L124.545 110.004L124.583 109.502L125.085 109.544L147.345 111.413L147.803 111.451V111.911Z" fill="white" stroke="black"/>
<path d="M47.7588 72.6941C47.7588 72.6941 47.8416 69.6999 49.5442 70.0307C49.8527 70.0999 50.1279 70.2442 50.3333 70.4443C50.5386 70.6444 50.6642 70.8908 50.6933 71.1505L51.3827 75.9579C51.4037 76.0908 51.3835 76.2259 51.3239 76.3507C51.2643 76.4756 51.1673 76.5863 51.0416 76.6726C50.916 76.7589 50.7658 76.8181 50.6048 76.8447C50.4437 76.8714 50.277 76.8647 50.1199 76.8252C49.2525 76.5896 48.2025 75.6572 47.7588 72.6941Z" fill="white" stroke="black" stroke-width="0.733333" stroke-miterlimit="10"/>
<path d="M60.5653 72.0176C60.1264 71.3208 59.4562 70.6495 58.619 71.0027C58.3407 71.1312 58.117 71.3256 57.9773 71.5602C57.8376 71.7947 57.7885 72.0584 57.8366 72.3164L58.6022 77.1148C58.6216 77.2474 58.6816 77.374 58.7766 77.483C58.8715 77.5919 58.9984 77.6797 59.1457 77.7383C59.293 77.797 59.4559 77.8246 59.6195 77.8186C59.7831 77.8126 59.9423 77.7732 60.0823 77.7041C60.782 77.3467 61.4509 76.4117 61.2532 74.0822C61.1986 73.3632 60.9645 72.6606 60.5653 72.0176Z" fill="white" stroke="black" stroke-width="0.733333" stroke-miterlimit="10"/>
<path d="M51.7032 69.7788C51.9462 69.6382 52.2394 69.5672 52.5372 69.5769C52.835 69.5866 53.1206 69.6765 53.3493 69.8325C53.6134 69.9979 53.8293 70.209 53.9813 70.4506C54.1333 70.6922 54.2176 70.9583 54.2283 71.2296L54.6147 77.5417C54.6323 77.74 54.5834 77.9384 54.4732 78.1156C54.3631 78.2928 54.1958 78.4422 53.9894 78.5478C53.6429 78.7136 53.167 78.753 52.5506 78.3891C52.2513 78.2034 52.0023 77.9693 51.8192 77.7013C51.6362 77.4334 51.5232 77.1376 51.4872 76.8324L50.761 71.4934C50.7081 71.1643 50.7681 70.8298 50.9345 70.5271C51.1008 70.2244 51.3669 69.9653 51.7032 69.7788Z" fill="white" stroke="black" stroke-width="0.733333" stroke-miterlimit="10"/>
<path d="M57.4891 79.2885C57.2193 79.4464 56.8926 79.5266 56.5605 79.5167C56.2284 79.5067 55.9097 79.4071 55.6543 79.2335C55.3585 79.0499 55.1166 78.815 54.946 78.5457C54.7754 78.2765 54.6804 77.9797 54.668 77.6769L54.2056 70.6295C54.1863 70.4088 54.2407 70.188 54.3632 69.9906C54.4856 69.7932 54.6714 69.6267 54.9008 69.5087C55.2839 69.3249 55.821 69.2727 56.5057 69.6815C56.8389 69.8893 57.1165 70.1504 57.3217 70.4487C57.5269 70.747 57.6553 71.0763 57.699 71.4164L58.5326 77.3758C58.5912 77.7422 58.5248 78.1146 58.3407 78.452C58.1566 78.7895 57.862 79.0789 57.4891 79.2885Z" fill="white" stroke="black" stroke-width="0.733333" stroke-miterlimit="10"/>
<path d="M77.7546 105.685L79.9488 107.879L74.828 113H72.6338V110.805L77.7546 105.685ZM78.486 104.953L79.5831 103.856C79.6801 103.759 79.8117 103.704 79.9488 103.704C80.086 103.704 80.2175 103.759 80.3145 103.856L81.7779 105.318C81.826 105.366 81.8641 105.423 81.8901 105.486C81.9162 105.549 81.9296 105.616 81.9296 105.684C81.9296 105.752 81.9162 105.82 81.8901 105.882C81.8641 105.945 81.826 106.002 81.7779 106.05L80.6802 107.147L78.486 104.953Z" fill="white"/>
</svg>
