<svg width="160" height="160" viewBox="0 0 160 160" fill="none" xmlns="http://www.w3.org/2000/svg">
<path d="M36.412 43.8524L78.9891 25.5315C81.6713 24.3774 84.7328 24.5049 87.3096 25.8784L88.9816 26.7696L100.946 35.7779C102.283 36.784 103.333 38.121 103.995 39.6575L129.805 99.639C131.903 104.515 129.651 110.17 124.774 112.268L75.0568 133.661C70.1805 135.759 64.527 133.507 62.4287 128.631L31.3823 56.48C29.2844 51.6039 31.5361 45.9508 36.412 43.8524Z" fill="#292929" stroke="#292929" stroke-width="2.13603"/>
<path d="M102.988 31.3706C106.557 31.3706 109.933 32.993 112.162 35.7798L113.228 37.1118L113.279 37.1772L113.32 37.2495L120.458 49.7388C121.472 51.5139 122.006 53.5234 122.006 55.5679V117.88C122.006 124.369 116.746 129.628 110.258 129.628H58.9922C52.5041 129.628 47.2442 124.368 47.2441 117.88V43.1187C47.2444 36.6307 52.5042 31.3709 58.9922 31.3706H102.988Z" fill="black" stroke="white" stroke-width="2.13603"/>
<path d="M99.9809 117.369C99.2277 108.245 105.96 105.657 111.348 106.545C111.566 109.569 110.025 110.701 107.09 111.224C107.656 111.792 108.658 112.508 108.55 113.402C108.474 114.038 108.023 114.351 107.123 114.975C105.15 116.343 102.864 117.208 99.9809 117.369Z" stroke="white" stroke-width="1.72957" stroke-linecap="round" stroke-linejoin="round"/>
<path d="M99.1592 121.031C99.1592 116.27 102.095 113.84 104.119 112.241" stroke="white" stroke-width="1.72957" stroke-linecap="round" stroke-linejoin="round"/>
<rect x="60.042" y="45.4961" width="32.0405" height="4.27206" fill="white"/>
<rect x="60.042" y="54.04" width="49.1287" height="4.27206" fill="white"/>
<rect x="60.042" y="62.5845" width="49.1287" height="4.27206" fill="white"/>
<rect x="60.042" y="71.1284" width="49.1287" height="4.27206" fill="white"/>
<rect x="60.042" y="79.6724" width="49.1287" height="4.27206" fill="white"/>
<rect x="60.042" y="88.2168" width="49.1287" height="4.27206" fill="white"/>
<rect x="60.001" y="96.9995" width="44" height="4" fill="white"/>
</svg>
