<svg width="160" height="160" viewBox="0 0 160 160" fill="none" xmlns="http://www.w3.org/2000/svg">
<path d="M17.5084 120.795L25.4691 37.7755L32.9704 35.1138V126.097H22.3258C19.8367 126.097 18.5921 126.097 17.8721 125.304C17.152 124.512 17.2708 123.273 17.5084 120.795Z" fill="#292929"/>
<path d="M103 33.6616H30.3352C27.5596 33.6616 25.3527 35.9913 25.5028 38.7628L30.128 124.17C30.2725 126.838 32.5517 128.884 35.2197 128.741L112.074 124.617C114.846 124.468 116.926 122.023 116.626 119.263L107.811 37.9794C107.545 35.5229 105.471 33.6616 103 33.6616Z" fill="#0F0F0F"/>
<path d="M53.2976 31C50.9746 31 49.8293 32.9358 49.668 33.9037C53.2976 33.4198 53.7009 38.3399 53.2976 41.163H79.6729V33.9037C79.6729 32.9378 79.2337 32.1728 78.7661 31.6555C78.3143 31.1556 77.6247 31 76.9509 31H53.2976Z" fill="#292929"/>
<path d="M34.3242 48.6641H82.5836" stroke="white" stroke-width="2.33137"/>
<path d="M34.7891 55.0079L101.699 53.376" stroke="white" stroke-width="2.33137"/>
<path d="M34.7891 61.3512L102.865 59.7192" stroke="white" stroke-width="2.33137"/>
<path d="M35.7227 67.6945L103.332 66.0625" stroke="white" stroke-width="2.33137"/>
<path d="M36.1904 74.2713L104.033 72.4062" stroke="white" stroke-width="2.33137"/>
<path d="M36.1904 81.3143L105.199 78.9829" stroke="white" stroke-width="2.33137"/>
<path d="M36.6553 87.891L105.198 86.0259" stroke="white" stroke-width="2.33137"/>
<path d="M37.123 94.4676L105.199 92.6025" stroke="white" stroke-width="2.33137"/>
<path d="M37.5889 101.044L105.199 99.1792" stroke="white" stroke-width="2.33137"/>
<path d="M38.5215 108.554L105.432 105.756" stroke="white" stroke-width="2.33137"/>
<path d="M39.4531 116.296L105.664 113.265" stroke="white" stroke-width="2.33137"/>
<circle cx="99.4174" cy="84.8564" r="18.7717" transform="rotate(-1.06573 99.4174 84.8564)" fill="white" fill-opacity="0.7"/>
<path d="M141.414 117.224L124.614 103.467C122.875 101.959 121.034 101.29 119.56 101.383C123.854 96.1544 125.957 89.4671 125.429 82.7223C124.902 75.9774 121.784 69.6985 116.73 65.2012C111.676 60.7039 105.077 58.3372 98.3166 58.5971C91.5561 58.8569 85.1586 61.7232 80.4645 66.5952C75.7704 71.4673 73.1441 77.967 73.1359 84.7324C73.1276 91.4978 75.7381 98.0039 80.4203 102.887C85.1025 107.771 91.493 110.653 98.2528 110.929C105.013 111.205 111.617 108.855 116.682 104.37C116.64 105.846 117.381 107.661 118.953 109.343L133.325 125.62C135.783 128.25 139.719 128.404 142.074 125.959C144.43 123.514 144.13 119.583 141.41 117.228L141.414 117.224ZM99.6484 102.216C95.0192 102.302 90.5453 100.546 87.211 97.3332C83.8767 94.1207 81.9552 89.7153 81.869 85.086C81.7829 80.4567 83.5393 75.9829 86.7518 72.6486C89.9643 69.3143 94.3698 67.3927 98.999 67.3066C103.628 67.2205 108.102 68.9769 111.436 72.1894C114.771 75.4019 116.692 79.8073 116.778 84.4366C116.865 89.0659 115.108 93.5398 111.896 96.874C108.683 100.208 104.278 102.13 99.6484 102.216Z" fill="#292929"/>
</svg>
