<svg width="124" height="51" viewBox="0 0 124 51" fill="none" xmlns="http://www.w3.org/2000/svg">
<path d="M18.855 19.2754C33.3644 19.2754 39.1121 25.7941 39.1121 34.4857C39.1121 43.1773 32.7335 50.7474 18.7148 50.7474C11.9157 50.7474 4.7662 48.8548 -0.00015971 45.4904L4.48583 36.7987C8.20079 39.6025 13.3176 41.2146 18.4345 41.2146C24.112 41.2146 27.6167 38.8315 27.6167 34.8361C27.6167 30.981 25.0933 28.4576 16.1915 28.4576H3.64471L6.16808 0.840739H36.098V9.9529H15.6307L14.8597 19.2754H18.855ZM67.3406 19.1352C76.8032 19.1352 84.2332 25.1632 84.2332 34.4156C84.2332 44.439 76.0322 50.7474 65.6584 50.7474C52.1303 50.7474 43.7191 42.266 43.7191 26.4249C43.7191 9.46225 53.9527 -0.000381362 68.7425 -0.000381362C73.9294 -0.000381362 78.9761 1.19121 82.4107 3.36411L78.2051 11.7052C75.4715 9.88281 72.3173 9.25197 69.0229 9.25197C60.8219 9.25197 55.5649 14.0884 55.2144 23.481C58.0883 20.6071 62.2238 19.1352 67.3406 19.1352ZM65.0275 42.266C69.864 42.266 73.2285 39.4623 73.2285 34.9763C73.2285 30.4903 69.9341 27.6165 64.8873 27.6165C59.9107 27.6165 56.406 30.7006 56.406 34.9763C56.406 39.1819 59.5602 42.266 65.0275 42.266ZM123.668 21.0978V29.6492H111.472V41.5651H102.43V29.6492H90.3034V21.0978H102.43V9.18188H111.472V21.0978H123.668Z" fill="white"/>
</svg>
