<svg width="467" height="282" viewBox="0 0 467 282" fill="none" xmlns="http://www.w3.org/2000/svg">
<g clip-path="url(#clip0_518_951)">
<path d="M466.44 -0.000976562H0.000488281V281.817H466.44V-0.000976562Z" fill="#FFF4E7"/>
<path d="M13.4282 369.18C100.468 369.18 171.028 298.838 171.028 212.067C171.028 125.295 100.468 54.9531 13.4282 54.9531C-73.6119 54.9531 -144.172 125.295 -144.172 212.067C-144.172 298.838 -73.6119 369.18 13.4282 369.18Z" fill="#FFDE6D"/>
<path fill-rule="evenodd" clip-rule="evenodd" d="M91.0811 266.496C153.344 266.931 203.833 165.477 257.066 197.744C306.271 227.568 267.975 308.557 251.234 363.57C239.756 401.291 213.717 432.137 179.671 452.076C153.141 467.613 120.623 448.821 91.0811 457.36C33.1376 474.11 -23.9356 563.463 -69.6455 524.142C-113.98 486.004 -16.5986 422.003 -17.9489 363.57C-19.376 301.805 -123.409 236.513 -77.2416 195.409C-29.9661 153.318 27.7575 266.053 91.0811 266.496Z" fill="#215863"/>
<path d="M132.257 145.73V140.899H115.958V145.73H132.257ZM154.321 145.73V140.899H138.022V145.73H154.321ZM182.297 140.726C181.825 135.599 177.725 131.289 170.993 131.289C163.563 131.289 158.693 136.515 158.693 144.788C158.693 153.209 163.563 158.313 171.042 158.313C177.328 158.313 181.776 154.548 182.347 148.999H177.179C176.557 152.021 174.396 153.829 171.092 153.829C166.918 153.829 164.16 150.509 164.16 144.788C164.16 139.19 166.892 135.748 171.042 135.748C174.545 135.748 176.632 137.952 177.179 140.726H182.297ZM185.676 139.141C185.676 142.931 188.136 145.308 193.105 146.448L197.353 147.439C200.21 148.083 201.18 149.073 201.18 150.757C201.18 152.888 199.192 154.225 195.963 154.225C192.682 154.225 190.819 152.888 190.322 150.163H185.006C185.502 155.117 189.428 158.313 195.963 158.313C202.124 158.313 206.571 155.042 206.571 150.287C206.571 146.522 204.534 144.442 199.192 143.203L194.944 142.237C192.111 141.593 190.918 140.478 190.918 138.844C190.918 136.763 192.856 135.351 195.763 135.351C198.77 135.351 200.633 136.936 200.931 139.463H205.976C205.802 134.658 201.851 131.289 195.763 131.289C189.751 131.289 185.676 134.484 185.676 139.141ZM210.274 139.141C210.274 142.931 212.733 145.308 217.702 146.448L221.95 147.439C224.808 148.083 225.777 149.073 225.777 150.757C225.777 152.888 223.789 154.225 220.56 154.225C217.28 154.225 215.416 152.888 214.92 150.163H209.602C210.1 155.117 214.025 158.313 220.56 158.313C226.721 158.313 231.169 155.042 231.169 150.287C231.169 146.522 229.131 144.442 223.789 143.203L219.54 142.237C216.708 141.593 215.516 140.478 215.516 138.844C215.516 136.763 217.454 135.351 220.36 135.351C223.367 135.351 225.231 136.936 225.529 139.463H230.572C230.399 134.658 226.448 131.289 220.36 131.289C214.347 131.289 210.274 134.484 210.274 139.141ZM251.865 145.73V140.899H235.566V145.73H251.865ZM279.568 131.76H273.953L267.394 152.591H267.294L260.736 131.76H255.021L264.437 157.817H270.201L279.568 131.76ZM289.755 158.262C293.184 158.262 296.489 156.43 298.004 153.532H298.128V157.817H303.272V139.859C303.272 134.633 299.221 131.289 292.886 131.289C286.426 131.289 282.401 134.757 282.103 139.463H287.171C287.643 137.135 289.581 135.648 292.687 135.648C295.967 135.648 297.929 137.382 297.929 140.28V142.287L290.774 142.707C284.562 143.054 281.06 145.854 281.06 150.411C281.06 155.092 284.637 158.262 289.755 158.262ZM291.246 154.028C288.364 154.028 286.476 152.541 286.476 150.263C286.476 148.034 288.289 146.622 291.495 146.398L297.929 146.002V148.058C297.929 151.451 294.998 154.028 291.246 154.028ZM308.489 157.817H313.856V142.213C313.856 138.522 315.993 136.218 319.446 136.218C320.489 136.218 321.433 136.342 321.856 136.515V131.537C321.459 131.463 320.788 131.339 320.017 131.339C316.937 131.339 314.601 133.147 313.732 136.193H313.607V131.76H308.489V157.817ZM328.043 127.549C329.757 127.549 331.124 126.162 331.124 124.477C331.124 122.769 329.757 121.406 328.043 121.406C326.328 121.406 324.937 122.769 324.937 124.477C324.937 126.162 326.328 127.549 328.043 127.549ZM325.36 157.817H330.726V131.76H325.36V157.817ZM343.869 158.262C347.298 158.262 350.603 156.43 352.118 153.532H352.243V157.817H357.386V139.859C357.386 134.633 353.335 131.289 347 131.289C340.541 131.289 336.515 134.757 336.217 139.463H341.285C341.758 137.135 343.695 135.648 346.801 135.648C350.081 135.648 352.043 137.382 352.043 140.28V142.287L344.888 142.707C338.676 143.054 335.174 145.854 335.174 150.411C335.174 155.092 338.751 158.262 343.869 158.262ZM345.36 154.028C342.478 154.028 340.59 152.541 340.59 150.263C340.59 148.034 342.404 146.622 345.609 146.398L352.043 146.002V148.058C352.043 151.451 349.112 154.028 345.36 154.028ZM376.517 158.262C383.151 158.262 387.425 153.061 387.425 144.788C387.425 136.54 383.127 131.339 376.541 131.339C372.839 131.339 369.858 133.172 368.292 136.193H368.169V122.075H362.802V157.817H368.02V153.384H368.118C369.734 156.405 372.691 158.262 376.517 158.262ZM375.075 135.847C379.3 135.847 381.908 139.314 381.908 144.788C381.908 150.312 379.3 153.731 375.075 153.731C371.002 153.731 368.144 150.213 368.144 144.788C368.144 139.413 371.002 135.847 375.075 135.847ZM391.822 157.817H397.189V122.075H391.822V157.817ZM420.022 150.163C419.301 152.443 417.041 153.977 413.985 153.977C409.687 153.977 406.953 150.98 406.953 146.448V146.126H425.414V144.292C425.414 136.392 420.891 131.289 413.637 131.289C406.258 131.289 401.537 136.738 401.537 144.912C401.537 153.136 406.183 158.313 413.861 158.313C419.848 158.313 424.37 154.918 425.116 150.163H420.022ZM413.637 135.599C417.389 135.599 419.923 138.398 420.047 142.386H406.979C407.251 138.447 409.885 135.599 413.637 135.599ZM429.116 139.141C429.116 142.931 431.575 145.308 436.545 146.448L440.793 147.439C443.651 148.083 444.619 149.073 444.619 150.757C444.619 152.888 442.632 154.225 439.402 154.225C436.123 154.225 434.258 152.888 433.762 150.163H428.445C428.942 155.117 432.867 158.313 439.402 158.313C445.563 158.313 450.011 155.042 450.011 150.287C450.011 146.522 447.974 144.442 442.632 143.203L438.383 142.237C435.55 141.593 434.359 140.478 434.359 138.844C434.359 136.763 436.296 135.351 439.202 135.351C442.209 135.351 444.073 136.936 444.371 139.463H449.415C449.241 134.658 445.29 131.289 439.202 131.289C433.191 131.289 429.116 134.484 429.116 139.141Z" fill="black"/>
<rect x="15.9229" y="13.0723" width="106.775" height="33.6145" rx="16.8072" fill="white"/>
<path d="M32.3814 26.4824V25.1304H35.0854V34.6074H33.5904V26.4824H32.3814ZM36.8743 29.7454C36.8743 28.2461 37.1256 27.0761 37.6283 26.2354C38.1396 25.3861 39.015 24.9614 40.2543 24.9614C41.4936 24.9614 42.3646 25.3861 42.8673 26.2354C43.3786 27.0761 43.6343 28.2461 43.6343 29.7454C43.6343 31.2621 43.3786 32.4494 42.8673 33.3074C42.3646 34.1568 41.4936 34.5814 40.2543 34.5814C39.015 34.5814 38.1396 34.1568 37.6283 33.3074C37.1256 32.4494 36.8743 31.2621 36.8743 29.7454ZM42.1783 29.7454C42.1783 29.0434 42.1306 28.4498 42.0353 27.9644C41.9486 27.4791 41.7666 27.0848 41.4893 26.7814C41.212 26.4694 40.8003 26.3134 40.2543 26.3134C39.7083 26.3134 39.2966 26.4694 39.0193 26.7814C38.742 27.0848 38.5556 27.4791 38.4603 27.9644C38.3736 28.4498 38.3303 29.0434 38.3303 29.7454C38.3303 30.4734 38.3736 31.0844 38.4603 31.5784C38.547 32.0724 38.729 32.4711 39.0063 32.7744C39.2923 33.0778 39.7083 33.2294 40.2543 33.2294C40.8003 33.2294 41.212 33.0778 41.4893 32.7744C41.7753 32.4711 41.9616 32.0724 42.0483 31.5784C42.135 31.0844 42.1783 30.4734 42.1783 29.7454ZM57.7964 25.5724V34.6074H56.3144V28.4194L53.5584 34.6074H52.5314L49.7624 28.4194V34.6074H48.2804V25.5724H49.8794L53.0514 32.6574L56.2104 25.5724H57.7964ZM60.2513 26.4954C59.9826 26.4954 59.7573 26.4044 59.5753 26.2224C59.3933 26.0404 59.3023 25.8151 59.3023 25.5464C59.3023 25.2778 59.3933 25.0524 59.5753 24.8704C59.7573 24.6884 59.9826 24.5974 60.2513 24.5974C60.5113 24.5974 60.7323 24.6884 60.9143 24.8704C61.0963 25.0524 61.1873 25.2778 61.1873 25.5464C61.1873 25.8151 61.0963 26.0404 60.9143 26.2224C60.7323 26.4044 60.5113 26.4954 60.2513 26.4954ZM60.9793 27.4444V34.6074H59.4973V27.4444H60.9793ZM66.292 27.3274C66.8553 27.3274 67.358 27.4444 67.8 27.6784C68.2507 27.9124 68.6017 28.2591 68.853 28.7184C69.1043 29.1778 69.23 29.7324 69.23 30.3824V34.6074H67.761V30.6034C67.761 29.9621 67.6007 29.4724 67.28 29.1344C66.9593 28.7878 66.5217 28.6144 65.967 28.6144C65.4123 28.6144 64.9703 28.7878 64.641 29.1344C64.3203 29.4724 64.16 29.9621 64.16 30.6034V34.6074H62.678V27.4444H64.16V28.2634C64.4027 27.9688 64.7103 27.7391 65.083 27.5744C65.4643 27.4098 65.8673 27.3274 66.292 27.3274ZM78.6963 34.6074L76.6163 30.9934H75.4853V34.6074H74.0033V25.5724H77.1233C77.8167 25.5724 78.4017 25.6938 78.8783 25.9364C79.3637 26.1791 79.7233 26.5041 79.9573 26.9114C80.2 27.3188 80.3213 27.7738 80.3213 28.2764C80.3213 28.8658 80.148 29.4031 79.8013 29.8884C79.4633 30.3651 78.939 30.6901 78.2283 30.8634L80.4643 34.6074H78.6963ZM75.4853 29.8104H77.1233C77.678 29.8104 78.094 29.6718 78.3713 29.3944C78.6573 29.1171 78.8003 28.7444 78.8003 28.2764C78.8003 27.8084 78.6617 27.4444 78.3843 27.1844C78.107 26.9158 77.6867 26.7814 77.1233 26.7814H75.4853V29.8104ZM88.5352 30.8504C88.5352 31.1191 88.5179 31.3618 88.4832 31.5784H83.0102C83.0535 32.1504 83.2659 32.6098 83.6472 32.9564C84.0285 33.3031 84.4965 33.4764 85.0512 33.4764C85.8485 33.4764 86.4119 33.1428 86.7412 32.4754H88.3402C88.1235 33.1341 87.7292 33.6758 87.1572 34.1004C86.5939 34.5164 85.8919 34.7244 85.0512 34.7244C84.3665 34.7244 83.7512 34.5728 83.2052 34.2694C82.6679 33.9574 82.2432 33.5241 81.9312 32.9694C81.6279 32.4061 81.4762 31.7561 81.4762 31.0194C81.4762 30.2828 81.6235 29.6371 81.9182 29.0824C82.2215 28.5191 82.6419 28.0858 83.1792 27.7824C83.7252 27.4791 84.3492 27.3274 85.0512 27.3274C85.7272 27.3274 86.3295 27.4748 86.8582 27.7694C87.3869 28.0641 87.7985 28.4801 88.0932 29.0174C88.3879 29.5461 88.5352 30.1571 88.5352 30.8504ZM86.9882 30.3824C86.9795 29.8364 86.7845 29.3988 86.4032 29.0694C86.0219 28.7401 85.5495 28.5754 84.9862 28.5754C84.4749 28.5754 84.0372 28.7401 83.6732 29.0694C83.3092 29.3901 83.0925 29.8278 83.0232 30.3824H86.9882ZM89.2526 30.9934C89.2526 30.2741 89.4 29.6371 89.6946 29.0824C89.998 28.5278 90.4053 28.0988 90.9166 27.7954C91.4366 27.4834 92.0086 27.3274 92.6326 27.3274C93.196 27.3274 93.6856 27.4401 94.1016 27.6654C94.5263 27.8821 94.8643 28.1551 95.1156 28.4844V27.4444H96.6106V34.6074H95.1156V33.5414C94.8643 33.8794 94.522 34.1611 94.0886 34.3864C93.6553 34.6118 93.1613 34.7244 92.6066 34.7244C91.9913 34.7244 91.428 34.5684 90.9166 34.2564C90.4053 33.9358 89.998 33.4938 89.6946 32.9304C89.4 32.3584 89.2526 31.7128 89.2526 30.9934ZM95.1156 31.0194C95.1156 30.5254 95.0116 30.0964 94.8036 29.7324C94.6043 29.3684 94.34 29.0911 94.0106 28.9004C93.6813 28.7098 93.326 28.6144 92.9446 28.6144C92.5633 28.6144 92.208 28.7098 91.8786 28.9004C91.5493 29.0824 91.2806 29.3554 91.0726 29.7194C90.8733 30.0748 90.7736 30.4994 90.7736 30.9934C90.7736 31.4874 90.8733 31.9208 91.0726 32.2934C91.2806 32.6661 91.5493 32.9521 91.8786 33.1514C92.2166 33.3421 92.572 33.4374 92.9446 33.4374C93.326 33.4374 93.6813 33.3421 94.0106 33.1514C94.34 32.9608 94.6043 32.6834 94.8036 32.3194C95.0116 31.9468 95.1156 31.5134 95.1156 31.0194ZM97.8162 30.9934C97.8162 30.2741 97.9635 29.6371 98.2582 29.0824C98.5615 28.5278 98.9688 28.0988 99.4802 27.7954C100 27.4834 100.577 27.3274 101.209 27.3274C101.677 27.3274 102.137 27.4314 102.587 27.6394C103.047 27.8388 103.411 28.1074 103.679 28.4454V24.9874H105.174V34.6074H103.679V33.5284C103.437 33.8751 103.099 34.1611 102.665 34.3864C102.241 34.6118 101.751 34.7244 101.196 34.7244C100.572 34.7244 100 34.5684 99.4802 34.2564C98.9688 33.9358 98.5615 33.4938 98.2582 32.9304C97.9635 32.3584 97.8162 31.7128 97.8162 30.9934ZM103.679 31.0194C103.679 30.5254 103.575 30.0964 103.367 29.7324C103.168 29.3684 102.904 29.0911 102.574 28.9004C102.245 28.7098 101.89 28.6144 101.508 28.6144C101.127 28.6144 100.772 28.7098 100.442 28.9004C100.113 29.0824 99.8442 29.3554 99.6362 29.7194C99.4368 30.0748 99.3372 30.4994 99.3372 30.9934C99.3372 31.4874 99.4368 31.9208 99.6362 32.2934C99.8442 32.6661 100.113 32.9521 100.442 33.1514C100.78 33.3421 101.136 33.4374 101.508 33.4374C101.89 33.4374 102.245 33.3421 102.574 33.1514C102.904 32.9608 103.168 32.6834 103.367 32.3194C103.575 31.9468 103.679 31.5134 103.679 31.0194Z" fill="#0F0F0F"/>
</g>
<defs>
<clipPath id="clip0_518_951">
<rect width="466.44" height="281.818" fill="white"/>
</clipPath>
</defs>
</svg>
