<svg width="21" height="20" viewBox="0 0 21 20" fill="none" xmlns="http://www.w3.org/2000/svg">
<path d="M19.5066 0H0.848114C0.379713 0 0 0.370998 0 0.828647V19.0589C0 19.5165 0.379713 19.8875 0.848114 19.8875H10.8721V12.186H8.2195V9.18462H10.8721V6.97115C10.8721 4.40244 12.4778 3.00373 14.8231 3.00373C15.9466 3.00373 16.9121 3.08545 17.1935 3.12198V5.80643L15.5669 5.80715C14.2914 5.80715 14.0444 6.39934 14.0444 7.26834V9.18462H17.0864L16.6903 12.186H14.0444V19.8875H19.5066C19.975 19.8875 20.3547 19.5165 20.3547 19.0589V0.828647C20.3547 0.370998 19.975 0 19.5066 0Z" fill="white"/>
</svg>
