<svg width="21" height="20" viewBox="0 0 21 20" fill="none" xmlns="http://www.w3.org/2000/svg">
<path fill-rule="evenodd" clip-rule="evenodd" d="M0.848114 0H19.5066C19.9731 0 20.3547 0.372891 20.3547 0.828647V19.0589C20.3547 19.5146 19.9731 19.8875 19.5066 19.8875H0.848114C0.381651 19.8875 0 19.5146 0 19.0589V0.828647C0 0.372891 0.381651 0 0.848114 0ZM3.01039 16.9458H6.02119V7.45781H3.01039V16.9458ZM4.53746 6.1748C3.56213 6.1748 2.79883 5.42902 2.79883 4.47607C2.79883 3.52313 3.56213 2.77734 4.53746 2.77734C5.51279 2.77734 6.2761 3.52313 6.2761 4.47607C6.2761 5.38758 5.51279 6.1748 4.53746 6.1748ZM14.3334 16.9456H17.3018V11.7251C17.3018 9.15631 16.7506 7.20898 13.6974 7.20898C12.2556 7.20898 11.2378 7.9962 10.8562 8.74198H10.8138V7.45758H7.93018V16.9456H10.941V12.2637C10.941 11.0208 11.1954 9.81922 12.7644 9.81922C14.3334 9.81922 14.3334 11.2279 14.3334 12.3466V16.9456Z" fill="white"/>
</svg>
