<svg width="21" height="20" viewBox="0 0 21 20" fill="none" xmlns="http://www.w3.org/2000/svg">
<path fill-rule="evenodd" clip-rule="evenodd" d="M5.98132 0.0596626C7.06691 0.0116011 7.41336 0 10.1774 0C12.9414 0 13.2878 0.0116011 14.3734 0.0596626C16.0281 0.133412 17.4805 0.529506 18.6466 1.6689C19.8132 2.8087 20.2182 4.22817 20.2937 5.84404C20.3429 6.9047 20.3547 7.24321 20.3547 9.94377C20.3547 12.6443 20.3429 12.9828 20.2937 14.0435C20.2182 15.6602 19.8128 17.0793 18.6466 18.2186C17.4801 19.3584 16.0268 19.7541 14.3734 19.8279C13.2878 19.8759 12.9414 19.8875 10.1774 19.8875C7.41336 19.8875 7.06691 19.8759 5.98132 19.8279C4.32665 19.7541 2.87426 19.358 1.7081 18.2186C0.541521 17.0788 0.136546 15.6594 0.0610642 14.0435C0.0118736 12.9828 0 12.6443 0 9.94377C0 7.24321 0.0118736 6.9047 0.0610642 5.84404C0.136546 4.22734 0.541945 2.80829 1.7081 1.6689C2.87468 0.529091 4.3275 0.133412 5.98132 0.0596626ZM14.2905 1.84907C13.2172 1.80101 12.8953 1.79107 10.178 1.79107C7.46062 1.79107 7.13876 1.80143 6.06547 1.84907C4.90737 1.90086 3.83239 2.1275 3.00548 2.93543C2.17856 3.74336 1.94661 4.79367 1.8936 5.92519C1.84441 6.97384 1.83423 7.28831 1.83423 9.9433C1.83423 12.5983 1.84483 12.9128 1.8936 13.9614C1.94661 15.0929 2.17856 16.1432 3.00548 16.9512C3.83239 17.7591 4.90737 17.9857 6.06547 18.0375C7.13833 18.0856 7.46019 18.0955 10.178 18.0955C12.8958 18.0955 13.2176 18.0852 14.2905 18.0375C15.4486 17.9857 16.5236 17.7591 17.3505 16.9512C18.1774 16.1432 18.4093 15.0929 18.4624 13.9614C18.5115 12.9128 18.5217 12.5983 18.5217 9.9433C18.5217 7.28831 18.5111 6.97384 18.4624 5.92519C18.4093 4.79367 18.1774 3.74336 17.3505 2.93543C16.5236 2.1275 15.4486 1.90086 14.2905 1.84907Z" fill="white"/>
<path fill-rule="evenodd" clip-rule="evenodd" d="M5.55176 10.3957C5.55176 7.64996 7.82977 5.42383 10.6404 5.42383C13.4511 5.42383 15.7291 7.64956 15.7291 10.3957C15.7291 13.1419 13.4511 15.3676 10.6404 15.3676C7.82977 15.3676 5.55176 13.1415 5.55176 10.3957ZM7.33691 10.3954C7.33691 12.1778 8.81595 13.6229 10.6402 13.6229C12.4644 13.6229 13.9434 12.1778 13.9434 10.3954C13.9434 8.61306 12.4644 7.16797 10.6402 7.16797C8.81595 7.16797 7.33691 8.61306 7.33691 10.3954Z" fill="white"/>
<ellipse cx="15.2662" cy="4.9712" rx="1.38782" ry="1.35597" fill="white"/>
</svg>
