<svg width="20" height="17" viewBox="0 0 20 17" fill="none" xmlns="http://www.w3.org/2000/svg">
<path fill-rule="evenodd" clip-rule="evenodd" d="M19.2239 1.92212C18.503 2.26383 17.7421 2.4774 16.9411 2.60554C17.7421 2.09298 18.3829 1.28141 18.6632 0.298997C17.9023 0.768848 17.0612 1.11056 16.1401 1.32413C15.4192 0.512565 14.3779 0 13.2565 0C11.0938 0 9.33161 1.87941 9.33161 4.18595C9.33161 4.52766 9.37166 4.82666 9.45176 5.12565C6.20772 4.9548 3.28409 3.28896 1.32164 0.726134C1.00125 1.36684 0.800996 2.05026 0.800996 2.81911C0.800996 4.27138 1.48184 5.55279 2.56319 6.32164C1.92239 6.27893 1.32164 6.10807 0.760947 5.80907V5.85179C0.760947 7.90205 2.12264 9.6106 3.92488 9.99503C3.60448 10.0805 3.24404 10.1232 2.88359 10.1232C2.64329 10.1232 2.36294 10.0805 2.12264 10.0377C2.64329 11.7036 4.08508 12.9423 5.80722 12.9423C4.44553 14.0528 2.76344 14.7363 0.921146 14.7363C0.600747 14.7363 0.280349 14.7363 0 14.6935C1.76219 15.8895 3.80473 16.5729 6.04752 16.5729C13.2965 16.5729 17.2615 10.1659 17.2615 4.61309C17.2615 4.44223 17.2615 4.22866 17.2615 4.05781C18.0224 3.50253 18.7033 2.7764 19.2239 1.92212Z" fill="#C42630"/>
</svg>
