<svg width="171" height="16" viewBox="0 0 171 16" fill="none" xmlns="http://www.w3.org/2000/svg">
<path d="M2.5729 0.642228H6.87042L9.04371 9.53171H9.21197L14.3297 0.642228H18.6272L16.2436 15H12.8645L14.3297 6.18063H14.2105L9.31713 14.9089H7.16486L5.17385 6.13155H5.05466L3.56841 15H0.189287L2.5729 0.642228ZM21.5139 15H17.7842L25.0122 0.642228H29.6322L32.0929 15H28.3633L26.7859 4.25971H26.6737L21.5139 15ZM21.9626 9.34943H29.7584L29.3097 11.9854H21.5139L21.9626 9.34943ZM39.4015 0.642228L41.2663 5.17811H41.3785L44.7857 0.642228H48.8028L43.2924 7.82111L46.5593 15H42.6684L40.7335 10.415H40.6213L37.1721 15H33.127L38.7846 7.82111L35.6228 0.642228H39.4015ZM58.3092 0.642228L55.9256 15H52.4553L54.8389 0.642228H58.3092ZM72.7072 0.642228L70.3236 15H67.3792L63.0536 6.71343H62.9555L61.5744 15H58.1041L60.4877 0.642228H63.4742L67.7648 8.91477H67.8839L69.244 0.642228H72.7072ZM78.1493 0.642228L79.6145 11.1582H79.7337L84.6902 0.642228H88.5741L81.3461 15H76.7261L74.2654 0.642228H78.1493ZM87.7363 15L90.1199 0.642228H100.131L99.6544 3.4605H93.1134L92.6367 6.40497H98.6659L98.1891 9.23025H92.16L91.6833 12.1817H98.2242L97.7475 15H87.7363ZM114.524 0.642228L112.14 15H109.196L104.87 6.71343H104.772L103.391 15H99.9208L102.304 0.642228H105.291L109.581 8.91477H109.701L111.061 0.642228H114.524ZM115.76 3.4605L116.236 0.642228H128.372L127.895 3.4605H123.541L121.634 15H118.213L120.12 3.4605H115.76ZM141.736 8.04545C141.474 9.59247 140.96 10.8988 140.193 11.9644C139.432 13.0253 138.504 13.8292 137.41 14.3761C136.321 14.9229 135.15 15.1963 133.898 15.1963C132.575 15.1963 131.43 14.9019 130.463 14.313C129.495 13.7241 128.792 12.8664 128.352 11.7401C127.918 10.6137 127.834 9.24661 128.1 7.63884C128.352 6.09183 128.859 4.78317 129.621 3.71288C130.388 2.64259 131.32 1.8317 132.419 1.28019C133.522 0.724019 134.704 0.44593 135.966 0.44593C137.279 0.44593 138.417 0.742714 139.38 1.33628C140.348 1.92985 141.049 2.79215 141.483 3.9232C141.918 5.05425 142.002 6.42834 141.736 8.04545ZM138.265 7.63884C138.41 6.7368 138.41 5.97732 138.265 5.36038C138.125 4.74345 137.849 4.27841 137.438 3.96527C137.027 3.64745 136.492 3.48854 135.833 3.48854C135.104 3.48854 134.445 3.66848 133.856 4.02836C133.272 4.38357 132.783 4.90235 132.391 5.58472C131.998 6.26242 131.724 7.08266 131.57 8.04545C131.411 8.95684 131.407 9.71632 131.556 10.3239C131.71 10.9315 131.998 11.3895 132.419 11.698C132.839 12.0018 133.374 12.1537 134.024 12.1537C134.748 12.1537 135.4 11.9784 135.98 11.6279C136.559 11.2774 137.043 10.7656 137.431 10.0926C137.824 9.41954 138.102 8.60163 138.265 7.63884ZM142.605 15L144.989 0.642228H150.92C151.995 0.642228 152.892 0.836189 153.612 1.22411C154.331 1.60736 154.843 2.15886 155.147 2.87862C155.451 3.5937 155.521 4.44199 155.357 5.42348C155.198 6.41431 154.843 7.25793 154.292 7.95432C153.745 8.64603 153.039 9.17417 152.174 9.53872C151.315 9.90327 150.338 10.0855 149.244 10.0855H145.493L145.956 7.3514H149.062C149.581 7.3514 150.029 7.28363 150.408 7.14809C150.786 7.00788 151.088 6.79756 151.312 6.51714C151.541 6.23204 151.693 5.86749 151.768 5.42348C151.838 4.97947 151.805 4.61258 151.67 4.32281C151.539 4.02836 151.308 3.8087 150.976 3.66381C150.649 3.51425 150.228 3.43947 149.714 3.43947H148.003L146.075 15H142.605ZM151.775 8.43805L154.264 15H150.478L148.066 8.43805H151.775ZM156.863 0.642228H160.74L162.773 6.65034H162.92L166.937 0.642228H170.814L163.979 10.2047L163.179 15H159.73L160.536 10.2047L156.863 0.642228Z" fill="black"/>
</svg>
