<svg width="1920" height="1476" viewBox="0 0 1920 1476" fill="none" xmlns="http://www.w3.org/2000/svg">
<rect width="1920" height="1184" fill="#0F0F0F"/>
<mask id="mask0_48_52" style="mask-type:alpha" maskUnits="userSpaceOnUse" x="0" y="0" width="1920" height="1184">
<rect width="1920" height="1184" fill="#0F0F0F"/>
</mask>
<g mask="url(#mask0_48_52)">
<g opacity="0.0636858">
<mask id="mask1_48_52" style="mask-type:luminance" maskUnits="userSpaceOnUse" x="88" y="37" width="1368" height="1364">
<path fill-rule="evenodd" clip-rule="evenodd" d="M88.106 37.5684H1455V1400.9H88.106V37.5684Z" fill="white"/>
</mask>
<g mask="url(#mask1_48_52)">
<path fill-rule="evenodd" clip-rule="evenodd" d="M1452.51 604.502C1452.94 594.779 1448.41 585.651 1440.42 580.092L671.286 45.1085C665.088 40.7942 657.573 39.1474 650.128 40.4677C642.689 41.7922 636.207 45.9243 631.888 52.1099L95.6567 819.079C92.5813 823.477 90.8304 828.627 90.5971 833.962C90.173 843.688 94.6945 852.811 102.687 858.377L871.817 1393.36C878.021 1397.67 885.529 1399.32 892.977 1398C900.416 1396.67 906.899 1392.55 911.22 1386.36L1447.45 619.391C1450.53 614.99 1452.28 609.838 1452.51 604.502ZM88.1362 833.857C88.3922 828.053 90.296 822.46 93.6405 817.675L629.866 50.7058C634.565 43.9843 641.609 39.491 649.699 38.0515C657.79 36.6152 665.955 38.4062 672.696 43.0937L1441.83 578.079C1450.52 584.126 1455.43 594.043 1454.97 604.614C1454.71 610.415 1452.81 616.009 1449.47 620.797L913.238 1387.76C908.541 1394.48 901.5 1398.97 893.41 1400.41C885.321 1401.85 877.154 1400.06 870.409 1395.37L101.283 860.387C92.5915 854.344 87.674 844.425 88.1362 833.857Z" fill="white" fill-opacity="0.2"/>
</g>
<path fill-rule="evenodd" clip-rule="evenodd" d="M1416.78 596.765C1417.19 587.437 1412.89 578.626 1405.3 573.197L662.264 42.2446C656.283 37.9661 648.988 36.2695 641.725 37.4639C634.461 38.6604 628.103 42.6059 623.814 48.5724L91.6237 789.51C88.5016 793.861 86.7269 798.97 86.4947 804.289C86.0868 813.62 90.3805 822.432 97.9829 827.856L841.012 1358.82C853.37 1367.64 870.614 1364.8 879.459 1352.49L1411.65 611.546C1414.78 607.197 1416.55 602.083 1416.78 596.765ZM84.0358 804.179C84.2864 798.387 86.2207 792.819 89.6237 788.08L621.816 47.1453C626.483 40.644 633.412 36.3482 641.322 35.0442C649.232 33.7424 657.178 35.591 663.697 40.2481L1406.73 571.203C1415.01 577.118 1419.68 586.712 1419.24 596.872C1418.98 602.668 1417.06 608.24 1413.65 612.976L881.457 1353.91C871.823 1367.33 853.03 1370.42 839.577 1360.81L96.547 829.854C88.2699 823.941 83.59 814.344 84.0358 804.179Z" fill="white" fill-opacity="0.2"/>
<path fill-rule="evenodd" clip-rule="evenodd" d="M1381.06 589.029C1381.44 580.098 1377.37 571.601 1370.17 566.303L653.241 39.3826C641.336 30.6336 624.516 33.1731 615.743 45.0432L87.592 759.949C84.4179 764.241 82.6171 769.319 82.3849 774.626C81.9944 783.557 86.0646 792.051 93.2721 797.346L810.196 1324.27C815.968 1328.51 823.041 1330.25 830.125 1329.19C837.211 1328.12 843.452 1324.36 847.7 1318.61L1375.85 603.701C1379.03 599.411 1380.83 594.336 1381.06 589.029ZM79.9257 774.513C80.1795 768.719 82.142 763.18 85.6069 758.496L613.761 43.5875C623.338 30.6261 641.702 27.8544 654.698 37.4062L1371.63 564.327C1379.5 570.113 1383.94 579.39 1383.51 589.139C1383.26 594.933 1381.3 600.472 1377.83 605.16L849.68 1320.07C845.039 1326.34 838.23 1330.45 830.494 1331.61C822.763 1332.78 815.037 1330.87 808.743 1326.25L91.812 799.325C83.9449 793.541 79.4994 784.268 79.9257 774.513Z" fill="white" fill-opacity="0.2"/>
<path fill-rule="evenodd" clip-rule="evenodd" d="M1345.34 581.289C1345.71 572.748 1341.86 564.571 1335.05 559.408L644.217 36.5173C638.664 32.3158 631.808 30.5215 624.904 31.4643C618.006 32.4059 611.883 35.9738 607.674 41.5096L83.5519 730.388C80.3289 734.63 78.501 739.663 78.27 744.956C77.8968 753.494 81.7435 761.672 88.5627 766.834L779.397 1289.73C790.849 1298.39 807.242 1296.16 815.937 1284.73L1340.06 595.858C1343.28 591.619 1345.11 586.583 1345.34 581.289ZM75.8131 744.846C76.0637 739.053 78.0641 733.538 81.593 728.903L605.71 40.0261C610.321 33.9685 617.019 30.0653 624.57 29.0315C632.123 28.0009 639.626 29.9655 645.703 34.5619L1336.53 557.455C1343.99 563.102 1348.2 572.052 1347.8 581.398C1347.54 587.191 1345.55 592.706 1342.02 597.343L817.897 1286.22C808.381 1298.72 790.443 1301.17 777.905 1291.68L87.0778 768.788C79.6143 763.139 75.403 754.195 75.8131 744.846Z" fill="white" fill-opacity="0.2"/>
<path fill-rule="evenodd" clip-rule="evenodd" d="M1309.62 573.553C1309.98 565.399 1306.35 557.534 1299.91 552.512L635.19 33.651C629.856 29.4896 623.217 27.6454 616.495 28.4634C609.77 29.2803 603.773 32.6584 599.599 37.9772L79.5141 700.824C76.2347 705 74.3818 709.996 74.1507 715.281C73.7938 723.433 77.4247 731.298 83.8577 736.322L748.584 1255.18C753.921 1259.34 760.556 1261.19 767.28 1260.37C774.003 1259.55 780.003 1256.17 784.178 1250.85L1304.26 588.01C1307.54 583.836 1309.39 578.833 1309.62 573.553ZM71.6914 715.171C71.9474 709.373 73.9793 703.894 77.5754 699.305L597.661 36.4645C602.239 30.6303 608.824 26.9235 616.195 26.0285C623.571 25.1314 630.853 27.1524 636.708 31.7206L1301.43 550.58C1308.49 556.089 1312.47 564.717 1312.08 573.659C1311.83 579.457 1309.79 584.943 1306.2 589.527L786.116 1252.37C781.537 1258.21 774.952 1261.92 767.579 1262.8C760.204 1263.71 752.918 1261.68 747.071 1257.12L82.3399 738.256C75.2821 732.745 71.3019 724.116 71.6914 715.171Z" fill="white" fill-opacity="0.2"/>
<path fill-rule="evenodd" clip-rule="evenodd" d="M1273.92 565.815C1274.26 558.048 1270.85 550.5 1264.79 545.619L626.163 30.7879C615.6 22.2721 600.061 23.9124 591.526 34.4459L75.4733 671.266C72.144 675.373 70.2554 680.337 70.0243 685.61C69.6837 693.38 73.0987 700.926 79.152 705.808L717.778 1220.64C722.897 1224.77 729.318 1226.65 735.857 1225.97C742.402 1225.27 748.283 1222.08 752.415 1216.98L1268.47 580.165C1271.8 576.052 1273.69 571.088 1273.92 565.815ZM67.5672 685.503C67.8189 679.702 69.8941 674.245 73.5619 669.719L589.611 32.9025C598.998 21.3167 616.089 19.5116 627.709 28.8768L1266.34 543.711C1273 549.074 1276.75 557.379 1276.38 565.921C1276.12 571.72 1274.05 577.179 1270.38 581.709L754.331 1218.52C749.786 1224.14 743.313 1227.64 736.12 1228.4C728.923 1229.17 721.86 1227.09 716.233 1222.55L77.6061 707.716C70.9453 702.35 67.193 694.044 67.5672 685.503Z" fill="white" fill-opacity="0.2"/>
<path fill-rule="evenodd" clip-rule="evenodd" d="M1238.22 558.075C1238.55 550.584 1235.43 543.528 1229.67 538.721L617.141 27.9193C612.236 23.8349 606.038 21.8942 599.673 22.4605C593.31 23.0257 587.551 26.0295 583.455 30.9166L71.4388 641.701C68.0412 645.754 66.1243 650.674 65.8954 655.936C65.5689 663.431 68.691 670.49 74.4513 675.295L686.978 1186.1C697.097 1194.53 712.205 1193.19 720.662 1183.1L1232.67 572.316C1236.07 568.266 1237.99 563.342 1238.22 558.075ZM63.439 655.826C63.6896 650.026 65.8039 644.594 69.5487 640.124L581.564 29.3412C586.084 23.9497 592.435 20.6377 599.454 20.0161C606.471 19.3913 613.313 21.5316 618.718 26.038L1231.24 536.835C1237.6 542.138 1241.04 549.916 1240.68 558.185C1240.43 563.995 1238.31 569.422 1234.56 573.888L722.55 1184.67C713.22 1195.8 696.557 1197.28 685.396 1187.98L72.8715 677.183C66.5134 671.879 63.0745 664.097 63.439 655.826Z" fill="white" fill-opacity="0.2"/>
<path fill-rule="evenodd" clip-rule="evenodd" d="M1202.53 550.341C1202.84 543.226 1199.93 536.48 1194.54 531.82L608.114 25.0572C603.429 21.0043 597.444 19.0158 591.258 19.4584C585.074 19.8989 579.437 22.7129 575.375 27.3852L67.4017 612.138C63.9368 616.126 61.9863 621.009 61.7563 626.268C61.445 633.381 64.3588 640.131 69.7449 644.789L656.169 1151.56C660.857 1155.6 666.842 1157.59 673.027 1157.15C679.206 1156.71 684.845 1153.9 688.905 1149.23L1196.88 564.469C1200.35 560.486 1202.3 555.599 1202.53 550.341ZM59.2969 626.161C59.5508 620.343 61.7128 614.94 65.5411 610.533L573.516 25.7778C578.006 20.6086 584.244 17.4952 591.083 17.0092C597.924 16.521 604.545 18.72 609.725 23.1992L1196.15 529.964C1202.11 535.118 1205.33 542.583 1204.99 550.448C1204.73 556.262 1202.57 561.667 1198.75 566.081L690.764 1150.83C686.279 1156 680.039 1159.11 673.201 1159.6C666.362 1160.08 659.74 1157.89 654.562 1153.41L68.1338 646.641C62.1728 641.49 58.9552 634.027 59.2969 626.161Z" fill="white" fill-opacity="0.2"/>
<path fill-rule="evenodd" clip-rule="evenodd" d="M1166.84 542.602C1167.14 535.869 1164.43 529.425 1159.41 524.92L599.08 22.1829C594.614 18.1724 588.846 16.1394 582.842 16.4562C576.84 16.7708 571.317 19.3982 567.299 23.8557L63.3568 582.58C59.8735 586.438 57.8318 591.419 57.6051 596.597C57.3133 603.329 60.0232 609.775 65.0404 614.276L625.365 1117.02C629.83 1121.02 635.598 1123.06 641.607 1122.75C647.605 1122.43 653.126 1119.8 657.149 1115.35L1161.09 556.621C1164.57 552.763 1166.62 547.78 1166.84 542.602ZM55.1458 596.492C55.3997 590.745 57.6615 585.218 61.5278 580.94L565.469 22.2151C569.926 17.2727 576.052 14.3546 582.714 14.0042C589.375 13.6538 595.772 15.9134 600.73 20.3612L1161.05 523.099C1166.62 528.093 1169.63 535.242 1169.3 542.71C1169.05 548.457 1166.78 553.977 1162.92 558.265L658.977 1116.99C654.519 1121.93 648.394 1124.85 641.734 1125.2C635.076 1125.55 628.676 1123.29 623.719 1118.84L63.3937 616.098C57.8253 611.108 54.8226 603.958 55.1458 596.492Z" fill="white" fill-opacity="0.2"/>
<path fill-rule="evenodd" clip-rule="evenodd" d="M1131.17 534.865C1131.45 528.506 1128.94 522.367 1124.28 518.019L590.055 19.3153C585.802 15.3427 580.248 13.2598 574.428 13.4529C568.605 13.645 563.203 16.0858 559.219 20.3296L59.3159 553.022C55.7599 556.81 53.677 561.749 53.4503 566.929C53.1737 573.289 55.6839 579.427 60.3345 583.774L594.562 1082.48C603.341 1090.68 617.176 1090.22 625.395 1081.47L1125.3 548.772C1128.86 544.983 1130.94 540.045 1131.17 534.865ZM50.9911 566.823C51.2449 561.058 53.5632 555.561 57.5173 551.345L557.424 18.653C561.854 13.9308 567.862 11.2134 574.343 11.0008C580.825 10.7881 587.002 13.1031 591.737 17.5248L1125.96 516.231C1131.14 521.066 1133.93 527.896 1133.63 534.973C1133.37 540.735 1131.06 546.231 1127.1 550.452L627.19 1083.15C618.044 1092.89 602.649 1093.39 592.88 1084.27L58.6553 585.564C53.4764 580.73 50.6841 573.895 50.9911 566.823Z" fill="white" fill-opacity="0.2"/>
<path fill-rule="evenodd" clip-rule="evenodd" d="M1095.5 527.128C1095.76 521.142 1093.45 515.305 1089.15 511.12L581.027 16.4426C572.686 8.32495 559.278 8.48658 551.139 16.8028L55.2692 523.465C51.6351 527.172 49.5067 532.077 49.2821 537.254C49.0185 543.247 51.3357 549.08 55.6348 553.266L563.756 1047.95C572.099 1056.06 585.503 1055.89 593.639 1047.58L1089.51 540.924C1093.14 537.21 1095.27 532.309 1095.5 527.128ZM46.8249 537.144C47.0755 531.364 49.4523 525.893 53.5084 521.747L549.381 15.0854C558.467 5.80264 573.432 5.62365 582.742 14.6884L1090.87 509.363C1095.66 514.034 1098.25 520.55 1097.96 527.237C1097.71 533.021 1095.33 538.493 1091.27 542.639L595.4 1049.3C586.315 1058.58 571.349 1058.76 562.036 1049.7L53.9185 555.018C49.1182 550.348 46.5331 543.833 46.8249 537.144Z" fill="white" fill-opacity="0.2"/>
<path fill-rule="evenodd" clip-rule="evenodd" d="M1059.84 519.389C1060.09 513.763 1057.96 508.235 1054.02 504.218L571.995 13.5688C564.096 5.53142 551.118 5.39799 543.06 13.2705L51.225 493.899C47.5073 497.534 45.3312 502.392 45.1023 507.583C44.8582 513.208 46.9866 518.736 50.9332 522.757L532.949 1013.41C540.851 1021.45 553.827 1021.57 561.889 1013.7L1053.72 533.072C1057.44 529.438 1059.62 524.576 1059.84 519.389ZM42.6443 507.474C42.8993 501.664 45.339 496.221 49.5036 492.147L541.336 11.5166C550.365 2.69706 564.904 2.84785 573.751 11.8507L1055.78 502.497C1060.2 506.999 1062.58 513.195 1062.3 519.495C1062.05 525.31 1059.61 530.751 1055.44 534.825L563.613 1015.46C554.59 1024.27 540.044 1024.13 531.197 1015.12L49.1738 524.479C44.7521 519.974 42.3699 513.774 42.6443 507.474Z" fill="white" fill-opacity="0.2"/>
<path fill-rule="evenodd" clip-rule="evenodd" d="M1024.2 511.655C1024.43 506.311 1022.55 501.215 1018.88 497.307L562.959 10.6968C559.353 6.84354 554.451 4.61967 549.168 4.44068C543.881 4.26169 538.841 6.14709 534.977 9.74651L47.1807 464.345C43.3676 467.898 41.1448 472.714 40.917 477.913C40.6837 483.255 42.5691 488.351 46.2293 492.259L502.153 978.87C509.608 986.826 522.159 987.247 530.138 979.818L1017.94 525.22C1021.75 521.67 1023.97 516.851 1024.2 511.655ZM38.4584 477.801C38.7144 471.955 41.2128 466.547 45.4945 462.555L533.297 7.95323C537.642 3.90362 543.305 1.78606 549.252 1.98892C555.194 2.18961 560.7 4.68794 564.764 9.02069L1020.68 495.633C1024.8 500.026 1026.92 505.755 1026.66 511.762C1026.41 517.607 1023.9 523.024 1019.62 527.013L531.817 981.615C522.854 989.967 508.737 989.493 500.354 980.551L44.4336 493.934C40.32 489.537 38.1937 483.814 38.4584 477.801Z" fill="white" fill-opacity="0.2"/>
<path fill-rule="evenodd" clip-rule="evenodd" d="M988.566 503.918C988.786 498.93 987.074 494.135 983.752 490.403L553.93 7.82128C546.915 -0.0533892 534.786 -0.772622 526.89 6.21901L43.1268 434.791C39.2182 438.252 36.9412 443.026 36.7144 448.239C36.4975 453.222 38.2071 458.026 41.531 461.756L471.352 944.339C478.367 952.216 490.492 952.935 498.393 945.938L982.153 517.369C986.063 513.907 988.341 509.128 988.566 503.918ZM34.2534 448.132C34.5116 442.255 37.0837 436.863 41.4956 432.956L525.256 4.38397C534.164 -3.50589 547.853 -2.69554 555.77 6.19018L985.593 488.776C989.341 492.984 991.274 498.399 991.027 504.026C990.77 509.908 988.198 515.296 983.79 519.205L500.025 947.781C491.114 955.665 477.425 954.858 469.507 945.969L39.6894 463.391C35.9392 459.177 34.0082 453.76 34.2534 448.132Z" fill="white" fill-opacity="0.2"/>
<path fill-rule="evenodd" clip-rule="evenodd" d="M952.953 496.183C953.156 491.551 951.615 487.042 948.621 483.492L544.9 4.94169C541.718 1.16653 537.248 -1.14738 532.321 -1.56937C527.391 -1.99353 522.591 -0.480216 518.807 2.69612L39.0788 405.238C35.1247 408.555 32.7294 413.413 32.5027 418.567C32.3009 423.2 33.8359 427.705 36.8322 431.259L440.553 909.811C447.125 917.601 458.834 918.608 466.647 912.052L946.375 509.516C950.329 506.198 952.727 501.337 952.953 496.183ZM30.0426 418.461C30.2986 412.618 33.015 407.116 37.492 403.36L517.221 0.817642C521.513 -2.77852 526.946 -4.49687 532.531 -4.01521C538.116 -3.53464 543.176 -0.913723 546.783 3.36153L950.502 481.914C953.897 485.937 955.638 491.042 955.41 496.289C955.157 502.129 952.439 507.635 947.959 511.396L468.23 913.933C459.379 921.36 446.116 920.218 438.671 911.391L34.9525 432.836C31.557 428.814 29.8137 423.709 30.0426 418.461Z" fill="white" fill-opacity="0.2"/>
<path fill-rule="evenodd" clip-rule="evenodd" d="M917.349 488.446C917.536 484.157 916.164 479.945 913.488 476.58L535.866 2.06202C532.893 -1.67299 528.64 -4.03247 523.889 -4.57813C519.139 -5.12488 514.463 -3.79272 510.721 -0.831178L35.0245 375.681C30.9597 378.899 28.4993 383.713 28.2715 388.895C28.0871 393.178 29.4572 397.391 32.1335 400.761L409.75 875.281C415.888 882.994 427.169 884.29 434.903 878.169L910.593 501.664C914.661 498.445 917.124 493.625 917.349 488.446ZM25.812 388.786C26.0658 382.896 28.869 377.421 33.4979 373.758L509.187 -2.75248C513.447 -6.123 518.767 -7.6374 524.171 -7.0158C529.574 -6.3942 534.412 -3.71254 537.795 0.537768L915.414 475.057C918.459 478.883 920.021 483.679 919.807 488.556C919.549 494.445 916.753 499.925 912.124 503.584L436.426 880.096C427.644 887.054 414.806 885.579 407.825 876.808L30.2044 402.291C27.1615 398.457 25.5993 393.662 25.812 388.786Z" fill="white" fill-opacity="0.2"/>
<path fill-rule="evenodd" clip-rule="evenodd" d="M881.765 480.717C881.937 476.768 880.725 472.845 878.354 469.668L526.834 -0.820033C521.133 -8.44737 510.275 -10.0323 502.624 -4.35111L30.9755 346.13C26.7849 349.24 24.2508 354.012 24.024 359.218C23.8537 363.167 25.0665 367.087 27.4358 370.27L378.958 840.761C384.656 848.387 395.515 849.97 403.16 844.289L874.82 493.81C879.008 490.699 881.536 485.928 881.765 480.717ZM21.5642 359.112C21.8235 353.161 24.7199 347.714 29.5029 344.155L501.154 -6.31901C509.89 -12.8105 522.296 -11 528.807 -2.28567L880.324 468.203C883.033 471.83 884.423 476.312 884.223 480.825C883.964 486.775 881.071 492.224 876.287 495.781L404.633 846.256C395.896 852.746 383.493 850.933 376.982 842.226L25.4619 371.736C22.7532 368.105 21.3678 363.622 21.5642 359.112Z" fill="white" fill-opacity="0.2"/>
<path fill-rule="evenodd" clip-rule="evenodd" d="M846.195 472.984C846.354 469.313 845.327 465.774 843.219 462.75L517.799 -3.70891C512.536 -11.2549 502.099 -13.124 494.53 -7.87785L26.9106 316.572C22.5941 319.568 19.9862 324.293 19.7573 329.539C19.5989 333.21 20.6295 336.746 22.7384 339.768L348.154 806.232C353.417 813.783 363.853 815.65 371.423 810.399L839.044 485.953C843.361 482.959 845.965 478.228 846.195 472.984ZM17.2998 329.431C17.5612 323.415 20.5542 317.991 25.5086 314.556L493.124 -9.89065C501.805 -15.9103 513.779 -13.7667 519.817 -5.11096L845.236 461.349C847.655 464.818 848.839 468.876 848.652 473.09C848.391 479.108 845.401 484.531 840.453 487.969L372.826 812.419C364.148 818.438 352.172 816.294 346.135 807.638L20.718 341.176C18.2967 337.708 17.1153 333.649 17.2998 329.431Z" fill="white" fill-opacity="0.2"/>
<path fill-rule="evenodd" clip-rule="evenodd" d="M810.652 465.256C810.799 461.911 809.914 458.655 808.083 455.833L508.766 -6.59744C503.935 -14.0555 493.919 -16.2111 486.436 -11.3967L22.852 287.018C18.4607 289.849 15.6998 294.65 15.4742 299.866C15.3288 303.208 16.2183 306.463 18.0463 309.284L317.361 771.721C322.19 779.176 332.205 781.33 339.69 776.513L803.276 478.098C807.665 475.271 810.421 470.471 810.652 465.256ZM13.0154 299.758C13.2779 293.746 16.4575 288.214 21.5182 284.959L485.101 -13.4586C493.721 -19.0085 505.265 -16.5243 510.833 -7.92606L810.148 454.502C812.255 457.754 813.278 461.509 813.11 465.362C812.848 471.371 809.67 476.906 804.606 480.159L341.023 778.577C332.403 784.125 320.859 781.645 315.294 773.049L15.9726 310.621C13.8724 307.366 12.8462 303.612 13.0154 299.758Z" fill="white" fill-opacity="0.2"/>
<path fill-rule="evenodd" clip-rule="evenodd" d="M775.123 457.523C775.256 454.504 774.501 451.524 772.948 448.911L499.733 -9.48806C495.332 -16.8659 485.733 -19.3035 478.336 -14.9197L18.79 257.467C14.2468 260.158 11.3948 264.915 11.1648 270.186C11.0324 273.209 11.7875 276.187 13.3442 278.803L286.56 737.201C290.96 744.58 300.557 747.018 307.952 742.629L767.503 470.244C772.046 467.552 774.893 462.797 775.123 457.523ZM8.70767 270.079C8.97453 263.975 12.2713 258.471 17.5294 255.358L477.075 -17.0297C485.643 -22.1056 496.754 -19.2829 501.843 -10.741L775.059 447.654C776.864 450.682 777.734 454.128 777.583 457.634C777.316 463.737 774.017 469.239 768.76 472.358L309.21 744.744C300.648 749.816 289.535 746.997 284.445 738.456L11.2277 280.057C9.42581 277.032 8.55471 273.578 8.70767 270.079Z" fill="white" fill-opacity="0.2"/>
<path fill-rule="evenodd" clip-rule="evenodd" d="M739.624 449.798C739.742 447.086 739.117 444.382 737.808 441.983L490.693 -12.3838C486.725 -19.6803 477.548 -22.3988 470.228 -18.4425L14.7177 227.909C10.0139 230.455 7.06645 235.161 6.83322 240.502C6.71389 243.215 7.33983 245.918 8.64594 248.319L255.764 702.686C259.732 709.981 268.909 712.701 276.228 708.744L731.739 462.388C736.444 459.844 739.392 455.14 739.624 449.798ZM4.37512 240.396C4.64199 234.279 8.15462 228.67 13.5461 225.756L469.058 -20.6006C477.566 -25.2002 488.244 -22.039 492.859 -13.5525L739.974 440.812C741.493 443.608 742.217 446.746 742.084 449.905C741.814 456.021 738.299 461.631 732.915 464.548L277.399 710.903C268.891 715.504 258.215 712.343 253.598 703.853L6.48617 249.489C4.96635 246.694 4.23627 243.551 4.37512 240.396Z" fill="white" fill-opacity="0.2"/>
<mask id="mask2_48_52" style="mask-type:luminance" maskUnits="userSpaceOnUse" x="0" y="-26" width="707" height="705">
<path fill-rule="evenodd" clip-rule="evenodd" d="M0 -25.8984H706.63V678.796H0V-25.8984Z" fill="white"/>
</mask>
<g mask="url(#mask2_48_52)">
<path fill-rule="evenodd" clip-rule="evenodd" d="M704.154 442.073C704.258 439.663 703.746 437.237 702.671 435.054L481.657 -15.2817C478.122 -22.4946 469.358 -25.4941 462.125 -21.9652L10.6458 198.361C5.83683 200.707 2.70822 205.481 2.47498 210.819C2.36976 213.231 2.87854 215.659 3.95142 217.843L224.965 668.179C228.507 675.39 237.266 678.389 244.499 674.858L695.979 454.538C700.785 452.189 703.919 447.414 704.154 442.073ZM0.016012 210.712C0.288301 204.474 3.94955 198.895 9.56239 196.157L461.042 -24.1699C469.493 -28.2911 479.735 -24.7894 483.873 -16.3603L704.89 433.976C706.14 436.526 706.737 439.363 706.615 442.182C706.341 448.421 702.683 454.001 697.062 456.741L245.583 677.063C237.131 681.191 226.892 677.688 222.756 669.258L1.73761 218.92C0.486822 216.374 -0.107657 213.533 0.016012 210.712Z" fill="white" fill-opacity="0.2"/>
</g>
</g>
</g>
<g filter="url(#filter0_f_48_52)">
<circle cx="1896" cy="916" r="140" fill="#C42630"/>
</g>
<defs>
<filter id="filter0_f_48_52" x="1336" y="356" width="1120" height="1120" filterUnits="userSpaceOnUse" color-interpolation-filters="sRGB">
<feFlood flood-opacity="0" result="BackgroundImageFix"/>
<feBlend mode="normal" in="SourceGraphic" in2="BackgroundImageFix" result="shape"/>
<feGaussianBlur stdDeviation="210" result="effect1_foregroundBlur_48_52"/>
</filter>
</defs>
</svg>
