<svg width="160" height="160" viewBox="0 0 160 160" fill="none" xmlns="http://www.w3.org/2000/svg">
<path d="M88.1611 67.2754L89.2656 55.9661L94.0639 58.3895L99.3954 58.8742L104.194 57.9048L107.926 54.5121L110.058 64.0864V72.9298L89.2656 73.4145L88.1611 67.2754Z" fill="white" stroke="#0F0F0F" stroke-width="1.07693"/>
<path d="M83.0159 47.207C77.4008 45.4793 78.8765 42.1678 80.3163 40.728L87.3349 31.0096L113.251 36.9487L111.091 51.5263C108.931 60.1648 101.912 62.3245 98.673 62.3245C88.7386 62.7564 84.0956 52.4261 83.0159 47.207Z" fill="white" stroke="#0F0F0F" stroke-width="1.07982"/>
<path d="M85.175 43.9675C86.7947 42.8877 90.0211 38.6208 91.1133 34.7891C101.682 39.5403 110.551 39.6482 115.41 36.9487C123.509 29.9298 114.87 19.6715 107.311 17.5119C96.1344 15.1888 88.6935 18.3777 86.5675 23.6927C84.6907 22.5666 82.2567 24.0774 80.4813 25.5694C79.2408 26.6119 78.1912 27.9117 77.6775 29.4486C74.9039 37.7465 83.6867 44.9598 85.175 43.9675Z" fill="#0F0F0F"/>
<path d="M66.3885 89.4123C65.0915 74.233 80.9223 66.7533 88.2175 65.0505C89.2911 68.5939 91.7298 70.5228 94.1996 71.4993C97.5889 72.8394 101.702 73.0522 104.814 71.1558C107.873 69.2918 109.551 65.743 110.103 63.591C115.412 63.2233 121.642 65.7307 126.608 68.4883C131.364 71.1299 134.369 75.9185 135.774 81.1747L144.147 112.486C146.741 127.081 134.42 129.757 127.935 129.271V143.279H65.8389V115.816L66.3885 89.4123Z" fill="black"/>
<path d="M131.95 89.4123C133.247 74.233 117.417 66.7533 110.121 65.0505C109.048 68.5939 106.609 70.5228 104.139 71.4993C100.75 72.8394 96.637 73.0522 93.5247 71.1558C90.4655 69.2918 88.7878 65.743 88.2362 63.591C82.9273 63.2233 76.6968 65.7307 71.7312 68.4883C66.9746 71.1299 63.9699 75.9185 62.5644 81.1747L54.192 112.486C51.5981 127.081 63.9189 129.757 70.4035 129.271V143.279H132.5V115.816L131.95 89.4123Z" fill="black"/>
<path d="M102.593 122.721H83.2744L53.3213 75.6183L66.9102 66.2101L102.593 122.721Z" fill="white" stroke="black"/>
<path d="M66.555 65.839L52.8922 74.8389L50.1922 70.7401L40.5606 68.7583L36.1747 41.281L39.5904 39.0311L63.4539 52.2088L62.1716 58.441L66.555 65.839Z" fill="white" stroke="black" stroke-width="1.15687"/>
<path d="M38.2232 39.9311L44.4066 50.0616" stroke="black" stroke-width="1.15687" stroke-linecap="square"/>
<circle cx="48.007" cy="55.5266" r="3.47062" transform="rotate(-78.3736 48.007 55.5266)" fill="black"/>
<path d="M17.7901 49.4903L22.4387 48.6559L21.6044 44.0073L16.9558 44.8416L17.7901 49.4903ZM55.7378 20.306L51.0607 19.6492L50.404 24.3262L55.081 24.983L55.7378 20.306ZM20.1721 47.0791C20.3779 46.7833 20.8228 46.3334 21.5224 45.7319C22.2098 45.1409 23.1054 44.435 24.1756 43.6299C26.3157 42.0201 29.128 40.0331 32.3153 37.8071C38.6828 33.3598 46.5353 27.9666 53.419 22.778L52.7227 21.8542C45.8605 27.0264 38.0324 32.403 31.6528 36.8586C28.4665 39.084 25.6386 41.0818 23.4802 42.7054C22.4012 43.5171 21.483 44.2401 20.7682 44.8547C20.0656 45.4587 19.5198 45.991 19.2224 46.4185L20.1721 47.0791Z" fill="black"/>
<rect x="32.9092" y="37.0657" width="3.47062" height="3.47062" transform="rotate(-78.3736 32.9092 37.0657)" fill="black"/>
<path d="M111.094 124.146V113.679L104.466 107.653C104.116 107.335 103.621 107.23 103.172 107.38L103.125 107.396C102.46 107.617 102.088 108.323 102.28 108.996L102.92 111.235C103.104 111.88 102.771 112.56 102.148 112.809L97.5255 114.658C97.0288 114.857 96.7031 115.338 96.7031 115.873V119.239V122.241C96.7031 122.941 97.2533 123.516 97.952 123.548L111.094 124.146Z" fill="white" stroke="black" stroke-width="1.3083"/>
<path d="M77.5003 124.146V113.679L84.129 107.653C84.4792 107.335 84.9739 107.23 85.4228 107.38L85.47 107.396C86.1345 107.617 86.5067 108.323 86.3143 108.996L85.6746 111.235C85.4902 111.88 85.8237 112.56 86.4466 112.809L91.0692 114.658C91.5659 114.857 91.8916 115.338 91.8916 115.873V119.239V122.241C91.8916 122.941 91.3414 123.516 90.6427 123.548L77.5003 124.146Z" fill="white" stroke="black" stroke-width="1.3083"/>
<path d="M54 76L67 67" stroke="black"/>
</svg>
