<svg width="160" height="160" viewBox="0 0 160 160" fill="none" xmlns="http://www.w3.org/2000/svg">
<path d="M104.964 50.9555H90.5014V52.4018C90.5014 53.1972 89.8506 53.848 89.0552 53.848C88.2598 53.848 87.609 53.1972 87.609 52.4018V48.0631C87.609 46.4723 88.9106 45.1851 90.5014 45.1851L104.964 45.1707C106.554 45.1707 107.856 46.4723 107.856 48.0631V52.4018C107.856 53.1972 107.205 53.848 106.41 53.848C105.614 53.848 104.964 53.1972 104.964 52.4018V50.9555ZM91.7741 66.6905L87.1896 62.1059C87.0555 61.9721 86.9491 61.8132 86.8765 61.6383C86.804 61.4633 86.7666 61.2757 86.7666 61.0863C86.7666 60.8969 86.804 60.7094 86.8765 60.5344C86.9491 60.3595 87.0555 60.2005 87.1896 60.0668L91.7741 55.4822C92.3381 54.9182 93.2637 54.9182 93.8277 55.4822C93.9618 55.616 94.0682 55.7749 94.1407 55.9499C94.2133 56.1249 94.2507 56.3124 94.2507 56.5018C94.2507 56.6912 94.2133 56.8788 94.1407 57.0537C94.0682 57.2287 93.9618 57.3876 93.8277 57.5214L90.2556 61.0791L93.8277 64.6513C93.9618 64.7851 94.0682 64.944 94.1407 65.1189C94.2133 65.2939 94.2507 65.4815 94.2507 65.6709C94.2507 65.8603 94.2133 66.0478 94.1407 66.2228C94.0682 66.3977 93.9618 66.5567 93.8277 66.6905C93.2637 67.2545 92.3381 67.2545 91.7741 66.6905ZM101.652 64.6368L105.209 61.0791L101.652 57.5214C101.518 57.3876 101.411 57.2287 101.339 57.0537C101.266 56.8788 101.229 56.6912 101.229 56.5018C101.229 56.3124 101.266 56.1249 101.339 55.9499C101.411 55.7749 101.518 55.616 101.652 55.4822C102.216 54.9182 103.141 54.9182 103.705 55.4822L108.29 60.0668C108.424 60.2005 108.53 60.3595 108.603 60.5344C108.676 60.7094 108.713 60.8969 108.713 61.0863C108.713 61.2757 108.676 61.4633 108.603 61.6383C108.53 61.8132 108.424 61.9721 108.29 62.1059L103.705 66.6905C103.141 67.2545 102.216 67.2545 101.652 66.6905C101.073 66.1264 101.088 65.2008 101.652 64.6368ZM90.5014 71.2027H104.964V69.7564C104.964 68.961 105.614 68.3102 106.41 68.3102C107.205 68.3102 107.856 68.961 107.856 69.7564V74.0951C107.856 75.686 106.554 76.9876 104.964 76.9876H90.5014C88.9106 76.9876 87.609 75.686 87.609 74.0951V69.7564C87.609 68.961 88.2598 68.3102 89.0552 68.3102C89.8506 68.3102 90.5014 68.961 90.5014 69.7564V71.2027Z" fill="#0F0F0F"/>
<path d="M72.1316 103.62L57.2554 111.303C56.765 110.268 55.7842 108.132 55.7842 107.87C55.7842 107.608 56.765 102.639 57.2554 100.187L61.1788 98.225L70.4968 98.552L72.1316 103.62Z" fill="#040707"/>
<path d="M156.259 87.3547L156.258 87.3557C156.628 87.3583 156.993 87.4478 157.321 87.6184C157.65 87.789 157.934 88.0354 158.148 88.3372C158.363 88.6388 158.502 88.9873 158.555 89.3538C158.607 89.7205 158.572 90.0947 158.45 90.4446L143.565 133.303L143.385 133.824H71.5439L71.5742 133.02L71.7383 128.659L71.7432 128.534L71.7871 128.417L86.832 88.2532C86.9998 87.8041 87.3026 87.4183 87.6982 87.1477C88.0934 86.8775 88.5624 86.7358 89.041 86.7405L89.042 86.7395L156.259 87.3547Z" fill="#0F0F0F" stroke="white" stroke-width="1.55026"/>
<path d="M72.5116 128.689L86.436 91.1929L87.3113 88.8491C87.419 88.4216 87.6575 88.038 87.9939 87.7511C88.3518 87.4808 88.7994 87.3552 89.2466 87.3997L94.2695 87.4396L154.564 87.9228H155.817C156.034 87.9228 156.218 87.9228 156.471 87.9228C156.759 87.9692 157.031 88.0835 157.265 88.256C157.499 88.4284 157.687 88.6541 157.816 88.9141C157.944 89.1741 158.007 89.4608 158.001 89.7503C157.995 90.0398 157.919 90.3236 157.78 90.578C157.102 92.6503 143.968 130.147 142.924 133.173C142.876 133.237 107.648 133.081 107.592 133.133C107.592 133.133 72.3149 133.062 72.335 133.022L72.5116 128.661V128.689ZM72.5116 128.689L72.3631 133.05C72.2788 133.006 107.604 132.954 107.592 132.938L142.832 132.898C143.262 130.754 156.965 92.0274 157.407 90.4782C157.857 89.5878 157.471 88.4818 156.419 88.334C156.098 88.3021 154.922 88.334 154.56 88.3061L94.2695 87.6832L89.2426 87.6313C88.8459 87.5978 88.4508 87.712 88.134 87.9518C87.8173 88.1916 87.6013 88.5398 87.5281 88.929L86.6488 91.2688L72.5116 128.689Z" fill="white"/>
<path d="M143.223 129.108V133.366C143.224 133.587 143.181 133.806 143.097 134.01C143.012 134.215 142.888 134.4 142.731 134.556C142.575 134.713 142.388 134.838 142.183 134.923C141.977 135.007 141.757 135.051 141.534 135.052H55.4541C55.2322 135.052 55.0125 135.008 54.8076 134.924C54.6027 134.839 54.4165 134.715 54.2598 134.559C54.1031 134.404 53.9783 134.219 53.8936 134.015C53.8088 133.812 53.7656 133.593 53.7656 133.373V129.108H143.223Z" fill="#0F0F0F" stroke="white" stroke-width="0.516752"/>
<path d="M65.2002 128.849C89.3912 128.59 116.533 128.59 140.72 128.849C116.533 129.113 89.3912 129.109 65.2002 128.849Z" fill="white"/>
<path d="M119.775 110.189C120.904 107.372 119.927 104.339 117.593 103.414C115.259 102.489 112.452 104.022 111.323 106.839C110.194 109.656 111.171 112.689 113.505 113.614C115.839 114.539 118.646 113.005 119.775 110.189Z" fill="#5F5F5F"/>
<path d="M64.1198 120.948L55.6191 109.505L56.9269 93.1577L67.8797 90.7056L72.6204 105.091L81.2846 96.9176H85.6984L81.2846 115.554L73.6013 121.602C69.9395 124.741 65.9725 122.583 64.1198 120.948Z" fill="white" stroke="#0F0F0F" stroke-width="0.653894"/>
<path d="M27.1923 45.4039C39.1259 49.1637 47.6089 36.1054 47.7724 35.288V34.1437C48.8186 39.5057 53.1125 43.4617 55.1286 44.7695V48.5293V55.8857L53.4939 61.2803L48.9166 65.3671L44.8298 67.6558L40.6283 72.2756L54.624 73.3953L54.6534 73.3732C56.8702 71.7109 57.6588 71.1196 60.5233 55.8857C63.4004 40.5845 58.1256 31.746 55.1286 29.2394C47.0203 21.0004 35.5118 25.8065 30.7711 29.2394C29.5941 30.0158 26.5877 32.8054 24.953 34.7672C10.0442 56.3457 13.1325 65.2313 14.8762 71.7158L31.1112 72.2756L33.0597 62.5881L27.1923 45.4039Z" fill="#040707"/>
<path d="M28.1558 74.358C31.6869 74.6196 32.5696 65.8574 32.5696 61.4436L45.3206 65.367V67.9826C44.0128 74.5215 48.4811 75.7203 50.8787 75.5024C59.5102 75.5024 68.3704 86.7821 70.986 99.533L59.7063 100.187C58.889 109.505 57.9081 109.832 55.783 112.611L56.6003 121.929L22.1538 118.741C19.3547 116.502 18.9468 109.704 17.857 104.746L17.857 117.025H2V100.187C2 93.5172 6.35931 86.5096 8.53896 83.8395C15.0779 75.862 24.3414 74.1946 28.1558 74.358Z" fill="#040707" stroke="#0F0F0F" stroke-width="0.326947"/>
<path d="M27.3389 74.6855C32.1777 74.4239 33.0605 65.5309 32.897 61.1171L45.4845 65.5309V67.3291C43.9151 73.345 47.2282 75.5028 49.0809 75.8298C42.0188 82.238 31.6437 77.737 27.3389 74.6855Z" fill="white"/>
<path d="M55.7827 45.0965C51.7286 43.0041 48.8624 37.3588 47.936 34.7977C44.0126 42.5136 35.294 45.0965 31.4251 45.4235C29.7906 44.1157 27.1749 44.4426 25.8672 45.7504C23.5785 50.3277 26.9024 52.2894 29.3 52.6163L29.9539 55.7223C31.2617 62.5229 37.1467 66.4026 39.9258 67.4925C45.6801 69.3234 50.933 64.6589 52.8402 62.0978C55.1943 59.0899 55.7828 49.5103 55.7827 45.0965Z" fill="white"/>
<path d="M17.5288 116.861C17.5288 116.861 35.5818 118.211 38.7804 119.313L47.3573 118.585C48.3006 118.579 49.243 118.641 50.1773 118.771L57.9382 119.853C58.6262 119.948 59.2894 120.176 59.8914 120.523L68.1405 125.301C68.535 125.52 68.8456 125.864 69.023 126.28C69.2004 126.695 69.2346 127.158 69.12 127.596C68.8947 128.388 68.2128 129.046 66.3809 128.446C66.3809 128.446 64.8235 130.558 62.7981 128.602C62.7981 128.602 60.4404 130.5 59.2153 128.446C59.2153 128.446 57.733 130.088 55.4735 128.759C55.4735 128.759 52.668 127.349 52.2028 126.728C52.2028 126.728 50.7986 129.629 46.2016 129.232L34.124 130.102L22.1274 130.024C22.1274 130.024 10.827 129.087 7.10266 127.285C7.10266 127.285 1.72554 126.589 2.19073 117.515C2.19073 117.515 1.99873 120.457 2.19073 116.861H17.5288Z" fill="white" stroke="#0F0F0F" stroke-width="0.653894" stroke-miterlimit="10"/>
</svg>
