<svg width="160" height="160" viewBox="0 0 160 160" fill="none" xmlns="http://www.w3.org/2000/svg">
<path d="M30.0928 93.7438C38.9911 68.2352 43.3414 52.0204 44.9234 38.574L54.415 27.8959L65.6862 26.1163L73.9914 30.2688L81.11 34.4214C90.127 56.7266 85.2626 59.3368 98.9068 86.6251H87.6355L30.0928 93.7438Z" fill="#0F0F0F"/>
<path d="M118.657 131.923H99.0537L101.232 106.621H118.657V131.923Z" fill="#0F0F0F"/>
<path d="M102.899 107.104L103.321 93.0413L103.587 91.2778C103.62 91.0598 103.72 90.8577 103.874 90.7001L115.673 78.6462C115.73 78.5883 115.792 78.5367 115.862 78.4953C118.191 77.1125 121.944 77.8943 119.763 82.5469L116.553 87.7614C116.169 88.386 116.528 89.2024 117.248 89.3418L122.619 90.3817C123.055 90.4662 123.498 90.2668 123.723 89.8839L126.93 84.4359C127.967 82.5787 131.856 81.4317 131.385 85.2831C131.369 85.4143 131.323 85.5439 131.256 85.6579L126.93 93.0413" stroke="#0F0F0F" stroke-width="0.839551"/>
<path d="M117.127 107.104L118.375 102.134C118.452 101.826 118.665 101.57 118.954 101.437L141.053 91.2574C142.471 90.3492 142.721 88.4709 141.895 87.488C141.829 87.4097 141.767 87.3265 141.687 87.2618C141.253 86.9063 139.641 86.3405 137.469 87.3744L132.937 90.3129" stroke="#0F0F0F" stroke-width="0.839551"/>
<path d="M131.041 86.01L134.414 82.5469C135.981 80.9862 139.932 81.3857 137.944 85.0755C137.911 85.1371 137.869 85.1974 137.823 85.2505L134.203 89.4733" stroke="#0F0F0F" stroke-width="0.839551"/>
<path d="M113.652 96.504C116.147 95.6994 121.599 93.3347 123.454 90.3123" stroke="#0F0F0F" stroke-width="0.839551"/>
<path d="M82.358 71.2968V75.8752C92.1596 75.2728 94.3378 79.2488 96.3949 80.8151L105.35 108.406L109.827 131.66H56.5833L36.012 137.443C16.9411 137.25 16.3683 123.868 18.4658 117.202C21.0473 111.539 27.5898 97.8999 33.1078 88.6467C38.6257 79.3934 49.6858 79.6103 55.8573 79.6103V78.044L56.5833 71.2968H82.358Z" fill="#0F0F0F" stroke="#0F0F0F" stroke-width="0.963881"/>
<path d="M56.949 130.936C46.6923 122.26 53.3561 111.43 57.9701 107.1L81.5695 100.322C81.8342 97.1209 85.1321 89.9285 96.2056 86.7654L103.354 85.0708C108.232 83.4892 113.338 85.8618 106.757 89.2507L96.2056 93.2046L106.757 92.0749H108.913C111.523 92.0749 114.586 94.7861 109.594 96.5937L106.757 97.0815C109.669 97.672 115.267 99.5308 110.048 103.033L107.552 104.163C111.182 105.97 109.367 108.342 106.757 108.907L94.1634 110.941C94.1634 113.991 90.7596 115.572 88.9443 115.911L56.949 130.936Z" fill="white"/>
<path d="M107.552 104.163C111.182 105.97 109.367 108.342 106.757 108.907L94.1634 110.941C94.1634 113.991 90.7596 115.572 88.9443 115.911L56.949 130.936C46.6923 122.26 53.3561 111.43 57.9701 107.1L81.5695 100.322C81.8342 97.1209 85.1321 89.9285 96.2056 86.7654L103.354 85.0708C108.232 83.4892 113.338 85.8618 106.757 89.2507L96.2056 93.2046L106.757 92.0749H108.913C111.523 92.0749 114.586 94.7861 109.594 96.5937L106.757 97.0815M107.552 104.163L94.8441 105.179M107.552 104.163L110.048 103.033C115.267 99.5308 109.669 97.672 106.757 97.0815M97.1133 98.7401L106.757 97.0815" stroke="#0F0F0F" stroke-width="0.903747"/>
<path d="M96.6611 86.3136C97.5688 80.6651 93.7951 78.4358 92.8035 79.9873C92.0093 81.23 89.335 87.2043 87.168 91.0583C89.0134 89.1604 94.2656 87.1043 96.6611 86.3136Z" fill="white"/>
<path d="M87.1681 91.2842C87.4175 90.8473 86.8666 91.5944 87.168 91.0583M87.168 91.0583C89.335 87.2043 92.0093 81.23 92.8035 79.9873C93.7951 78.4358 97.5688 80.6651 96.6611 86.3136C94.2656 87.1043 89.0134 89.1604 87.168 91.0583Z" stroke="#0F0F0F" stroke-width="0.903747"/>
<path d="M56.7031 71.1755V62.0186V55.7776H78.0005V71.1755H56.7031Z" fill="white"/>
<path d="M49.443 51.1747C45.5158 50.4386 45.1271 45.5119 47.6279 44.0661L52.3472 36.7165L56.2194 31.8971L61.7858 28.2825H65.174H72.4345L79.8161 35.2707C84.0748 39.7606 82.2951 43.32 79.2109 44.9095C81.3407 48.765 78.1346 57.8211 75.7705 60.5229C71.618 65.2687 65.3758 64.4682 62.6329 64.0666C53.9204 61.9461 49.927 54.7089 49.443 51.1747Z" fill="white" stroke="#0F0F0F" stroke-width="0.963881"/>
<path d="M44.9234 45.6925C55.9504 42.9014 61.3941 36.2035 62.7319 32.39C70.8698 39.8497 77.0269 37.2526 81.5688 36.599C79.6641 23.9987 66.3792 22.515 59.9748 23.3482C45.3334 26.7222 43.826 39.8698 44.9234 45.6925Z" fill="#0F0F0F"/>
</svg>
