<svg width="160" height="160" viewBox="0 0 160 160" fill="none" xmlns="http://www.w3.org/2000/svg">
<path d="M151.8 92.3377L151.799 92.3387C152.098 92.3407 152.392 92.412 152.657 92.5496C152.923 92.6873 153.152 92.8862 153.325 93.1297C153.498 93.3733 153.611 93.6551 153.653 93.951C153.696 94.247 153.666 94.5493 153.568 94.8318L141.553 129.433L141.406 129.853H83.4072L83.4316 129.204L83.5645 125.684L83.5684 125.583L83.6035 125.488L95.749 93.0623C95.8845 92.6998 96.1298 92.3881 96.4492 92.1697C96.7683 91.9517 97.1468 91.8378 97.5332 91.8416L151.8 92.3377Z" fill="#0F0F0F" stroke="white" stroke-width="1.25157"/>
<path d="M84.1895 125.708L95.4311 95.4363L96.1377 93.5441C96.2247 93.199 96.4172 92.8892 96.6888 92.6576C96.9777 92.4394 97.3391 92.338 97.7001 92.3739L101.755 92.4061L150.433 92.7962H151.444C151.619 92.7962 151.769 92.7962 151.973 92.7962C152.205 92.8337 152.424 92.9259 152.613 93.0652C152.802 93.2044 152.955 93.3866 153.058 93.5965C153.161 93.8064 153.213 94.0379 153.208 94.2716C153.203 94.5053 153.142 94.7345 153.029 94.9398C152.482 96.6128 141.879 126.885 141.036 129.328C140.997 129.38 112.556 129.254 112.511 129.296C112.511 129.296 84.0307 129.238 84.0469 129.206L84.1895 125.686V125.708ZM84.1895 125.708L84.0696 129.228C84.0015 129.193 112.52 129.151 112.511 129.138L140.961 129.106C141.308 127.375 152.371 96.11 152.728 94.8593C153.091 94.1404 152.78 93.2475 151.931 93.1282C151.671 93.1024 150.722 93.1282 150.43 93.1057L101.755 92.6028L97.6969 92.5609C97.3766 92.5339 97.0577 92.6261 96.802 92.8196C96.5462 93.0132 96.3719 93.2944 96.3128 93.6085L95.6029 95.4975L84.1895 125.708Z" fill="white"/>
<path d="M141.277 126.046V129.484C141.278 129.662 141.243 129.839 141.175 130.003C141.107 130.168 141.006 130.318 140.88 130.445C140.753 130.571 140.603 130.672 140.438 130.741C140.272 130.809 140.093 130.844 139.913 130.844H70.4189C70.2397 130.844 70.062 130.809 69.8965 130.741C69.7311 130.673 69.5806 130.573 69.4541 130.447C69.3277 130.321 69.2276 130.171 69.1592 130.007C69.0908 129.843 69.0557 129.667 69.0557 129.49V126.046H141.277Z" fill="#0F0F0F" stroke="white" stroke-width="0.417189"/>
<path d="M78.2861 125.838C97.8162 125.628 119.729 125.628 139.256 125.838C119.729 126.05 97.8162 126.047 78.2861 125.838Z" fill="white"/>
<path d="M122.348 110.772C123.26 108.498 122.471 106.05 120.587 105.303C118.703 104.556 116.437 105.794 115.525 108.068C114.614 110.342 115.402 112.791 117.287 113.537C119.171 114.284 121.437 113.046 122.348 110.772Z" fill="#5F5F5F"/>
<path d="M73.8292 66.0351C73.8292 66.0351 47.8793 66.8216 38.4254 65.5128C38.4254 65.5128 36.3055 65.1292 32.6944 66.8216C29.7018 68.2445 27.1442 70.4341 25.2843 73.1655C21.2422 79.0387 11.3565 94.4295 8.33869 105.235L31.6085 108.801L35.5502 100.849L36.3379 109.975L36.2504 118.018L80.3122 124.629C79.7773 121.934 80.5715 117.215 80.403 113.505C80.3219 111.699 80.283 110.336 80.283 109.959C80.283 107.589 80.0691 105.088 80.4678 102.741C80.8568 100.446 81.7644 98.2896 82.4127 96.0589L86.5586 81.5531C86.5586 81.5531 84.9867 71.7773 73.8292 66.0351Z" fill="#0F0F0F"/>
<path d="M38.8214 65.7136C38.781 65.6857 38.7488 65.6475 38.7282 65.6031C38.7076 65.5586 38.6993 65.5095 38.7043 65.4608C38.7093 65.4121 38.7272 65.3656 38.7564 65.3262C38.7855 65.2867 38.8248 65.2558 38.8701 65.2365L47.7032 61.3489L48.4131 47.7844C48.5786 44.6248 49.3142 41.5205 50.5849 38.6199L50.7599 38.2234L53.4374 38.8456C55.3596 33.1722 60.64 29.0847 66.2316 28.9236C75.2365 28.6625 77.9011 34.597 78.5494 43.1071C79.1977 51.6171 73.8072 58.3543 68.4197 58.999C67.1906 58.9071 65.9742 58.6911 64.7892 58.3543L66.7363 66.3334H73.8067" fill="white"/>
<path d="M38.8214 65.7136C38.781 65.6857 38.7488 65.6475 38.7282 65.6031C38.7076 65.5586 38.6993 65.5095 38.7043 65.4608C38.7093 65.4121 38.7273 65.3656 38.7564 65.3262C38.7855 65.2867 38.8248 65.2558 38.8701 65.2365L47.7032 61.3489L48.4131 47.7844C48.5786 44.6248 49.3142 41.5205 50.5849 38.6199L50.7599 38.2234L53.4374 38.8456C55.3596 33.1722 60.64 29.0847 66.2316 28.9236C75.2365 28.6625 77.9011 34.597 78.5494 43.1071C79.1977 51.6171 73.8072 58.3543 68.4197 58.999C67.1906 58.9071 65.9742 58.6911 64.7892 58.3543L66.7363 66.3334H73.8067" stroke="#0F0F0F" stroke-width="0.644704" stroke-miterlimit="10"/>
<path d="M104.453 99.4991L83.2341 74.6763L78.6251 99.4991L92.8951 115.576L104.453 99.4991Z" fill="#0F0F0F" stroke="#0F0F0F" stroke-width="0.417189"/>
<path d="M50.7011 39.9244C50.5736 39.5854 50.3295 39.3022 50.012 39.1252C49.6946 38.9482 49.3243 38.8887 48.9669 38.9574C47.6508 39.2152 45.8745 40.2726 46.0495 44.1408C46.0495 44.1408 45.1776 48.2282 49.291 48.0541L48.2475 53.1912C48.2475 53.1912 43.1678 51.8772 43.1678 43.6186C43.1678 43.6186 42.9928 28.2327 52.7854 23.7133C52.7854 23.7133 65.8455 17.9388 73.959 26.9723C73.959 26.9723 77.0801 29.8034 77.0801 35.2783C77.0801 35.2783 70.9969 34.6699 68.6623 30.2023C68.359 30.2465 68.0751 30.3772 67.845 30.5786C67.6148 30.78 67.4484 31.0434 67.3657 31.3369C66.7174 33.5934 64.0853 39.5924 54.095 40.5788C54.095 40.5788 53.0901 46.8356 49.2878 48.0541C46.4969 48.947 44.3931 45.8364 44.3931 45.5752C44.3931 45.3141 44.2602 38.9703 44.7432 38.4835C45.2262 37.9968 47.6606 36.8717 47.6606 36.8717L52.1987 36.8266L50.7011 39.9244Z" fill="#0F0F0F"/>
<path d="M57.6145 40.1448C66.7393 40.1448 70.7948 35.0755 71.6059 31.02L50.9231 24.9368C34.8635 35.1566 21.1155 76.6438 15.6406 89.4185L28.4153 91.2434C44.8399 97.3266 55.7896 50.2834 57.6145 40.1448Z" fill="#0F0F0F"/>
<path d="M18.681 125.309C3.10809 123.849 6.10983 108.885 9.55696 102.193L30.8481 105.843C34.2547 106.816 39.3645 108.885 49.7054 114.36C52.6254 113.873 61.0607 114.562 64.9134 114.968L65.5217 125.918C52.1387 127.743 29.0225 126.323 18.681 125.309Z" fill="#0F0F0F"/>
<path d="M48.49 126.527C43.6242 121.358 47.3946 115.963 50.9208 114.36L70.6965 114.795C71.4793 112.992 74.8052 109.47 81.8468 109.814L86.3239 110.236C89.4633 110.279 91.9568 112.658 87.4755 113.329L80.5809 113.547L86.9203 114.966L88.17 115.39C89.6829 115.903 90.9259 118.077 87.6763 118.144L85.936 117.869C87.5082 118.784 90.3878 120.962 86.6735 121.966L85.0044 122.13C86.7539 123.892 85.2351 124.91 83.6111 124.725L75.9101 123.428C74.6473 124.725 73.0263 125.444 71.9072 125.283L60.6558 126.526L48.49 126.527Z" fill="white"/>
<path d="M85.0044 122.13C86.7539 123.892 85.2351 124.91 83.6111 124.725L75.9101 123.428C74.6473 124.725 73.0263 125.444 71.9072 125.283L60.6558 126.526L48.49 126.527C43.6242 121.358 47.3946 115.963 50.9208 114.36L70.6965 114.795C71.4793 112.992 74.8052 109.47 81.8468 109.814L86.3239 110.236C89.4633 110.279 91.9568 112.658 87.4755 113.329L80.5809 113.547L86.9203 114.966L88.17 115.39C89.6829 115.903 90.9259 118.077 87.6763 118.144L85.936 117.869M85.0044 122.13L77.4375 120.221M85.0044 122.13L86.6735 121.966C90.3878 120.962 87.5082 118.784 85.936 117.869M80.0189 116.934L85.936 117.869" stroke="#0F0F0F" stroke-width="0.790813"/>
<g clip-path="url(#clip0_388_1144)">
<path d="M121.24 37.8953V44.084H123.342V37.8953H121.24H121.24ZM112.657 39.7551L110.934 40.9609L114.484 46.0292L116.205 44.8233L112.657 39.7551ZM131.925 39.7551L128.377 44.8233L130.099 46.0292L133.648 40.9609L131.926 39.7551H131.925ZM122.291 45.7773C117.148 45.7773 112.98 48.9 112.98 52.7526L118.27 68.7734H126.313L131.602 52.7526C131.602 48.9001 127.434 45.7773 122.291 45.7773H122.291ZM105.569 47.6346L104.851 49.6111L110.663 51.7273L111.384 49.7518L105.569 47.6346H105.569ZM139.013 47.6346L133.198 49.7519L133.916 51.7277L139.732 49.6111L139.013 47.6346ZM111.103 56.6699L105.127 58.273L105.669 60.302L111.646 58.7012L111.103 56.6699H111.103ZM133.479 56.6699L132.937 58.7012L138.914 60.3017L139.456 58.2727L133.479 56.6698V56.6699ZM118.153 69.9413V72.7261H126.43V69.9417H118.153L118.153 69.9413ZM118.153 74.1105V76.8953H126.43V74.1109H118.153L118.153 74.1105Z" fill="#0F0F0F"/>
</g>
<defs>
<clipPath id="clip0_388_1144">
<rect width="39" height="39" fill="white" transform="translate(102.791 37.8953)"/>
</clipPath>
</defs>
</svg>
