<svg width="72" height="72" viewBox="0 0 72 72" fill="none" xmlns="http://www.w3.org/2000/svg">
<rect opacity="0.05" width="71.0786" height="71.0786" rx="13.4959" fill="white"/>
<path fill-rule="evenodd" clip-rule="evenodd" d="M26.9922 28.5021C26.9922 23.8815 30.4322 18.8943 35.9895 18.8943C41.5468 18.8943 44.9868 23.8815 44.9868 28.5021C44.9868 35.3495 40.3164 39.5881 35.9895 39.5881C31.6625 39.5881 26.9922 35.3495 26.9922 28.5021ZM28.5234 29.2812C28.8488 34.7532 32.5452 38.1101 35.9889 38.1101C39.4327 38.1101 43.1283 34.754 43.4552 29.2834C41.2246 28.9848 39.1402 28.044 37.4675 26.5688C35.4011 28.3973 32.7657 29.3972 29.969 29.3972C29.4914 29.3972 29.01 29.3507 28.5234 29.2812Z" fill="white"/>
<path opacity="0.5" d="M49.4648 43.3514L41.6686 38.6884C39.8414 40.2609 37.6573 41.1256 35.5392 41.1256C33.4211 41.1256 31.237 40.2609 29.4098 38.6884L21.6136 43.3514C20.4912 44.0225 19.7939 45.2505 19.7939 46.5555V52.3366C19.7939 52.7499 20.1298 53.084 20.5437 53.084H34.7894V45.61C34.7894 45.1967 35.1246 44.8626 35.5392 44.8626C35.9538 44.8626 36.289 45.1967 36.289 45.61V53.084H50.5347C50.9486 53.084 51.2845 52.7499 51.2845 52.3366V46.5555C51.2845 45.2505 50.5872 44.0225 49.4648 43.3514Z" fill="white"/>
</svg>
