<svg width="166" height="30" viewBox="0 0 166 30" fill="none" xmlns="http://www.w3.org/2000/svg">
<path d="M0.154486 29V0.898159H4.30375L14.8655 15.5337H12.7909L23.164 0.898159H27.3133V29H22.9V6.14132L24.5597 6.59397L13.9602 21.0787H13.5076L3.13441 6.59397L4.60552 6.14132V29H0.154486ZM38.819 29.4526C37.4359 29.4526 36.2163 29.2138 35.1601 28.736C34.129 28.233 33.3243 27.554 32.746 26.699C32.1676 25.8189 31.8784 24.7879 31.8784 23.606C31.8784 22.4995 32.1173 21.5062 32.5951 20.626C33.098 19.7459 33.865 19.004 34.896 18.4005C35.9271 17.797 37.2221 17.3695 38.7813 17.118L45.8727 15.9487V19.3058L39.6111 20.3997C38.4795 20.6009 37.6496 20.9655 37.1215 21.4936C36.5935 21.9965 36.3294 22.6504 36.3294 23.4551C36.3294 24.2346 36.6186 24.8759 37.197 25.3788C37.8005 25.8566 38.5675 26.0955 39.4979 26.0955C40.6547 26.0955 41.6606 25.844 42.5156 25.3411C43.3957 24.8382 44.0747 24.1718 44.5525 23.3419C45.0303 22.4869 45.2692 21.5439 45.2692 20.5129V15.2697C45.2692 14.2638 44.892 13.4465 44.1376 12.8179C43.4083 12.164 42.4276 11.8371 41.1954 11.8371C40.0638 11.8371 39.0704 12.1389 38.2154 12.7424C37.3856 13.3208 36.7695 14.0752 36.3671 15.0057L32.8214 13.2328C33.1986 12.2269 33.8147 11.3468 34.6697 10.5924C35.5247 9.81279 36.518 9.20926 37.6496 8.78176C38.8064 8.35426 40.026 8.14051 41.3085 8.14051C42.9179 8.14051 44.3388 8.44228 45.571 9.04581C46.8283 9.64934 47.7965 10.4918 48.4754 11.5731C49.1796 12.6293 49.5316 13.8615 49.5316 15.2697V29H45.4578V25.3034L46.3254 25.4165C45.8476 26.2464 45.2315 26.9631 44.4771 27.5666C43.7478 28.1701 42.9054 28.6354 41.9498 28.9623C41.0193 29.2892 39.9757 29.4526 38.819 29.4526ZM52.4785 29L59.6077 18.7777L52.4785 8.59316H57.4954L63.3421 17.118H60.928L66.7746 8.59316H71.7915L64.6246 18.7777L71.7538 29H66.7369L60.9657 20.4374H63.3044L57.4954 29H52.4785ZM83.5462 29.4526C81.5092 29.4526 79.6987 28.9874 78.1144 28.057C76.5553 27.1014 75.3356 25.8189 74.4555 24.2095C73.5754 22.5749 73.1353 20.7518 73.1353 18.74C73.1353 16.6779 73.5754 14.8548 74.4555 13.2705C75.3608 11.6862 76.5679 10.4415 78.0767 9.53618C79.5855 8.60573 81.2955 8.14051 83.2067 8.14051C84.7406 8.14051 86.1112 8.40456 87.3182 8.93265C88.5253 9.46073 89.5437 10.19 90.3736 11.1204C91.2034 12.0257 91.8321 13.0693 92.2596 14.2512C92.7123 15.4332 92.9386 16.6905 92.9386 18.0233C92.9386 18.3502 92.926 18.6897 92.9009 19.0418C92.8757 19.3938 92.8254 19.7207 92.75 20.0225H76.4924V16.6276H90.3359L88.299 18.1742C88.5504 16.942 88.4624 15.8481 88.0349 14.8925C87.6326 13.9118 87.0039 13.1448 86.1489 12.5915C85.319 12.0132 84.3383 11.724 83.2067 11.724C82.0751 11.724 81.0692 12.0132 80.189 12.5915C79.3089 13.1448 78.6299 13.9495 78.1521 15.0057C77.6743 16.0367 77.4857 17.294 77.5863 18.7777C77.4606 20.1608 77.6492 21.3679 78.1521 22.3989C78.6802 23.4299 79.4095 24.2346 80.3399 24.813C81.2955 25.3914 82.3768 25.6806 83.5839 25.6806C84.8161 25.6806 85.8597 25.404 86.7147 24.8507C87.5948 24.2975 88.2864 23.5808 88.7893 22.7007L92.2596 24.3981C91.8573 25.3537 91.2286 26.2212 90.3736 27.0008C89.5437 27.7552 88.5379 28.3587 87.3559 28.8114C86.1992 29.2389 84.9292 29.4526 83.5462 29.4526ZM97.0985 29V8.59316H101.172V12.5915L100.682 12.0635C101.185 10.781 101.99 9.81279 103.096 9.15897C104.203 8.48 105.485 8.14051 106.944 8.14051C108.452 8.14051 109.785 8.46743 110.942 9.12125C112.099 9.77507 113.004 10.6804 113.658 11.8371C114.312 12.9939 114.639 14.3267 114.639 15.8355V29H110.414V16.9671C110.414 15.9361 110.225 15.0685 109.848 14.3644C109.471 13.6351 108.93 13.0819 108.226 12.7047C107.547 12.3024 106.768 12.1012 105.887 12.1012C105.007 12.1012 104.215 12.3024 103.511 12.7047C102.832 13.0819 102.304 13.6351 101.927 14.3644C101.549 15.0937 101.361 15.9612 101.361 16.9671V29H97.0985ZM119.2 29V8.59316H123.463V29H119.2ZM119.2 5.80184V0.898159H123.463V5.80184H119.2ZM135.726 29.4526C134.192 29.4526 132.847 29.1132 131.69 28.4342C130.534 27.7301 129.628 26.7619 128.974 25.5297C128.346 24.2724 128.031 22.8264 128.031 21.1918V8.59316H132.294V20.8146C132.294 21.7451 132.482 22.5624 132.86 23.2665C133.237 23.9706 133.765 24.5238 134.444 24.9262C135.123 25.3034 135.902 25.492 136.783 25.492C137.688 25.492 138.48 25.2908 139.159 24.8885C139.838 24.4861 140.366 23.9203 140.743 23.191C141.146 22.4618 141.347 21.6068 141.347 20.626V8.59316H145.571V29H141.535V25.0016L141.988 25.5297C141.51 26.7871 140.718 27.7552 139.612 28.4342C138.505 29.1132 137.21 29.4526 135.726 29.4526ZM158.092 29.4526C156.005 29.4526 154.169 28.9371 152.585 27.9061C151.026 26.8751 149.932 25.492 149.303 23.7568L152.585 22.2103C153.138 23.3671 153.893 24.2849 154.848 24.9639C155.829 25.6429 156.91 25.9824 158.092 25.9824C159.098 25.9824 159.916 25.756 160.544 25.3034C161.173 24.8507 161.487 24.2346 161.487 23.4551C161.487 22.9521 161.349 22.5498 161.072 22.248C160.796 21.9211 160.444 21.6571 160.016 21.4559C159.614 21.2547 159.199 21.1038 158.771 21.0032L155.565 20.0979C153.805 19.595 152.485 18.8406 151.604 17.8347C150.749 16.8037 150.322 15.6092 150.322 14.2512C150.322 13.019 150.636 11.9503 151.265 11.045C151.894 10.1146 152.761 9.39787 153.868 8.89492C154.974 8.39198 156.219 8.14051 157.602 8.14051C159.463 8.14051 161.123 8.60573 162.581 9.53618C164.04 10.4415 165.071 11.7114 165.674 13.346L162.393 14.8925C161.99 13.9118 161.349 13.1322 160.469 12.5538C159.614 11.9754 158.646 11.6862 157.564 11.6862C156.634 11.6862 155.892 11.9126 155.339 12.3652C154.786 12.7927 154.509 13.3585 154.509 14.0626C154.509 14.5404 154.635 14.9428 154.886 15.2697C155.138 15.5715 155.464 15.8229 155.867 16.0241C156.269 16.2001 156.684 16.351 157.112 16.4768L160.431 17.4575C162.116 17.9353 163.411 18.6897 164.316 19.7207C165.222 20.7266 165.674 21.9337 165.674 23.3419C165.674 24.549 165.347 25.6177 164.693 26.5482C164.065 27.4535 163.185 28.1701 162.053 28.6982C160.921 29.2012 159.601 29.4526 158.092 29.4526Z" fill="white"/>
</svg>
