<svg width="97" height="146" viewBox="0 0 97 146" fill="none" xmlns="http://www.w3.org/2000/svg">
<path opacity="0.6" d="M48.0861 11.8477H34.2608C30.5946 11.8477 27.0786 13.304 24.4862 15.8964C21.8939 18.4888 20.4375 22.0048 20.4375 25.6709C20.4375 29.3371 21.8939 32.8531 24.4862 35.4454C27.0786 38.0378 30.5946 39.4942 34.2608 39.4942H48.0861V11.8477Z" fill="white"/>
<path opacity="0.8" d="M48.0864 11.8477H61.9076C65.5738 11.8477 69.0898 13.304 71.6821 15.8964C74.2745 18.4888 75.7309 22.0048 75.7309 25.6709C75.7309 29.3371 74.2745 32.8531 71.6821 35.4454C69.0898 38.0378 65.5738 39.4942 61.9076 39.4942H48.0864V11.8477Z" fill="white"/>
<path opacity="0.4" d="M48.084 39.4983H34.2587C30.5931 39.4983 27.0776 40.9544 24.4856 43.5464C21.8937 46.1384 20.4375 49.6539 20.4375 53.3195C20.4375 56.9851 21.8937 60.5006 24.4856 63.0925C27.0776 65.6845 30.5931 67.1407 34.2587 67.1407H48.084V39.4983Z" fill="white"/>
<path d="M75.7305 53.3174C75.7305 56.9836 74.2741 60.4996 71.6818 63.0919C69.0894 65.6843 65.5734 67.1407 61.9072 67.1407C58.2411 67.1407 54.7251 65.6843 52.1327 63.0919C49.5404 60.4996 48.084 56.9836 48.084 53.3174C48.084 49.6512 49.5404 46.1352 52.1327 43.5429C54.7251 40.9505 58.2411 39.4941 61.9072 39.4941C65.5734 39.4941 69.0894 40.9505 71.6818 43.5429C74.2741 46.1352 75.7305 49.6512 75.7305 53.3174Z" fill="white"/>
<path opacity="0.2" d="M34.2546 67.1448H48.0799V80.966C48.0791 83.6992 47.2679 86.3708 45.7489 88.643C44.2299 90.9153 42.0712 92.6861 39.5459 93.7317C37.0206 94.7773 34.242 95.0507 31.5613 94.5172C28.8806 93.9838 26.4183 92.6676 24.4856 90.7349C22.553 88.8022 21.2367 86.3399 20.7033 83.6592C20.1699 80.9785 20.4432 78.1999 21.4888 75.6746C22.5344 73.1493 24.3052 70.9906 26.5775 69.4716C28.8497 67.9526 31.5213 67.1456 34.2546 67.1448Z" fill="white"/>
<path d="M21.628 121.838V124.07H14.548V128.99H20.068V131.222H14.548V138.518H11.812V121.838H21.628ZM25.5556 123.542C25.0596 123.542 24.6436 123.374 24.3076 123.038C23.9716 122.702 23.8036 122.286 23.8036 121.79C23.8036 121.294 23.9716 120.878 24.3076 120.542C24.6436 120.206 25.0596 120.038 25.5556 120.038C26.0356 120.038 26.4436 120.206 26.7796 120.542C27.1156 120.878 27.2836 121.294 27.2836 121.79C27.2836 122.286 27.1156 122.702 26.7796 123.038C26.4436 123.374 26.0356 123.542 25.5556 123.542ZM26.8996 125.294V138.518H24.1636V125.294H26.8996ZM35.8197 125.078C36.8437 125.078 37.7477 125.286 38.5317 125.702C39.3317 126.102 39.9557 126.606 40.4037 127.214V125.294H43.1637V138.734C43.1637 139.95 42.9077 141.03 42.3957 141.974C41.8837 142.934 41.1397 143.686 40.1637 144.23C39.2037 144.774 38.0517 145.046 36.7077 145.046C34.9157 145.046 33.4277 144.622 32.2437 143.774C31.0597 142.942 30.3877 141.806 30.2277 140.366H32.9397C33.1477 141.054 33.5877 141.606 34.2597 142.022C34.9477 142.454 35.7637 142.67 36.7077 142.67C37.8117 142.67 38.6997 142.334 39.3717 141.662C40.0597 140.99 40.4037 140.014 40.4037 138.734V136.526C39.9397 137.15 39.3077 137.678 38.5077 138.11C37.7237 138.526 36.8277 138.734 35.8197 138.734C34.6677 138.734 33.6117 138.446 32.6517 137.87C31.7077 137.278 30.9557 136.462 30.3957 135.422C29.8517 134.366 29.5797 133.174 29.5797 131.846C29.5797 130.518 29.8517 129.342 30.3957 128.318C30.9557 127.294 31.7077 126.502 32.6517 125.942C33.6117 125.366 34.6677 125.078 35.8197 125.078ZM40.4037 131.894C40.4037 130.982 40.2117 130.19 39.8277 129.518C39.4597 128.846 38.9717 128.334 38.3637 127.982C37.7557 127.63 37.0997 127.454 36.3957 127.454C35.6917 127.454 35.0357 127.63 34.4277 127.982C33.8197 128.318 33.3237 128.822 32.9397 129.494C32.5717 130.15 32.3877 130.934 32.3877 131.846C32.3877 132.758 32.5717 133.558 32.9397 134.246C33.3237 134.934 33.8197 135.462 34.4277 135.83C35.0517 136.182 35.7077 136.358 36.3957 136.358C37.0997 136.358 37.7557 136.182 38.3637 135.83C38.9717 135.478 39.4597 134.966 39.8277 134.294C40.2117 133.606 40.4037 132.806 40.4037 131.894ZM62.7654 125.078C63.8054 125.078 64.7334 125.294 65.5494 125.726C66.3814 126.158 67.0294 126.798 67.4934 127.646C67.9734 128.494 68.2134 129.518 68.2134 130.718V138.518H65.5014V131.126C65.5014 129.942 65.2054 129.038 64.6134 128.414C64.0214 127.774 63.2134 127.454 62.1894 127.454C61.1654 127.454 60.3494 127.774 59.7414 128.414C59.1494 129.038 58.8534 129.942 58.8534 131.126V138.518H56.1414V131.126C56.1414 129.942 55.8454 129.038 55.2534 128.414C54.6614 127.774 53.8534 127.454 52.8294 127.454C51.8054 127.454 50.9894 127.774 50.3814 128.414C49.7894 129.038 49.4934 129.942 49.4934 131.126V138.518H46.7574V125.294H49.4934V126.806C49.9414 126.262 50.5094 125.838 51.1974 125.534C51.8854 125.23 52.6214 125.078 53.4054 125.078C54.4614 125.078 55.4054 125.302 56.2374 125.75C57.0694 126.198 57.7094 126.846 58.1574 127.694C58.5574 126.894 59.1814 126.262 60.0294 125.798C60.8774 125.318 61.7894 125.078 62.7654 125.078ZM70.7829 131.846C70.7829 130.518 71.0549 129.342 71.5989 128.318C72.1589 127.294 72.9109 126.502 73.8549 125.942C74.8149 125.366 75.8709 125.078 77.0229 125.078C78.0629 125.078 78.9669 125.286 79.7349 125.702C80.5189 126.102 81.1429 126.606 81.6069 127.214V125.294H84.3669V138.518H81.6069V136.55C81.1429 137.174 80.5109 137.694 79.7109 138.11C78.9109 138.526 77.9989 138.734 76.9749 138.734C75.8389 138.734 74.7989 138.446 73.8549 137.87C72.9109 137.278 72.1589 136.462 71.5989 135.422C71.0549 134.366 70.7829 133.174 70.7829 131.846ZM81.6069 131.894C81.6069 130.982 81.4149 130.19 81.0309 129.518C80.6629 128.846 80.1749 128.334 79.5669 127.982C78.9589 127.63 78.3029 127.454 77.5989 127.454C76.8949 127.454 76.2389 127.63 75.6309 127.982C75.0229 128.318 74.5269 128.822 74.1429 129.494C73.7749 130.15 73.5909 130.934 73.5909 131.846C73.5909 132.758 73.7749 133.558 74.1429 134.246C74.5269 134.934 75.0229 135.462 75.6309 135.83C76.2549 136.182 76.9109 136.358 77.5989 136.358C78.3029 136.358 78.9589 136.182 79.5669 135.83C80.1749 135.478 80.6629 134.966 81.0309 134.294C81.4149 133.606 81.6069 132.806 81.6069 131.894Z" fill="white"/>
</svg>
