<svg width="103" height="146" viewBox="0 0 103 146" fill="none" xmlns="http://www.w3.org/2000/svg">
<g clip-path="url(#clip0_1_4412)">
<path d="M75.9938 19.834H20.3187C16.9187 19.834 14.1562 22.5965 14.1562 25.9965V81.6715C14.1562 85.0715 16.9187 87.834 20.3187 87.834H75.9938C79.3938 87.834 82.1562 85.0715 82.1562 81.6715V25.9965C82.1562 22.5965 79.3938 19.834 75.9938 19.834ZM40.8857 37.0768C40.9464 40.6286 37.4857 41.2206 36.8482 41.2358C34.5866 41.2358 32.7348 39.4143 32.7348 37.1376C32.75 31.7947 40.7946 31.7492 40.8857 37.0768ZM64.6705 72.2001C54.7134 72.2001 59.4946 60.9679 60.8759 56.0197C63.0161 48.9768 54.0152 47.0643 51.7839 56.1259L47.8679 71.8054H41.0223L42.2518 66.8724C37.4705 74.7349 27.8929 73.6117 27.8929 66.2197C27.908 64.0492 28.0295 64.0947 31.3839 50.4188H26.5571L28.0295 45.0152H39.6259C34.5259 65.309 34.6777 64.2768 34.6321 65.992C34.6321 69.1643 40.8402 68.0411 43.3446 62.4706L46.35 50.4188H41.4473L42.9196 45.0152H53.3625L52.0116 51.1626C58.1589 39.7027 71.425 43.9072 67.4634 56.9304C65.308 64.6867 65.2473 64.6259 65.2018 65.8554C65.2018 68.2081 67.858 69.2858 70.0286 63.2902L72.7455 64.3072C71.1518 69.8777 68.283 72.2001 64.6705 72.2001Z" fill="white"/>
</g>
<path d="M11.3524 122.838V139.518H8.61641V122.838H11.3524ZM21.6165 126.078C22.6565 126.078 23.5845 126.294 24.4005 126.726C25.2325 127.158 25.8805 127.798 26.3445 128.646C26.8085 129.494 27.0405 130.518 27.0405 131.718V139.518H24.3285V132.126C24.3285 130.942 24.0325 130.038 23.4405 129.414C22.8485 128.774 22.0405 128.454 21.0165 128.454C19.9925 128.454 19.1765 128.774 18.5685 129.414C17.9765 130.038 17.6805 130.942 17.6805 132.126V139.518H14.9445V126.294H17.6805V127.806C18.1285 127.262 18.6965 126.838 19.3845 126.534C20.0885 126.23 20.8325 126.078 21.6165 126.078ZM44.9065 122.838L38.6425 139.518H35.4745L29.1865 122.838H32.1145L37.0585 136.71L42.0265 122.838H44.9065ZM48.5865 124.542C48.0905 124.542 47.6745 124.374 47.3385 124.038C47.0025 123.702 46.8345 123.286 46.8345 122.79C46.8345 122.294 47.0025 121.878 47.3385 121.542C47.6745 121.206 48.0905 121.038 48.5865 121.038C49.0665 121.038 49.4745 121.206 49.8105 121.542C50.1465 121.878 50.3145 122.294 50.3145 122.79C50.3145 123.286 50.1465 123.702 49.8105 124.038C49.4745 124.374 49.0665 124.542 48.5865 124.542ZM49.9305 126.294V139.518H47.1945V126.294H49.9305ZM58.3227 139.734C57.2827 139.734 56.3467 139.55 55.5147 139.182C54.6987 138.798 54.0507 138.286 53.5707 137.646C53.0907 136.99 52.8347 136.262 52.8027 135.462H55.6347C55.6827 136.022 55.9467 136.494 56.4267 136.878C56.9227 137.246 57.5387 137.43 58.2747 137.43C59.0427 137.43 59.6347 137.286 60.0507 136.998C60.4827 136.694 60.6987 136.31 60.6987 135.846C60.6987 135.35 60.4587 134.982 59.9787 134.742C59.5147 134.502 58.7707 134.238 57.7467 133.95C56.7547 133.678 55.9467 133.414 55.3227 133.158C54.6987 132.902 54.1547 132.51 53.6907 131.982C53.2427 131.454 53.0187 130.758 53.0187 129.894C53.0187 129.19 53.2267 128.55 53.6427 127.974C54.0587 127.382 54.6507 126.918 55.4187 126.582C56.2027 126.246 57.0987 126.078 58.1067 126.078C59.6107 126.078 60.8187 126.462 61.7307 127.23C62.6587 127.982 63.1547 129.014 63.2187 130.326H60.4827C60.4347 129.734 60.1947 129.262 59.7627 128.91C59.3307 128.558 58.7467 128.382 58.0107 128.382C57.2907 128.382 56.7387 128.518 56.3547 128.79C55.9707 129.062 55.7787 129.422 55.7787 129.87C55.7787 130.222 55.9067 130.518 56.1627 130.758C56.4187 130.998 56.7307 131.19 57.0987 131.334C57.4667 131.462 58.0107 131.63 58.7307 131.838C59.6907 132.094 60.4747 132.358 61.0827 132.63C61.7067 132.886 62.2427 133.27 62.6907 133.782C63.1387 134.294 63.3707 134.974 63.3867 135.822C63.3867 136.574 63.1787 137.246 62.7627 137.838C62.3467 138.43 61.7547 138.894 60.9867 139.23C60.2347 139.566 59.3467 139.734 58.3227 139.734ZM67.735 124.542C67.239 124.542 66.823 124.374 66.487 124.038C66.151 123.702 65.983 123.286 65.983 122.79C65.983 122.294 66.151 121.878 66.487 121.542C66.823 121.206 67.239 121.038 67.735 121.038C68.215 121.038 68.623 121.206 68.959 121.542C69.295 121.878 69.463 122.294 69.463 122.79C69.463 123.286 69.295 123.702 68.959 124.038C68.623 124.374 68.215 124.542 67.735 124.542ZM69.079 126.294V139.518H66.343V126.294H69.079ZM78.4071 139.734C77.1591 139.734 76.0311 139.454 75.0231 138.894C74.0151 138.318 73.2231 137.518 72.6471 136.494C72.0711 135.454 71.7831 134.254 71.7831 132.894C71.7831 131.55 72.0791 130.358 72.6711 129.318C73.2631 128.278 74.0711 127.478 75.0951 126.918C76.1191 126.358 77.2631 126.078 78.5271 126.078C79.7911 126.078 80.9351 126.358 81.9591 126.918C82.9831 127.478 83.7911 128.278 84.3831 129.318C84.9751 130.358 85.2711 131.55 85.2711 132.894C85.2711 134.238 84.9671 135.43 84.3591 136.47C83.7511 137.51 82.9191 138.318 81.8631 138.894C80.8231 139.454 79.6711 139.734 78.4071 139.734ZM78.4071 137.358C79.1111 137.358 79.7671 137.19 80.3751 136.854C80.9991 136.518 81.5031 136.014 81.8871 135.342C82.2711 134.67 82.4631 133.854 82.4631 132.894C82.4631 131.934 82.2791 131.126 81.9111 130.47C81.5431 129.798 81.0551 129.294 80.4471 128.958C79.8391 128.622 79.1831 128.454 78.4791 128.454C77.7751 128.454 77.1191 128.622 76.5111 128.958C75.9191 129.294 75.4471 129.798 75.0951 130.47C74.7431 131.126 74.5671 131.934 74.5671 132.894C74.5671 134.318 74.9271 135.422 75.6471 136.206C76.3831 136.974 77.3031 137.358 78.4071 137.358ZM94.6478 126.078C95.6878 126.078 96.6158 126.294 97.4318 126.726C98.2638 127.158 98.9118 127.798 99.3758 128.646C99.8398 129.494 100.072 130.518 100.072 131.718V139.518H97.3598V132.126C97.3598 130.942 97.0638 130.038 96.4718 129.414C95.8798 128.774 95.0718 128.454 94.0478 128.454C93.0238 128.454 92.2078 128.774 91.5998 129.414C91.0078 130.038 90.7118 130.942 90.7118 132.126V139.518H87.9758V126.294H90.7118V127.806C91.1598 127.262 91.7278 126.838 92.4158 126.534C93.1198 126.23 93.8638 126.078 94.6478 126.078Z" fill="white"/>
<defs>
<clipPath id="clip0_1_4412">
<rect width="68" height="77.7143" fill="white" transform="translate(14.1562 14.9766)"/>
</clipPath>
</defs>
</svg>
