<svg width="103" height="146" viewBox="0 0 103 146" fill="none" xmlns="http://www.w3.org/2000/svg">
<rect x="11.373" y="22.499" width="73.5662" height="62.6675" rx="4.54112" fill="white"/>
<g clip-path="url(#clip0_1_4417)">
<path d="M71.2544 57.8118C48.1281 55.9691 29.056 61.5895 24.7255 63.7086C22.33 64.8142 22.1458 66.1962 22.5143 66.9333C22.7907 67.4861 23.9885 67.8547 25.1862 67.2097C34.3997 62.2344 52.9191 58.2725 71.2543 59.3782C71.3633 59.3787 71.4714 59.3575 71.5722 59.316C71.673 59.2745 71.7646 59.2134 71.8417 59.1363C71.9188 59.0592 71.9798 58.9676 72.0213 58.8668C72.0628 58.766 72.084 58.6579 72.0835 58.5489C72.0835 58.1803 71.7151 57.8118 71.2544 57.8118ZM76.9667 50.8095C75.9532 51.9152 74.5711 52.7444 74.1103 52.3758C73.6495 52.0073 74.1103 50.6253 74.1103 50.6253C76.4137 49.1511 80.8363 45.3734 80.8363 42.4251C80.8363 39.7532 78.4408 38.924 75.9532 41.4116C73.9261 43.6229 72.4519 46.3869 71.6227 49.3354C70.3328 50.6253 68.2137 52.2837 66.371 52.2837C65.3575 52.2837 65.1732 51.5466 65.2654 50.6253C66.8317 50.6253 71.2542 49.3354 71.2542 45.6498C71.2542 45.0049 70.9777 44.4521 70.5171 43.9914C70.0564 43.5307 69.5036 43.3465 68.8586 43.4386C66.8317 43.4386 64.344 45.4656 63.054 48.414C62.7776 48.3219 62.4091 48.2298 62.1326 48.0455C62.5012 47.3083 62.6855 46.5712 62.9619 45.8341C63.2383 44.2678 62.5933 43.3465 61.3956 43.5307C60.5664 43.5307 59.645 44.2678 59.3686 45.8341C59.2765 46.6633 59.4607 47.4925 59.7371 48.1375C59.1843 49.8882 56.9731 52.0073 56.236 51.9152C55.4989 51.823 56.3281 48.7826 57.0652 46.4791C57.5259 46.0184 57.8023 45.5577 58.0787 44.9128C58.263 44.4521 58.1708 43.8993 57.7102 43.715C56.6045 43.2543 55.3147 43.8071 54.854 44.9128C54.5776 45.4656 54.3012 46.0184 54.0248 46.6633C53.3798 47.4004 52.4583 48.414 52.1821 48.3219C51.8134 48.0455 53.1954 46.2027 53.0112 45.0972C52.919 44.2678 52.0898 43.6229 51.2606 43.7151C49.9707 43.8993 48.4044 46.2948 48.4044 46.2948C48.5887 45.8341 48.6808 45.3734 48.7729 44.9128C48.6808 43.9914 47.0224 43.6229 46.1931 45.2813C45.6403 46.8476 45.1797 48.506 44.9954 50.1646C44.6269 50.9017 43.2448 53.1129 42.1391 53.2051C41.2177 53.2972 42.3234 49.2432 42.5076 49.059C42.9683 48.3219 43.6134 46.7556 43.5212 46.0184C43.5212 45.6498 43.4291 45.3734 43.1527 45.1892C42.8763 45.0049 42.5076 44.9128 42.2313 45.0049C41.6784 45.1892 41.2177 45.5577 40.9413 46.0184C40.5728 45.5577 39.9278 45.2813 39.2829 45.3734C35.5975 45.742 33.2941 52.1916 33.5705 55.232C33.7548 56.8905 34.584 57.9039 35.966 57.6275C37.5323 57.4433 38.8222 55.0478 38.8222 55.0478C38.8222 55.0478 39.1908 56.9826 40.9413 56.7983C42.2312 56.4298 43.337 55.6006 44.1661 54.4949C44.1661 54.5871 44.074 54.6792 44.074 54.8635C43.7976 56.5219 46.4696 56.3376 46.6538 55.0478C47.483 48.8747 49.51 46.3869 50.0628 46.3869C50.5235 46.3869 48.7729 49.2432 49.7864 50.441C50.6156 51.3623 51.9977 50.6253 53.1954 49.6118C53.0112 50.3489 52.919 51.1781 52.8269 51.9152C52.7347 53.6657 53.3798 55.0478 55.0382 54.9556C57.2495 54.8635 59.5529 52.0994 61.1192 49.5196C61.4877 49.7961 61.9484 49.9803 62.4091 50.0725C62.2248 50.7174 62.2248 51.3623 62.2248 51.9152C62.3169 53.9421 63.6989 54.6792 65.3575 54.5871C67.2002 54.4949 69.4114 53.1129 70.8856 51.7309C70.8856 51.823 70.8856 51.9152 70.7935 51.9152C70.7013 52.9286 70.8856 54.6792 72.2676 54.7713C73.8339 54.8635 76.5981 53.2972 77.9801 51.5466C78.9936 50.9938 77.7959 49.8882 76.9667 50.8095ZM78.4408 42.5173C78.6251 42.5173 78.7172 42.7015 78.7172 42.8858C78.7172 44.6364 74.479 48.2298 74.479 48.2298C74.479 48.2298 77.2431 42.5173 78.4408 42.5173ZM68.1216 46.1105C68.3058 46.1105 68.398 46.1105 68.4901 46.2948C68.5822 46.4791 68.5822 46.5712 68.5822 46.6633C68.5822 47.6768 67.2923 48.414 65.8182 48.414C66.6474 47.2161 67.4766 46.1105 68.1216 46.1105ZM39.5594 48.7826C39.4673 49.7961 37.6246 54.4949 36.7032 54.4949C35.5055 54.5871 37.3482 47.9532 39.283 47.9532C39.6516 47.9532 39.6516 48.2298 39.5594 48.7826ZM23.9883 50.0725C25.1862 50.0725 22.975 56.2455 23.2514 58.9175C23.5278 61.5895 26.4761 60.8524 26.2918 59.2861C25.9232 56.6139 27.7659 48.2298 29.5166 48.2298C30.8065 48.2298 28.0424 53.9421 28.5952 57.5354C28.9638 59.8388 32.0964 59.194 31.7278 57.6275C30.7143 52.9286 34.0312 48.414 33.5705 45.097C33.3864 43.715 32.5572 42.9779 31.7278 42.9779C28.7795 42.9779 26.384 49.059 26.384 49.059C26.384 49.059 26.7525 45.6498 24.2649 45.4656C20.7636 45.2813 17.1703 54.1265 17.2625 62.1423C17.3546 64.7221 20.4872 64.2614 20.3029 62.2344C20.1187 58.6411 22.1456 50.0725 23.9883 50.0725Z" fill="#351416"/>
</g>
<path d="M29.7352 122.838V139.518H26.9992V128.094L21.9112 139.518H20.0152L14.9032 128.094V139.518H12.1672V122.838H15.1192L20.9752 135.918L26.8072 122.838H29.7352ZM32.4193 132.846C32.4193 131.518 32.6913 130.342 33.2353 129.318C33.7953 128.294 34.5473 127.502 35.4913 126.942C36.4513 126.366 37.5073 126.078 38.6593 126.078C39.6993 126.078 40.6033 126.286 41.3713 126.702C42.1553 127.102 42.7793 127.606 43.2433 128.214V126.294H46.0033V139.518H43.2433V137.55C42.7793 138.174 42.1473 138.694 41.3473 139.11C40.5473 139.526 39.6353 139.734 38.6113 139.734C37.4753 139.734 36.4353 139.446 35.4913 138.87C34.5473 138.278 33.7953 137.462 33.2353 136.422C32.6913 135.366 32.4193 134.174 32.4193 132.846ZM43.2433 132.894C43.2433 131.982 43.0513 131.19 42.6673 130.518C42.2993 129.846 41.8113 129.334 41.2033 128.982C40.5953 128.63 39.9393 128.454 39.2353 128.454C38.5313 128.454 37.8753 128.63 37.2673 128.982C36.6593 129.318 36.1633 129.822 35.7793 130.494C35.4113 131.15 35.2273 131.934 35.2273 132.846C35.2273 133.758 35.4113 134.558 35.7793 135.246C36.1633 135.934 36.6593 136.462 37.2673 136.83C37.8913 137.182 38.5473 137.358 39.2353 137.358C39.9393 137.358 40.5953 137.182 41.2033 136.83C41.8113 136.478 42.2993 135.966 42.6673 135.294C43.0513 134.606 43.2433 133.806 43.2433 132.894ZM52.3329 128.214C52.7329 127.542 53.2609 127.022 53.9169 126.654C54.5889 126.27 55.3809 126.078 56.2929 126.078V128.91H55.5969C54.5249 128.91 53.7089 129.182 53.1489 129.726C52.6049 130.27 52.3329 131.214 52.3329 132.558V139.518H49.5969V126.294H52.3329V128.214ZM63.9198 137.07L67.6638 126.294H70.5678L65.5278 139.518H62.2638L57.2478 126.294H60.1758L63.9198 137.07ZM84.7559 132.582C84.7559 133.078 84.7239 133.526 84.6599 133.926H74.5559C74.6359 134.982 75.0279 135.83 75.7319 136.47C76.4359 137.11 77.2999 137.43 78.3239 137.43C79.7959 137.43 80.8359 136.814 81.4439 135.582H84.3959C83.9959 136.798 83.2679 137.798 82.2119 138.582C81.1719 139.35 79.8759 139.734 78.3239 139.734C77.0599 139.734 75.9239 139.454 74.9159 138.894C73.9239 138.318 73.1399 137.518 72.5639 136.494C72.0039 135.454 71.7239 134.254 71.7239 132.894C71.7239 131.534 71.9959 130.342 72.5399 129.318C73.0999 128.278 73.8759 127.478 74.8679 126.918C75.8759 126.358 77.0279 126.078 78.3239 126.078C79.5719 126.078 80.6839 126.35 81.6599 126.894C82.6359 127.438 83.3959 128.206 83.9399 129.198C84.4839 130.174 84.7559 131.302 84.7559 132.582ZM81.8999 131.718C81.8839 130.71 81.5239 129.902 80.8199 129.294C80.1159 128.686 79.2439 128.382 78.2039 128.382C77.2599 128.382 76.4519 128.686 75.7799 129.294C75.1079 129.886 74.7079 130.694 74.5799 131.718H81.8999ZM90.1844 121.758V139.518H87.4484V121.758H90.1844Z" fill="white"/>
<defs>
<clipPath id="clip0_1_4417">
<rect width="63.5757" height="27.6902" fill="white" transform="translate(17.2617 39.9229)"/>
</clipPath>
</defs>
</svg>
