<svg width="97" height="146" viewBox="0 0 97 146" fill="none" xmlns="http://www.w3.org/2000/svg">
<g clip-path="url(#clip0_1_4424)">
<path d="M66.7501 12.0693H54.5968L65.3858 28.8027L42.5687 12.0693H30.405L41.201 33.9954L18.3805 12.0693H6.22021L16.8352 40.3679L6.22021 95.5972H18.3805L41.1975 36.3794L30.405 95.5972H42.5653L65.3858 31.1902L54.5933 95.5972H66.7501L89.748 24.8491L66.7501 12.0693Z" fill="white"/>
</g>
<path d="M41.4504 122.355V139.035H38.7144V127.611L33.6264 139.035H31.7304L26.6184 127.611V139.035H23.8824V122.355H26.8344L32.6904 135.435L38.5224 122.355H41.4504ZM46.4384 124.059C45.9424 124.059 45.5264 123.891 45.1904 123.555C44.8544 123.219 44.6864 122.803 44.6864 122.307C44.6864 121.811 44.8544 121.395 45.1904 121.059C45.5264 120.723 45.9424 120.555 46.4384 120.555C46.9184 120.555 47.3264 120.723 47.6624 121.059C47.9984 121.395 48.1664 121.811 48.1664 122.307C48.1664 122.803 47.9984 123.219 47.6624 123.555C47.3264 123.891 46.9184 124.059 46.4384 124.059ZM47.7824 125.811V139.035H45.0464V125.811H47.7824ZM54.1105 127.731C54.5105 127.059 55.0385 126.539 55.6945 126.171C56.3665 125.787 57.1585 125.595 58.0705 125.595V128.427H57.3745C56.3025 128.427 55.4865 128.699 54.9265 129.243C54.3825 129.787 54.1105 130.731 54.1105 132.075V139.035H51.3745V125.811H54.1105V127.731ZM66.3215 139.251C65.0735 139.251 63.9455 138.971 62.9375 138.411C61.9295 137.835 61.1375 137.035 60.5615 136.011C59.9855 134.971 59.6975 133.771 59.6975 132.411C59.6975 131.067 59.9935 129.875 60.5855 128.835C61.1775 127.795 61.9855 126.995 63.0095 126.435C64.0335 125.875 65.1775 125.595 66.4415 125.595C67.7055 125.595 68.8495 125.875 69.8735 126.435C70.8975 126.995 71.7055 127.795 72.2975 128.835C72.8895 129.875 73.1855 131.067 73.1855 132.411C73.1855 133.755 72.8815 134.947 72.2735 135.987C71.6655 137.027 70.8335 137.835 69.7775 138.411C68.7375 138.971 67.5855 139.251 66.3215 139.251ZM66.3215 136.875C67.0255 136.875 67.6815 136.707 68.2895 136.371C68.9135 136.035 69.4175 135.531 69.8015 134.859C70.1855 134.187 70.3775 133.371 70.3775 132.411C70.3775 131.451 70.1935 130.643 69.8255 129.987C69.4575 129.315 68.9695 128.811 68.3615 128.475C67.7535 128.139 67.0975 127.971 66.3935 127.971C65.6895 127.971 65.0335 128.139 64.4255 128.475C63.8335 128.811 63.3615 129.315 63.0095 129.987C62.6575 130.643 62.4815 131.451 62.4815 132.411C62.4815 133.835 62.8415 134.939 63.5615 135.723C64.2975 136.491 65.2175 136.875 66.3215 136.875Z" fill="white"/>
<defs>
<clipPath id="clip0_1_4424">
<rect width="83.5278" height="83.5278" fill="white" transform="translate(6.22021 12.0693)"/>
</clipPath>
</defs>
</svg>
