<svg width="97" height="145" viewBox="0 0 97 145" fill="none" xmlns="http://www.w3.org/2000/svg">
<path opacity="0.2" d="M91.8656 42.4304L48.3245 89.0816L29.6641 42.4304L48.3245 17.5498H70.0951L91.8656 42.4304Z" fill="white"/>
<path d="M94.1985 40.3814L72.428 15.5008C72.1369 15.1683 71.7783 14.9017 71.3761 14.7187C70.9739 14.5357 70.5373 14.4405 70.0954 14.4395H26.5543C26.1124 14.4405 25.6758 14.5357 25.2736 14.7187C24.8714 14.9017 24.5128 15.1683 24.2217 15.5008L2.45118 40.3814C1.94329 40.9613 1.66884 41.7091 1.68105 42.4798C1.69327 43.2506 1.99127 43.9893 2.51727 44.5528L46.0584 91.204C46.3494 91.516 46.7014 91.7647 47.0927 91.9348C47.4839 92.1049 47.906 92.1926 48.3326 92.1926C48.7592 92.1926 49.1813 92.1049 49.5725 91.9348C49.9638 91.7647 50.3159 91.516 50.6069 91.204L94.148 44.5528C94.6718 43.9874 94.967 43.2476 94.9764 42.4768C94.9857 41.7061 94.7085 40.9594 94.1985 40.3814ZM85.0121 39.3201H68.5404L54.545 20.6596H68.6842L85.0121 39.3201ZM27.5573 45.5402L39.2706 74.8255L11.9408 45.5402H27.5573ZM62.3902 45.5402L48.3248 80.7075L34.2595 45.5402H62.3902ZM35.8845 39.3201L48.3248 22.7317L60.7652 39.3201H35.8845ZM69.0924 45.5402H84.7089L57.3791 74.8255L69.0924 45.5402ZM27.9655 20.6596H42.1047L28.1093 39.3201H11.6376L27.9655 20.6596Z" fill="white"/>
<path d="M14.9809 138.686C13.8609 138.686 12.8529 138.494 11.9569 138.11C11.0609 137.71 10.3569 137.15 9.8449 136.43C9.3329 135.71 9.0769 134.87 9.0769 133.91H12.0049C12.0689 134.63 12.3489 135.222 12.8449 135.686C13.3569 136.15 14.0689 136.382 14.9809 136.382C15.9249 136.382 16.6609 136.158 17.1889 135.71C17.7169 135.246 17.9809 134.654 17.9809 133.934C17.9809 133.374 17.8129 132.918 17.4769 132.566C17.1569 132.214 16.7489 131.942 16.2529 131.75C15.7729 131.558 15.1009 131.35 14.2369 131.126C13.1489 130.838 12.2609 130.55 11.5729 130.262C10.9009 129.958 10.3249 129.494 9.8449 128.87C9.3649 128.246 9.1249 127.414 9.1249 126.374C9.1249 125.414 9.3649 124.574 9.8449 123.854C10.3249 123.134 10.9969 122.582 11.8609 122.198C12.7249 121.814 13.7249 121.622 14.8609 121.622C16.4769 121.622 17.7969 122.03 18.8209 122.846C19.8609 123.646 20.4369 124.75 20.5489 126.158H17.5249C17.4769 125.55 17.1889 125.03 16.6609 124.598C16.1329 124.166 15.4369 123.95 14.5729 123.95C13.7889 123.95 13.1489 124.15 12.6529 124.55C12.1569 124.95 11.9089 125.526 11.9089 126.278C11.9089 126.79 12.0609 127.214 12.3649 127.55C12.6849 127.87 13.0849 128.126 13.5649 128.318C14.0449 128.51 14.7009 128.718 15.5329 128.942C16.6369 129.246 17.5329 129.55 18.2209 129.854C18.9249 130.158 19.5169 130.63 19.9969 131.27C20.4929 131.894 20.7409 132.734 20.7409 133.79C20.7409 134.638 20.5089 135.438 20.0449 136.19C19.5969 136.942 18.9329 137.55 18.0529 138.014C17.1889 138.462 16.1649 138.686 14.9809 138.686ZM29.2013 131.918L35.2973 138.518H31.6013L26.7053 132.83V138.518H23.9693V120.758H26.7053V131.078L31.5053 125.294H35.2973L29.2013 131.918ZM49.3783 131.582C49.3783 132.078 49.3463 132.526 49.2823 132.926H39.1783C39.2583 133.982 39.6503 134.83 40.3543 135.47C41.0583 136.11 41.9223 136.43 42.9463 136.43C44.4183 136.43 45.4583 135.814 46.0663 134.582H49.0183C48.6183 135.798 47.8903 136.798 46.8343 137.582C45.7943 138.35 44.4983 138.734 42.9463 138.734C41.6823 138.734 40.5463 138.454 39.5383 137.894C38.5463 137.318 37.7623 136.518 37.1863 135.494C36.6263 134.454 36.3463 133.254 36.3463 131.894C36.3463 130.534 36.6183 129.342 37.1623 128.318C37.7223 127.278 38.4983 126.478 39.4903 125.918C40.4983 125.358 41.6503 125.078 42.9463 125.078C44.1943 125.078 45.3063 125.35 46.2823 125.894C47.2583 126.438 48.0183 127.206 48.5623 128.198C49.1063 129.174 49.3783 130.302 49.3783 131.582ZM46.5223 130.718C46.5063 129.71 46.1463 128.902 45.4423 128.294C44.7383 127.686 43.8663 127.382 42.8263 127.382C41.8823 127.382 41.0743 127.686 40.4023 128.294C39.7303 128.886 39.3303 129.694 39.2023 130.718H46.5223ZM55.2628 127.526V134.846C55.2628 135.342 55.3748 135.702 55.5988 135.926C55.8388 136.134 56.2388 136.238 56.7988 136.238H58.4788V138.518H56.3188C55.0868 138.518 54.1428 138.23 53.4868 137.654C52.8308 137.078 52.5028 136.142 52.5028 134.846V127.526H50.9428V125.294H52.5028V122.006H55.2628V125.294H58.4788V127.526H55.2628ZM60.0885 131.894C60.0885 130.534 60.3605 129.342 60.9045 128.318C61.4645 127.278 62.2325 126.478 63.2085 125.918C64.1845 125.358 65.3045 125.078 66.5685 125.078C68.1685 125.078 69.4885 125.462 70.5285 126.23C71.5845 126.982 72.2965 128.062 72.6645 129.47H69.7125C69.4725 128.814 69.0885 128.302 68.5605 127.934C68.0325 127.566 67.3685 127.382 66.5685 127.382C65.4485 127.382 64.5525 127.782 63.8805 128.582C63.2245 129.366 62.8965 130.47 62.8965 131.894C62.8965 133.318 63.2245 134.43 63.8805 135.23C64.5525 136.03 65.4485 136.43 66.5685 136.43C68.1525 136.43 69.2005 135.734 69.7125 134.342H72.6645C72.2805 135.686 71.5605 136.758 70.5045 137.558C69.4485 138.342 68.1365 138.734 66.5685 138.734C65.3045 138.734 64.1845 138.454 63.2085 137.894C62.2325 137.318 61.4645 136.518 60.9045 135.494C60.3605 134.454 60.0885 133.254 60.0885 131.894ZM82.2311 125.078C83.2391 125.078 84.1351 125.294 84.9191 125.726C85.7191 126.158 86.3431 126.798 86.7911 127.646C87.2551 128.494 87.4871 129.518 87.4871 130.718V138.518H84.7751V131.126C84.7751 129.942 84.4791 129.038 83.8871 128.414C83.2951 127.774 82.4871 127.454 81.4631 127.454C80.4391 127.454 79.6231 127.774 79.0151 128.414C78.4231 129.038 78.1271 129.942 78.1271 131.126V138.518H75.3911V120.758H78.1271V126.83C78.5911 126.27 79.1751 125.838 79.8791 125.534C80.5991 125.23 81.3831 125.078 82.2311 125.078Z" fill="white"/>
</svg>
