<svg width="97" height="145" viewBox="0 0 97 145" fill="none" xmlns="http://www.w3.org/2000/svg">
<path fill-rule="evenodd" clip-rule="evenodd" d="M87.1431 73.3086C87.1431 78.346 85.142 83.1771 81.5799 86.7391C78.0179 90.3011 73.1868 92.3022 68.1494 92.3022H28.1626C23.1252 92.3022 18.2941 90.3011 14.7321 86.7391C11.1701 83.1771 9.16895 78.346 9.16895 73.3086V33.3218C9.16895 28.2844 11.1701 23.4533 14.7321 19.8912C18.2941 16.3292 23.1252 14.3281 28.1626 14.3281H68.1494C73.1868 14.3281 78.0179 16.3292 81.5799 19.8912C85.142 23.4533 87.1431 28.2844 87.1431 33.3218V73.3086ZM26.8231 71.989C26.1115 71.6337 25.5702 71.0103 25.3182 70.2559C25.0663 69.5015 25.1243 68.6779 25.4795 67.9663L32.8091 53.3152L25.4795 38.66C25.1316 37.9493 25.0786 37.1298 25.3322 36.3802C25.5858 35.6306 26.1254 35.0116 26.8335 34.6582C27.5415 34.3047 28.3605 34.2454 29.1121 34.4931C29.8636 34.7409 30.4868 35.2757 30.8458 35.9809L36.164 46.6094L41.4742 35.9769C41.83 35.2653 42.4539 34.7242 43.2087 34.4726C43.9635 34.221 44.7873 34.2796 45.4989 34.6354C46.2105 34.9912 46.7516 35.6151 47.0032 36.3699C47.2548 37.1246 47.1962 37.9484 46.8404 38.66L39.5149 53.3152L46.8404 67.9663C47.0166 68.3187 47.1217 68.7023 47.1496 69.0952C47.1775 69.4882 47.1278 69.8828 47.0032 70.2565C46.8786 70.6302 46.6817 70.9758 46.4235 71.2734C46.1654 71.571 45.8512 71.8148 45.4989 71.991C45.1465 72.1672 44.7629 72.2722 44.37 72.3001C43.977 72.3281 43.5824 72.2783 43.2087 72.1537C42.835 72.0292 42.4895 71.8322 42.1919 71.5741C41.8942 71.316 41.6504 71.0018 41.4742 70.6494L36.16 60.021L30.8458 70.6494C30.4905 71.361 29.8671 71.9023 29.1127 72.1543C28.3583 72.4063 27.5347 72.3442 26.8231 71.989ZM60.152 56.3142H65.1504V66.3109H60.152C58.8264 66.3109 57.555 65.7843 56.6177 64.8469C55.6803 63.9095 55.1537 62.6382 55.1537 61.3125C55.1537 59.9869 55.6803 58.7155 56.6177 57.7782C57.555 56.8408 58.8264 56.3142 60.152 56.3142ZM60.152 72.3089C57.2356 72.3089 54.4386 71.1503 52.3764 69.0881C50.3142 67.0259 49.1557 64.2289 49.1557 61.3125C49.1557 58.3961 50.3142 55.5992 52.3764 53.5369C54.4386 51.4747 57.2356 50.3162 60.152 50.3162H65.1504V41.3192C65.1504 40.5238 65.4663 39.761 66.0288 39.1986C66.5912 38.6361 67.354 38.3202 68.1494 38.3202C68.9448 38.3202 69.7076 38.6361 70.27 39.1986C70.8324 39.761 71.1484 40.5238 71.1484 41.3192V66.9107C71.1484 68.3424 70.5796 69.7154 69.5673 70.7278C68.5549 71.7401 67.1819 72.3089 65.7502 72.3089H60.152Z" fill="white"/>
<path d="M41.2845 130.19L46.4685 138.518H43.3965L39.6285 132.47L36.1005 138.518H33.0525L38.2365 130.19L33.0285 121.838H36.1005L39.8925 127.934L43.4445 121.838H46.4925L41.2845 130.19ZM54.9202 121.838C56.6962 121.838 58.2482 122.182 59.5762 122.87C60.9202 123.542 61.9522 124.518 62.6722 125.798C63.4082 127.062 63.7762 128.542 63.7762 130.238C63.7762 131.934 63.4082 133.406 62.6722 134.654C61.9522 135.902 60.9202 136.862 59.5762 137.534C58.2482 138.19 56.6962 138.518 54.9202 138.518H49.4722V121.838H54.9202ZM54.9202 136.286C56.8722 136.286 58.3682 135.758 59.4082 134.702C60.4482 133.646 60.9682 132.158 60.9682 130.238C60.9682 128.302 60.4482 126.79 59.4082 125.702C58.3682 124.614 56.8722 124.07 54.9202 124.07H52.2082V136.286H54.9202Z" fill="white"/>
</svg>
